<svg width="16" height="16" viewBox="0 0 16 16" fill="none" xmlns="http://www.w3.org/2000/svg">
<path d="M14.7807 7.01667C14.903 7.15 14.9641 7.30844 14.9641 7.492C14.9641 7.67556 14.903 7.83378 14.7807 7.96667L12.4141 10.3167C12.2918 10.45 12.1363 10.5167 11.9474 10.5167C11.7585 10.5167 11.603 10.45 11.4807 10.3167L10.5307 9.38333C10.3974 9.25 10.3307 9.09178 10.3307 8.90867C10.3307 8.72556 10.3974 8.56711 10.5307 8.43333C10.6641 8.31111 10.8225 8.25 11.0061 8.25C11.1896 8.25 11.3478 8.31111 11.4807 8.43333L11.9474 8.9L13.8307 7.01667C13.9641 6.89444 14.1223 6.83333 14.3054 6.83333C14.4885 6.83333 14.647 6.89444 14.7807 7.01667ZM6.88073 13.6167L5.21406 12.1C4.41406 11.3778 3.72806 10.7333 3.15606 10.1667C2.58406 9.6 2.11184 9.06667 1.7394 8.56667C1.36695 8.06667 1.09473 7.58333 0.922729 7.11667C0.750729 6.65 0.664507 6.16111 0.664062 5.65C0.664062 4.60556 1.01406 3.73622 1.71406 3.042C2.41406 2.34778 3.28628 2.00044 4.33073 2C4.90851 2 5.45851 2.11956 5.98073 2.35867C6.50295 2.59778 6.95295 2.93933 7.33073 3.38333C7.70851 2.93889 8.15851 2.59733 8.68073 2.35867C9.20295 2.12 9.75295 2.00044 10.3307 2C11.2752 2 12.067 2.28622 12.7061 2.85867C13.3452 3.43111 13.7423 4.10044 13.8974 4.86667C13.6752 4.77778 13.4418 4.72222 13.1974 4.7C12.953 4.67778 12.703 4.66667 12.4474 4.66667C11.503 4.66667 10.6363 5.04733 9.8474 5.80867C9.05851 6.57 8.66406 7.52267 8.66406 8.66667C8.66406 9.2 8.78073 9.74178 9.01406 10.292C9.2474 10.8422 9.57517 11.2893 9.9974 11.6333C9.78628 11.8222 9.5114 12.064 9.17273 12.3587C8.83406 12.6533 8.54228 12.9116 8.2974 13.1333L7.76406 13.6167C7.64184 13.7278 7.49451 13.7833 7.32206 13.7833C7.14962 13.7833 7.00251 13.7278 6.88073 13.6167Z" fill="#030303"/>
</svg>
