<svg width="451" height="452" viewBox="0 0 451 452" fill="none" xmlns="http://www.w3.org/2000/svg">
<g style="mix-blend-mode:multiply" filter="url(#filter0_f_1091_9830)">
<ellipse cx="352.194" cy="101.499" rx="67.6644" ry="65.819" fill="#808080"/>
</g>
<path d="M348.858 4.62152C353.987 1.75019 360.239 1.75019 365.368 4.62152C368.877 6.58627 372.973 7.23488 376.917 6.45075C382.682 5.30482 388.629 7.23688 392.619 11.5525C395.349 14.5056 399.044 16.3879 403.038 16.8612C408.875 17.5528 413.933 21.2278 416.394 26.5653C418.079 30.2176 421.011 33.1494 424.663 34.8338C430 37.2952 433.675 42.3535 434.367 48.1904C434.84 52.1844 436.723 55.8787 439.676 58.6092C443.991 62.5996 445.923 68.5459 444.777 74.3109C443.993 78.2557 444.642 82.3508 446.607 85.8602C449.478 90.9889 449.478 97.2412 446.607 102.37C444.642 105.879 443.993 109.974 444.777 113.919C445.923 119.684 443.991 125.631 439.676 129.621C436.723 132.351 434.84 136.046 434.367 140.04C433.675 145.877 430 150.935 424.663 153.396C421.011 155.081 418.079 158.012 416.394 161.665C413.933 167.002 408.875 170.677 403.038 171.369C399.044 171.842 395.349 173.725 392.619 176.678C388.629 180.993 382.682 182.925 376.917 181.779C372.973 180.995 368.877 181.644 365.368 183.609C360.239 186.48 353.987 186.48 348.858 183.609C345.349 181.644 341.254 180.995 337.309 181.779C331.544 182.925 325.598 180.993 321.607 176.678C318.877 173.725 315.182 171.842 311.188 171.369C305.352 170.677 300.293 167.002 297.832 161.665C296.147 158.012 293.216 155.081 289.563 153.396C284.226 150.935 280.551 145.877 279.859 140.04C279.386 136.046 277.504 132.351 274.551 129.621C270.235 125.631 268.303 119.684 269.449 113.919C270.233 109.974 269.584 105.879 267.62 102.37C264.748 97.2412 264.748 90.9889 267.62 85.8602C269.584 82.3508 270.233 78.2557 269.449 74.3109C268.303 68.5459 270.235 62.5996 274.551 58.6092C277.504 55.8787 279.386 52.1844 279.859 48.1904C280.551 42.3535 284.226 37.2952 289.563 34.8338C293.216 33.1494 296.147 30.2177 297.832 26.5653C300.293 21.2278 305.352 17.5528 311.188 16.8612C315.182 16.3879 318.877 14.5056 321.607 11.5525C325.598 7.23688 331.544 5.30482 337.309 6.45075C341.254 7.23488 345.349 6.58627 348.858 4.62152Z" fill="url(#paint0_linear_1091_9830)"/>
<path d="M348.723 6.65772C353.715 3.8634 359.799 3.8634 364.79 6.65772C368.206 8.56979 372.191 9.201 376.03 8.4379C381.64 7.3227 387.427 9.20295 391.311 13.4029C393.968 16.2767 397.563 18.1086 401.45 18.5691C407.13 19.2422 412.053 22.8186 414.448 28.013C416.087 31.5674 418.941 34.4205 422.495 36.0597C427.689 38.4551 431.266 43.3777 431.939 49.0581C432.399 52.945 434.231 56.5402 437.105 59.1975C441.305 63.0808 443.185 68.8676 442.07 74.478C441.307 78.317 441.938 82.3023 443.85 85.7176C446.645 90.7088 446.645 96.7934 443.85 101.785C441.938 105.2 441.307 109.185 442.07 113.024C443.185 118.634 441.305 124.421 437.105 128.305C434.231 130.962 432.399 134.557 431.939 138.444C431.266 144.124 427.689 149.047 422.495 151.442C418.941 153.082 416.087 155.935 414.448 159.489C412.053 164.683 407.13 168.26 401.45 168.933C397.563 169.394 393.968 171.225 391.311 174.099C387.427 178.299 381.64 180.179 376.03 179.064C372.191 178.301 368.206 178.932 364.79 180.844C359.799 183.639 353.715 183.639 348.723 180.844C345.308 178.932 341.323 178.301 337.484 179.064C331.874 180.179 326.087 178.299 322.203 174.099C319.546 171.225 315.951 169.394 312.064 168.933C306.384 168.26 301.461 164.683 299.066 159.489C297.426 155.935 294.573 153.082 291.019 151.442C285.824 149.047 282.248 144.124 281.575 138.444C281.114 134.557 279.283 130.962 276.409 128.305C272.209 124.421 270.329 118.634 271.444 113.024C272.207 109.185 271.576 105.2 269.664 101.785C266.869 96.7934 266.869 90.7088 269.664 85.7176C271.576 82.3023 272.207 78.317 271.444 74.478C270.329 68.8676 272.209 63.0808 276.409 59.1975C279.283 56.5402 281.114 52.945 281.575 49.0581C282.248 43.3777 285.824 38.4551 291.019 36.0597C294.573 34.4205 297.426 31.5674 299.066 28.013C301.461 22.8186 306.384 19.2422 312.064 18.5691C315.951 18.1086 319.546 16.2767 322.203 13.4028C326.087 9.20294 331.874 7.3227 337.484 8.4379C341.323 9.201 345.308 8.56979 348.723 6.65772Z" fill="url(#paint1_linear_1091_9830)"/>
<path d="M349.888 19.3463C354.152 16.959 359.35 16.959 363.614 19.3463C366.532 20.9798 369.937 21.5191 373.216 20.8672C378.01 19.9144 382.953 21.5208 386.271 25.1089C388.541 27.5641 391.613 29.1291 394.933 29.5226C399.786 30.0976 403.992 33.1531 406.038 37.5908C407.439 40.6274 409.876 43.0649 412.913 44.4653C417.351 46.5118 420.406 50.7173 420.981 55.5702C421.375 58.891 422.94 61.9624 425.395 64.2326C428.983 67.5503 430.589 72.4942 429.637 77.2873C428.985 80.567 429.524 83.9718 431.157 86.8896C433.545 91.1537 433.545 96.352 431.157 100.616C429.524 103.534 428.985 106.939 429.637 110.218C430.589 115.011 428.983 119.955 425.395 123.273C422.94 125.543 421.375 128.615 420.981 131.935C420.406 136.788 417.351 140.994 412.913 143.04C409.876 144.441 407.439 146.878 406.038 149.915C403.992 154.353 399.786 157.408 394.933 157.983C391.613 158.377 388.541 159.942 386.271 162.397C382.953 165.985 378.01 167.591 373.216 166.638C369.937 165.987 366.532 166.526 363.614 168.159C359.35 170.547 354.152 170.547 349.888 168.159C346.97 166.526 343.565 165.987 340.285 166.638C335.492 167.591 330.548 165.985 327.231 162.397C324.96 159.942 321.889 158.377 318.568 157.983C313.715 157.408 309.51 154.353 307.463 149.915C306.063 146.878 303.625 144.441 300.589 143.04C296.151 140.994 293.096 136.788 292.521 131.935C292.127 128.615 290.562 125.543 288.107 123.273C284.519 119.955 282.912 115.011 283.865 110.218C284.517 106.939 283.978 103.534 282.344 100.616C279.957 96.352 279.957 91.1537 282.344 86.8896C283.978 83.9718 284.517 80.567 283.865 77.2873C282.912 72.4942 284.519 67.5503 288.107 64.2326C290.562 61.9624 292.127 58.891 292.521 55.5702C293.096 50.7173 296.151 46.5118 300.589 44.4653C303.625 43.0649 306.063 40.6274 307.463 37.5908C309.51 33.1531 313.715 30.0976 318.568 29.5226C321.889 29.1291 324.96 27.5641 327.231 25.1089C330.548 21.5208 335.492 19.9144 340.285 20.8672C343.565 21.5191 346.97 20.9798 349.888 19.3463Z" fill="url(#paint2_linear_1091_9830)"/>
<path d="M350.106 21.7497C354.233 19.4394 359.263 19.4394 363.39 21.7497C366.214 23.3306 369.509 23.8524 372.683 23.2215C377.321 22.2995 382.105 23.854 385.316 27.3264C387.513 29.7024 390.485 31.2169 393.699 31.5977C398.395 32.1542 402.465 35.1111 404.446 39.4057C405.801 42.3443 408.16 44.7032 411.099 46.0584C415.393 48.0389 418.35 52.1087 418.906 56.8051C419.287 60.0187 420.802 62.9911 423.178 65.1881C426.65 68.3987 428.205 73.1831 427.283 77.8216C426.652 80.9956 427.174 84.2905 428.755 87.1142C431.065 91.2407 431.065 96.2713 428.755 100.398C427.174 103.222 426.652 106.516 427.283 109.69C428.205 114.329 426.65 119.113 423.178 122.324C420.802 124.521 419.287 127.493 418.906 130.707C418.35 135.403 415.393 139.473 411.099 141.454C408.16 142.809 405.801 145.168 404.446 148.106C402.465 152.401 398.395 155.358 393.699 155.914C390.485 156.295 387.513 157.81 385.316 160.186C382.105 163.658 377.321 165.213 372.683 164.291C369.509 163.66 366.214 164.181 363.39 165.762C359.263 168.073 354.233 168.073 350.106 165.762C347.283 164.181 343.988 163.66 340.814 164.291C336.175 165.213 331.391 163.658 328.18 160.186C325.983 157.81 323.011 156.295 319.797 155.914C315.101 155.358 311.031 152.401 309.051 148.106C307.695 145.168 305.336 142.809 302.398 141.454C298.103 139.473 295.146 135.403 294.59 130.707C294.209 127.493 292.695 124.521 290.319 122.324C286.846 119.113 285.292 114.329 286.214 109.69C286.845 106.516 286.323 103.222 284.742 100.398C282.432 96.2713 282.432 91.2407 284.742 87.1142C286.323 84.2905 286.845 80.9956 286.214 77.8216C285.292 73.1831 286.846 68.3987 290.319 65.1881C292.695 62.9911 294.209 60.0187 294.59 56.8051C295.146 52.1087 298.103 48.0389 302.398 46.0584C305.336 44.7032 307.695 42.3443 309.051 39.4057C311.031 35.1111 315.101 32.1542 319.797 31.5977C323.011 31.2169 325.983 29.7024 328.18 27.3264C331.391 23.854 336.175 22.2995 340.814 23.2215C343.988 23.8524 347.283 23.3306 350.106 21.7497Z" fill="url(#paint3_linear_1091_9830)"/>
<g filter="url(#filter1_d_1091_9830)">
<mask id="mask0_1091_9830" style="mask-type:alpha" maskUnits="userSpaceOnUse" x="285" y="22" width="145" height="144">
<rect x="285.01" y="22" width="144" height="144" fill="white"/>
</mask>
<g mask="url(#mask0_1091_9830)">
<path d="M320.238 112.254C321.639 115.586 321.105 120.656 323.93 121.209C326.442 121.723 327.777 120.656 327.076 117.721C326.725 115.791 323.774 112.917 320.238 112.254Z" fill="white"/>
<path d="M313.072 123.289C316.208 122.179 322.979 120.127 325.014 121.913C326.182 123.329 325.015 124.857 323.947 125.488C320.735 127.385 314.224 124.165 313.072 123.289Z" fill="white"/>
<path d="M301.905 119.951C306.82 118.569 307.064 113.648 315.266 117.679C311.633 124.525 303.891 122.052 301.905 119.951Z" fill="white"/>
<path d="M309.824 107.844C310.395 112.754 308.571 115.316 315.516 117.168C318.177 110.245 311.15 109.658 309.824 107.844Z" fill="white"/>
<path d="M293.364 110.399C297.623 111.416 299.861 107.831 304.322 114.276C298.742 117.887 293.974 112.801 293.364 110.399Z" fill="white"/>
<path d="M304.352 104.633C302.728 108.549 300.292 109.707 304.722 113.995C309.606 109.921 304.587 106.545 304.352 104.633Z" fill="white"/>
<path d="M289.835 102.339C293.402 104.027 296.042 101.28 298.781 107.795C293.187 109.943 289.926 104.572 289.835 102.339Z" fill="white"/>
<path d="M300.602 99.3086C298.442 102.462 296.078 103.031 299.189 107.636C304.255 104.949 300.454 101.04 300.602 99.3086Z" fill="white"/>
<path d="M288.383 95.0353C290.94 96.7608 293.303 94.9502 294.651 100.305C290.076 101.305 288.191 96.7712 288.383 95.0353Z" fill="white"/>
<path d="M297.051 93.9531C295.011 96.1346 293.117 96.2949 294.978 100.219C299.208 98.7413 296.733 95.2729 297.051 93.9531Z" fill="white"/>
<path d="M288.531 87.0335C290.446 89.2717 293.082 88.2059 292.96 93.4776C288.495 93.2353 287.912 88.5823 288.531 87.0335Z" fill="white"/>
<path d="M296.793 88.2422C294.361 89.7315 292.577 89.3977 293.292 93.4829C297.561 93.1979 296.165 89.3761 296.793 88.2422Z" fill="white"/>
<path d="M289.987 79.3555C291.295 81.9948 294.112 81.6072 292.703 86.6884C288.433 85.3596 289.008 80.7057 289.987 79.3555Z" fill="white"/>
<path d="M297.695 82.5469C294.972 83.3949 293.325 82.6343 293.017 86.7701C297.226 87.5398 296.808 83.4923 297.695 82.5469Z" fill="white"/>
<path d="M292.76 73.1606C293.751 75.7728 296.445 75.6674 294.645 80.3335C290.738 78.6844 291.711 74.3446 292.76 73.1606Z" fill="white"/>
<path d="M299.736 76.8828C297.087 77.4315 295.603 76.5612 294.93 80.4366C298.832 81.5524 298.812 77.6932 299.736 76.8828Z" fill="white"/>
<path d="M296.501 66.6965C297.007 69.2983 299.543 69.6337 297.108 73.7063C293.721 71.5352 295.33 67.6344 296.501 66.6965Z" fill="white"/>
<path d="M302.428 71.3047C299.863 71.3911 298.615 70.3383 297.361 73.8532C300.83 75.5248 301.433 71.9134 302.428 71.3047Z" fill="white"/>
<path d="M301.454 62.3757C301.536 64.5215 303.524 65.1054 301.069 68.0629C298.627 65.9036 300.4 62.981 301.454 62.3757Z" fill="white"/>
<path d="M308.188 61.2828C306.609 62.738 307.456 64.6294 303.612 64.6824C303.669 61.4232 307.043 60.8739 308.188 61.2828Z" fill="white"/>
<path d="M305.631 66.8086C303.567 66.5588 302.699 65.5608 301.258 68.2188C303.827 69.9882 304.759 67.1722 305.631 66.8086Z" fill="white"/>
<path d="M393.775 112.254C392.375 115.586 392.908 120.656 390.084 121.209C387.571 121.723 386.237 120.656 386.938 117.721C387.289 115.791 390.24 112.917 393.775 112.254Z" fill="white"/>
<path d="M400.949 123.289C397.814 122.179 391.042 120.127 389.007 121.913C387.84 123.329 389.007 124.857 390.075 125.488C393.286 127.385 399.798 124.165 400.949 123.289Z" fill="white"/>
<path d="M412.116 119.951C407.201 118.569 406.957 113.648 398.755 117.679C402.389 124.525 410.131 122.052 412.116 119.951Z" fill="white"/>
<path d="M404.203 107.844C403.633 112.754 405.457 115.316 398.512 117.168C395.85 110.245 402.878 109.658 404.203 107.844Z" fill="white"/>
<path d="M420.657 110.399C416.398 111.416 414.16 107.831 409.699 114.276C415.28 117.887 420.047 112.801 420.657 110.399Z" fill="white"/>
<path d="M409.67 104.633C411.293 108.549 413.73 109.707 409.3 113.995C404.415 109.921 409.435 106.545 409.67 104.633Z" fill="white"/>
<path d="M424.185 102.339C420.617 104.027 417.977 101.28 415.239 107.795C420.833 109.943 424.093 104.572 424.185 102.339Z" fill="white"/>
<path d="M413.42 99.3086C415.579 102.462 417.944 103.031 414.832 107.636C409.767 104.949 413.568 101.04 413.42 99.3086Z" fill="white"/>
<path d="M425.638 95.0353C423.081 96.7608 420.718 94.9502 419.371 100.305C423.946 101.305 425.831 96.7712 425.638 95.0353Z" fill="white"/>
<path d="M416.971 93.9531C419.011 96.1346 420.904 96.2949 419.044 100.219C414.814 98.7413 417.289 95.2729 416.971 93.9531Z" fill="white"/>
<path d="M425.483 87.0335C423.568 89.2717 420.932 88.2059 421.054 93.4776C425.519 93.2353 426.101 88.5823 425.483 87.0335Z" fill="white"/>
<path d="M417.229 88.2422C419.661 89.7315 421.444 89.3977 420.73 93.4829C416.46 93.1979 417.857 89.3761 417.229 88.2422Z" fill="white"/>
<path d="M424.034 79.3555C422.726 81.9948 419.91 81.6072 421.319 86.6884C425.588 85.3596 425.013 80.7057 424.034 79.3555Z" fill="white"/>
<path d="M416.326 82.5469C419.049 83.3949 420.697 82.6343 421.005 86.7701C416.796 87.5398 417.213 83.4923 416.326 82.5469Z" fill="white"/>
<path d="M421.262 73.1606C420.271 75.7728 417.576 75.6674 419.376 80.3335C423.284 78.6844 422.311 74.3446 421.262 73.1606Z" fill="white"/>
<path d="M414.285 76.8828C416.934 77.4315 418.419 76.5612 419.092 80.4366C415.19 81.5524 415.21 77.6932 414.285 76.8828Z" fill="white"/>
<path d="M417.513 66.6965C417.007 69.2983 414.471 69.6337 416.905 73.7063C420.293 71.5352 418.684 67.6344 417.513 66.6965Z" fill="white"/>
<path d="M411.592 71.3047C414.157 71.3911 415.405 70.3383 416.658 73.8532C413.19 75.5248 412.587 71.9134 411.592 71.3047Z" fill="white"/>
<path d="M412.559 62.3757C412.478 64.5215 410.489 65.1054 412.945 68.0629C415.387 65.9036 413.614 62.981 412.559 62.3757Z" fill="white"/>
<path d="M405.832 61.2828C407.411 62.738 406.563 64.6294 410.407 64.6824C410.35 61.4232 406.976 60.8739 405.832 61.2828Z" fill="white"/>
<path d="M408.391 66.8086C410.455 66.5588 411.323 65.5608 412.763 68.2188C410.195 69.9882 409.263 67.1722 408.391 66.8086Z" fill="white"/>
<path d="M328.193 75.3889C328.358 75.3889 328.496 75.4482 328.608 75.5667L329.783 76.8207C329.204 77.558 328.483 78.1175 327.621 78.4993C326.765 78.8811 325.744 79.0721 324.56 79.0721C323.487 79.0721 322.522 78.891 321.666 78.529C320.811 78.1603 320.083 77.6502 319.484 76.9984C318.885 76.3467 318.424 75.5733 318.102 74.678C317.779 73.7827 317.618 72.8052 317.618 71.7453C317.618 71.0344 317.694 70.3596 317.845 69.7211C318.003 69.076 318.23 68.4835 318.526 67.9437C318.823 67.4039 319.178 66.9168 319.593 66.4823C320.014 66.0478 320.488 65.6792 321.015 65.3764C321.541 65.067 322.114 64.8333 322.733 64.6753C323.358 64.5107 324.023 64.4285 324.727 64.4285C325.254 64.4285 325.751 64.4745 326.218 64.5667C326.692 64.6589 327.133 64.7872 327.542 64.9518C327.95 65.1164 328.325 65.3171 328.667 65.5541C329.016 65.7845 329.329 66.038 329.605 66.3144L328.608 67.6771C328.549 67.7627 328.473 67.8384 328.381 67.9042C328.289 67.97 328.164 68.003 328.006 68.003C327.848 68.003 327.686 67.947 327.522 67.8351C327.364 67.7232 327.166 67.5981 326.929 67.4599C326.699 67.3216 326.406 67.1965 326.051 67.0846C325.702 66.9727 325.257 66.9168 324.718 66.9168C324.119 66.9168 323.569 67.0254 323.069 67.2426C322.568 67.4599 322.137 67.7758 321.775 68.1906C321.42 68.5987 321.143 69.1023 320.946 69.7013C320.748 70.3004 320.649 70.9817 320.649 71.7453C320.649 72.5155 320.755 73.2034 320.965 73.809C321.183 74.4081 321.475 74.915 321.844 75.3297C322.219 75.7444 322.654 76.0604 323.148 76.2776C323.648 76.4883 324.181 76.5936 324.747 76.5936C325.083 76.5936 325.386 76.5771 325.656 76.5442C325.932 76.5113 326.186 76.4554 326.416 76.3764C326.653 76.2974 326.873 76.1953 327.078 76.0703C327.288 75.9452 327.499 75.7872 327.709 75.5963C327.782 75.537 327.858 75.4877 327.937 75.4482C328.016 75.4087 328.101 75.3889 328.193 75.3889ZM337.721 72.6241C337.721 72.3411 337.681 72.0712 337.602 71.8144C337.53 71.5577 337.411 71.3306 337.247 71.1331C337.082 70.9356 336.875 70.7809 336.625 70.669C336.375 70.5505 336.075 70.4913 335.726 70.4913C335.074 70.4913 334.564 70.6756 334.196 71.0442C333.827 71.4129 333.587 71.9395 333.475 72.6241H337.721ZM333.435 74.2435C333.521 75.198 333.791 75.8958 334.245 76.3369C334.706 76.7779 335.305 76.9984 336.042 76.9984C336.417 76.9984 336.74 76.9557 337.01 76.8701C337.286 76.7779 337.527 76.6792 337.731 76.5739C337.941 76.4619 338.129 76.3632 338.293 76.2776C338.465 76.1855 338.633 76.1394 338.797 76.1394C339.008 76.1394 339.172 76.2184 339.291 76.3764L340.081 77.3638C339.791 77.6995 339.472 77.9793 339.123 78.2031C338.774 78.4203 338.412 78.5948 338.037 78.7265C337.662 78.8515 337.283 78.9371 336.901 78.9832C336.519 79.0358 336.151 79.0622 335.795 79.0622C335.084 79.0622 334.419 78.947 333.801 78.7166C333.188 78.4796 332.652 78.134 332.191 77.6798C331.737 77.219 331.378 76.6496 331.115 75.9715C330.852 75.2935 330.72 74.5068 330.72 73.6116C330.72 72.9204 330.832 72.2687 331.056 71.6564C331.286 71.0442 331.615 70.511 332.043 70.0568C332.471 69.6026 332.991 69.2438 333.603 68.9805C334.215 68.7106 334.907 68.5757 335.677 68.5757C336.329 68.5757 336.928 68.681 337.474 68.8916C338.027 69.0957 338.501 69.3952 338.896 69.7902C339.297 70.1852 339.607 70.6723 339.824 71.2516C340.048 71.8243 340.16 72.4793 340.16 73.2166C340.16 73.4207 340.15 73.5885 340.13 73.7202C340.11 73.8518 340.077 73.9572 340.031 74.0362C339.985 74.1151 339.923 74.1711 339.844 74.204C339.765 74.2303 339.663 74.2435 339.538 74.2435H333.435ZM344.803 70.4123C345.126 69.833 345.498 69.3755 345.919 69.0398C346.34 68.704 346.834 68.5362 347.4 68.5362C347.861 68.5362 348.236 68.6448 348.526 68.862L348.348 70.8764C348.315 71.008 348.263 71.1002 348.19 71.1529C348.124 71.1989 348.032 71.222 347.914 71.222C347.808 71.222 347.657 71.2088 347.459 71.1825C347.262 71.1496 347.078 71.1331 346.907 71.1331C346.656 71.1331 346.433 71.1693 346.235 71.2417C346.044 71.3141 345.873 71.4162 345.722 71.5478C345.57 71.6795 345.432 71.8408 345.307 72.0317C345.188 72.2226 345.076 72.4398 344.971 72.6834V78.9141H342.246V68.7337H343.855C344.132 68.7337 344.323 68.783 344.428 68.8818C344.533 68.9805 344.609 69.1517 344.655 69.3952L344.803 70.4123ZM360.69 78.9141H357.975V70.6888H353.462V76.0011C353.462 76.2842 353.528 76.508 353.66 76.6726C353.798 76.8372 353.992 76.9195 354.242 76.9195C354.374 76.9195 354.486 76.9063 354.578 76.88C354.67 76.847 354.749 76.8141 354.815 76.7812C354.881 76.7417 354.94 76.7088 354.993 76.6825C355.052 76.6496 355.111 76.6331 355.17 76.6331C355.249 76.6331 355.315 76.6528 355.368 76.6923C355.421 76.7253 355.473 76.7845 355.526 76.8701L356.345 78.1735C355.97 78.4697 355.546 78.6935 355.072 78.8449C354.598 78.9963 354.107 79.0721 353.6 79.0721C353.14 79.0721 352.731 79.0062 352.376 78.8746C352.02 78.7363 351.721 78.5421 351.477 78.292C351.234 78.0418 351.05 77.739 350.924 77.3835C350.799 77.0281 350.737 76.6265 350.737 76.1789V70.6888H349.779C349.634 70.6888 349.509 70.6427 349.404 70.5505C349.305 70.4584 349.256 70.3201 349.256 70.1358V69.0694L350.885 68.7731L351.438 66.1367C351.51 65.8405 351.711 65.6924 352.04 65.6924H353.462V68.7929H360.69V78.9141ZM361.115 65.8207C361.115 66.0445 361.069 66.2585 360.976 66.4626C360.884 66.66 360.759 66.8345 360.601 66.9859C360.45 67.1307 360.269 67.2492 360.058 67.3414C359.854 67.4269 359.634 67.4697 359.397 67.4697C359.173 67.4697 358.959 67.4269 358.755 67.3414C358.557 67.2492 358.383 67.1307 358.231 66.9859C358.08 66.8345 357.958 66.66 357.866 66.4626C357.78 66.2585 357.738 66.0445 357.738 65.8207C357.738 65.5903 357.78 65.3764 357.866 65.1789C357.958 64.9748 358.08 64.7971 358.231 64.6457C358.383 64.4943 358.557 64.3758 358.755 64.2902C358.959 64.1981 359.173 64.152 359.397 64.152C359.634 64.152 359.854 64.1981 360.058 64.2902C360.269 64.3758 360.45 64.4943 360.601 64.6457C360.759 64.7971 360.884 64.9748 360.976 65.1789C361.069 65.3764 361.115 65.5903 361.115 65.8207ZM364.161 78.9141V70.6888L363.371 70.5505C363.167 70.511 363 70.4386 362.868 70.3333C362.743 70.228 362.68 70.0766 362.68 69.8791V68.7929H364.161V68.546C364.161 67.9272 364.263 67.3512 364.468 66.818C364.678 66.2782 364.997 65.8109 365.425 65.4159C365.86 65.0143 366.406 64.7016 367.064 64.4778C367.729 64.2474 368.516 64.1322 369.424 64.1322C369.707 64.1322 370 64.1487 370.303 64.1816C370.606 64.2079 370.866 64.2507 371.083 64.31L370.994 65.7022C370.988 65.7812 370.962 65.8438 370.915 65.8898C370.876 65.9359 370.82 65.9721 370.748 65.9985C370.675 66.0248 370.593 66.0413 370.501 66.0478C370.415 66.0544 370.323 66.0577 370.224 66.0577C369.566 66.0577 369.016 66.1137 368.575 66.2256C368.134 66.3309 367.782 66.4922 367.519 66.7094C367.255 66.9267 367.068 67.1965 366.956 67.5191C366.851 67.8417 366.798 68.2136 366.798 68.6349V68.7929H373.177V78.9141H370.451V70.6888H366.887V78.9141H364.161ZM382.366 72.6241C382.366 72.3411 382.326 72.0712 382.247 71.8144C382.175 71.5577 382.056 71.3306 381.892 71.1331C381.727 70.9356 381.52 70.7809 381.27 70.669C381.02 70.5505 380.72 70.4913 380.371 70.4913C379.719 70.4913 379.209 70.6756 378.841 71.0442C378.472 71.4129 378.232 71.9395 378.12 72.6241H382.366ZM378.08 74.2435C378.166 75.198 378.436 75.8958 378.89 76.3369C379.351 76.7779 379.95 76.9984 380.687 76.9984C381.062 76.9984 381.385 76.9557 381.655 76.8701C381.931 76.7779 382.172 76.6792 382.376 76.5739C382.586 76.4619 382.774 76.3632 382.938 76.2776C383.11 76.1855 383.278 76.1394 383.442 76.1394C383.653 76.1394 383.817 76.2184 383.936 76.3764L384.726 77.3638C384.436 77.6995 384.117 77.9793 383.768 78.2031C383.419 78.4203 383.057 78.5948 382.682 78.7265C382.307 78.8515 381.928 78.9371 381.546 78.9832C381.164 79.0358 380.796 79.0622 380.44 79.0622C379.729 79.0622 379.064 78.947 378.446 78.7166C377.833 78.4796 377.297 78.134 376.836 77.6798C376.382 77.219 376.023 76.6496 375.76 75.9715C375.497 75.2935 375.365 74.5068 375.365 73.6116C375.365 72.9204 375.477 72.2687 375.701 71.6564C375.931 71.0442 376.26 70.511 376.688 70.0568C377.116 69.6026 377.636 69.2438 378.248 68.9805C378.86 68.7106 379.552 68.5757 380.322 68.5757C380.974 68.5757 381.573 68.681 382.119 68.8916C382.672 69.0957 383.146 69.3952 383.541 69.7902C383.942 70.1852 384.252 70.6723 384.469 71.2516C384.693 71.8243 384.805 72.4793 384.805 73.2166C384.805 73.4207 384.795 73.5885 384.775 73.7202C384.755 73.8518 384.722 73.9572 384.676 74.0362C384.63 74.1151 384.568 74.1711 384.489 74.204C384.41 74.2303 384.308 74.2435 384.183 74.2435H378.08ZM393.181 71.38C392.924 71.0837 392.644 70.8764 392.341 70.7579C392.045 70.6394 391.729 70.5801 391.394 70.5801C391.064 70.5801 390.765 70.6427 390.495 70.7678C390.225 70.8928 389.991 71.0903 389.794 71.3602C389.603 71.6235 389.455 71.9625 389.35 72.3773C389.244 72.792 389.192 73.2857 389.192 73.8584C389.192 74.4245 389.234 74.9051 389.32 75.3001C389.405 75.695 389.527 76.0143 389.685 76.2579C389.85 76.5014 390.047 76.6792 390.278 76.7911C390.508 76.8964 390.765 76.9491 391.048 76.9491C391.528 76.9491 391.93 76.8536 392.253 76.6627C392.582 76.4718 392.891 76.2019 393.181 75.853V71.38ZM395.906 64.1915V78.9141H394.227C393.879 78.9141 393.655 78.7561 393.556 78.4401L393.329 77.5514C393.125 77.7752 392.908 77.9793 392.677 78.1636C392.453 78.3479 392.21 78.5092 391.946 78.6475C391.683 78.7791 391.4 78.8811 391.097 78.9536C390.794 79.026 390.465 79.0622 390.11 79.0622C389.563 79.0622 389.063 78.947 388.609 78.7166C388.155 78.4862 387.76 78.1504 387.424 77.7094C387.095 77.2618 386.838 76.7154 386.654 76.0703C386.47 75.4251 386.377 74.6879 386.377 73.8584C386.377 73.1014 386.479 72.397 386.683 71.7453C386.894 71.0936 387.19 70.5308 387.572 70.0568C387.954 69.5828 388.415 69.2109 388.955 68.941C389.494 68.6711 390.093 68.5362 390.752 68.5362C391.305 68.5362 391.769 68.6185 392.144 68.783C392.526 68.9476 392.871 69.1714 393.181 69.4545V64.1915H395.906Z" fill="white"/>
<path d="M333.067 99.3228C333.067 99.7153 333.001 100.079 332.871 100.415C332.742 100.748 332.56 101.037 332.323 101.282C332.086 101.526 331.801 101.717 331.467 101.856C331.134 101.991 330.764 102.059 330.356 102.059C329.952 102.059 329.583 101.991 329.249 101.856C328.916 101.717 328.63 101.526 328.39 101.282C328.153 101.037 327.969 100.748 327.838 100.415C327.708 100.079 327.642 99.7153 327.642 99.3228C327.642 98.9303 327.708 98.5674 327.838 98.2342C327.969 97.8985 328.153 97.6084 328.39 97.364C328.63 97.1196 328.916 96.9295 329.249 96.7938C329.583 96.6555 329.952 96.5864 330.356 96.5864C330.628 96.5864 330.883 96.6185 331.123 96.6827C331.362 96.7444 331.582 96.8333 331.782 96.9493C331.982 97.0628 332.161 97.2023 332.319 97.3677C332.479 97.5306 332.615 97.7133 332.726 97.9157C332.837 98.1182 332.921 98.3379 332.978 98.5748C333.037 98.8118 333.067 99.0612 333.067 99.3228ZM332.049 99.3228C332.049 99.0291 332.009 98.7662 331.93 98.5341C331.851 98.2996 331.739 98.1009 331.593 97.938C331.448 97.775 331.27 97.6504 331.06 97.564C330.853 97.4776 330.618 97.4344 330.356 97.4344C330.095 97.4344 329.859 97.4776 329.649 97.564C329.442 97.6504 329.264 97.775 329.116 97.938C328.97 98.1009 328.858 98.2996 328.779 98.5341C328.7 98.7662 328.66 99.0291 328.66 99.3228C328.66 99.6166 328.7 99.8807 328.779 100.115C328.858 100.347 328.97 100.545 329.116 100.708C329.264 100.868 329.442 100.992 329.649 101.078C329.859 101.164 330.095 101.208 330.356 101.208C330.618 101.208 330.853 101.164 331.06 101.078C331.27 100.992 331.448 100.868 331.593 100.708C331.739 100.545 331.851 100.347 331.93 100.115C332.009 99.8807 332.049 99.6166 332.049 99.3228ZM337.649 97.464H336.034V102H335.038V97.464H333.424V96.6457H337.649V97.464ZM340.653 101.196C340.845 101.196 341.017 101.164 341.167 101.1C341.32 101.036 341.449 100.946 341.552 100.83C341.656 100.714 341.735 100.573 341.789 100.408C341.846 100.242 341.875 100.057 341.875 99.8523V96.6457H342.871V99.8523C342.871 100.171 342.819 100.466 342.715 100.737C342.614 101.006 342.467 101.24 342.275 101.437C342.084 101.632 341.852 101.785 341.578 101.896C341.304 102.005 340.996 102.059 340.653 102.059C340.307 102.059 339.997 102.005 339.723 101.896C339.449 101.785 339.216 101.632 339.023 101.437C338.833 101.24 338.686 101.006 338.583 100.737C338.482 100.466 338.431 100.171 338.431 99.8523V96.6457H339.427V99.8486C339.427 100.054 339.454 100.239 339.509 100.404C339.565 100.569 339.646 100.711 339.749 100.83C339.855 100.946 339.984 101.036 340.134 101.1C340.287 101.164 340.46 101.196 340.653 101.196ZM346.145 101.222C346.331 101.222 346.486 101.2 346.612 101.156C346.738 101.111 346.838 101.052 346.912 100.978C346.988 100.904 347.043 100.818 347.075 100.719C347.109 100.62 347.127 100.515 347.127 100.404C347.127 100.288 347.108 100.184 347.071 100.093C347.034 99.9992 346.976 99.9202 346.897 99.856C346.818 99.7894 346.716 99.7388 346.59 99.7042C346.466 99.6697 346.317 99.6524 346.142 99.6524H345.138V101.222H346.145ZM345.138 97.4159V98.9636H345.931C346.271 98.9636 346.528 98.9019 346.701 98.7785C346.876 98.6551 346.964 98.4588 346.964 98.1898C346.964 97.9108 346.885 97.7121 346.727 97.5936C346.569 97.4751 346.322 97.4159 345.986 97.4159H345.138ZM345.986 96.6457C346.337 96.6457 346.637 96.679 346.886 96.7456C347.135 96.8123 347.339 96.9073 347.497 97.0308C347.657 97.1542 347.775 97.3035 347.849 97.4788C347.923 97.6541 347.96 97.8516 347.96 98.0713C347.96 98.1972 347.941 98.3181 347.904 98.4341C347.867 98.5477 347.809 98.6551 347.73 98.7563C347.654 98.855 347.555 98.9451 347.434 99.0266C347.316 99.1081 347.174 99.1772 347.008 99.234C347.744 99.3994 348.112 99.7968 348.112 100.426C348.112 100.653 348.068 100.863 347.982 101.056C347.896 101.248 347.77 101.415 347.604 101.556C347.439 101.694 347.235 101.803 346.993 101.882C346.751 101.961 346.475 102 346.164 102H344.142V96.6457H345.986ZM351.32 101.196C351.512 101.196 351.684 101.164 351.835 101.1C351.988 101.036 352.116 100.946 352.22 100.83C352.323 100.714 352.402 100.573 352.457 100.408C352.513 100.242 352.542 100.057 352.542 99.8523V96.6457H353.538V99.8523C353.538 100.171 353.486 100.466 353.382 100.737C353.281 101.006 353.134 101.24 352.942 101.437C352.752 101.632 352.52 101.785 352.246 101.896C351.972 102.005 351.663 102.059 351.32 102.059C350.974 102.059 350.664 102.005 350.39 101.896C350.116 101.785 349.883 101.632 349.691 101.437C349.5 101.24 349.354 101.006 349.25 100.737C349.149 100.466 349.098 100.171 349.098 99.8523V96.6457H350.094V99.8486C350.094 100.054 350.121 100.239 350.176 100.404C350.232 100.569 350.313 100.711 350.416 100.83C350.522 100.946 350.651 101.036 350.801 101.1C350.954 101.164 351.127 101.196 351.32 101.196ZM358.499 99.3376C358.681 99.3376 358.84 99.3154 358.976 99.271C359.112 99.2241 359.224 99.1587 359.313 99.0747C359.405 98.9883 359.472 98.8847 359.517 98.7637C359.561 98.6403 359.584 98.5033 359.584 98.3527C359.584 98.2095 359.561 98.0799 359.517 97.9639C359.472 97.8479 359.406 97.7491 359.317 97.6676C359.228 97.5862 359.116 97.5245 358.98 97.4825C358.844 97.4381 358.684 97.4159 358.499 97.4159H357.754V99.3376H358.499ZM358.499 96.6457C358.857 96.6457 359.166 96.6876 359.428 96.7716C359.69 96.8555 359.906 96.9727 360.076 97.1233C360.246 97.2739 360.372 97.4541 360.454 97.6639C360.538 97.8738 360.58 98.1034 360.58 98.3527C360.58 98.6119 360.536 98.8501 360.45 99.0673C360.364 99.2821 360.234 99.4672 360.061 99.6228C359.888 99.7783 359.671 99.8992 359.41 99.9856C359.15 100.072 358.847 100.115 358.499 100.115H357.754V102H356.758V96.6457H358.499ZM364.772 98.2009L363.265 102H362.436L360.929 98.2009H361.684C361.753 98.2009 361.81 98.2169 361.854 98.249C361.901 98.2811 361.932 98.3218 361.947 98.3712L362.68 100.4C362.72 100.519 362.754 100.635 362.784 100.748C362.813 100.862 362.839 100.976 362.862 101.089C362.886 100.976 362.913 100.862 362.943 100.748C362.973 100.635 363.008 100.519 363.05 100.4L363.798 98.3712C363.816 98.3218 363.847 98.2811 363.891 98.249C363.935 98.2169 363.989 98.2009 364.05 98.2009H364.772ZM366.674 102.059C366.343 102.059 366.089 101.967 365.911 101.782C365.736 101.594 365.649 101.336 365.649 101.008V98.8859H365.26C365.21 98.8859 365.168 98.8698 365.134 98.8378C365.099 98.8057 365.082 98.7575 365.082 98.6933V98.3305L365.693 98.2305L365.886 97.1937C365.898 97.1443 365.921 97.106 365.956 97.0789C365.99 97.0517 366.035 97.0382 366.089 97.0382H366.563V98.2342H367.578V98.8859H366.563V100.945C366.563 101.063 366.592 101.156 366.648 101.222C366.708 101.289 366.788 101.322 366.889 101.322C366.946 101.322 366.993 101.316 367.03 101.304C367.069 101.289 367.103 101.274 367.13 101.259C367.159 101.245 367.185 101.231 367.207 101.219C367.23 101.204 367.252 101.196 367.274 101.196C367.301 101.196 367.323 101.204 367.341 101.219C367.358 101.231 367.377 101.251 367.396 101.278L367.67 101.722C367.537 101.833 367.384 101.917 367.211 101.974C367.038 102.031 366.859 102.059 366.674 102.059ZM368.178 101.496C368.178 101.42 368.192 101.347 368.219 101.278C368.248 101.209 368.288 101.15 368.337 101.1C368.387 101.051 368.446 101.011 368.515 100.982C368.584 100.952 368.658 100.937 368.737 100.937C368.816 100.937 368.889 100.952 368.956 100.982C369.025 101.011 369.084 101.051 369.133 101.1C369.185 101.15 369.226 101.209 369.256 101.278C369.285 101.347 369.3 101.42 369.3 101.496C369.3 101.575 369.285 101.649 369.256 101.719C369.226 101.785 369.185 101.843 369.133 101.893C369.084 101.942 369.025 101.98 368.956 102.007C368.889 102.037 368.816 102.052 368.737 102.052C368.658 102.052 368.584 102.037 368.515 102.007C368.446 101.98 368.387 101.942 368.337 101.893C368.288 101.843 368.248 101.785 368.219 101.719C368.192 101.649 368.178 101.575 368.178 101.496ZM375.447 101.178V102H372.31V96.6457H373.306V101.178H375.447ZM377.095 102.059C376.764 102.059 376.51 101.967 376.332 101.782C376.157 101.594 376.07 101.336 376.07 101.008V98.8859H375.681C375.631 98.8859 375.589 98.8698 375.555 98.8378C375.52 98.8057 375.503 98.7575 375.503 98.6933V98.3305L376.114 98.2305L376.306 97.1937C376.319 97.1443 376.342 97.106 376.377 97.0789C376.411 97.0517 376.456 97.0382 376.51 97.0382H376.984V98.2342H377.999V98.8859H376.984V100.945C376.984 101.063 377.013 101.156 377.069 101.222C377.129 101.289 377.209 101.322 377.31 101.322C377.367 101.322 377.414 101.316 377.451 101.304C377.49 101.289 377.523 101.274 377.551 101.259C377.58 101.245 377.606 101.231 377.628 101.219C377.651 101.204 377.673 101.196 377.695 101.196C377.722 101.196 377.744 101.204 377.762 101.219C377.779 101.231 377.798 101.251 377.817 101.278L378.091 101.722C377.958 101.833 377.805 101.917 377.632 101.974C377.459 102.031 377.28 102.059 377.095 102.059ZM381.117 99.171C381.013 99.0451 380.9 98.9562 380.776 98.9044C380.655 98.8526 380.525 98.8266 380.384 98.8266C380.246 98.8266 380.121 98.8526 380.01 98.9044C379.899 98.9562 379.804 99.0352 379.725 99.1414C379.646 99.2451 379.585 99.3784 379.543 99.5413C379.501 99.7018 379.48 99.8918 379.48 100.112C379.48 100.334 379.498 100.523 379.532 100.678C379.569 100.831 379.621 100.957 379.688 101.056C379.754 101.152 379.836 101.222 379.932 101.267C380.028 101.309 380.136 101.33 380.254 101.33C380.444 101.33 380.606 101.29 380.739 101.211C380.873 101.132 380.999 101.02 381.117 100.874V99.171ZM382.032 96.4975V102H381.473C381.352 102 381.275 101.944 381.243 101.833L381.165 101.467C381.012 101.642 380.836 101.784 380.636 101.893C380.438 102.001 380.207 102.056 379.943 102.056C379.736 102.056 379.546 102.012 379.373 101.926C379.2 101.84 379.051 101.715 378.925 101.552C378.802 101.387 378.705 101.183 378.636 100.941C378.569 100.699 378.536 100.423 378.536 100.112C378.536 99.8301 378.574 99.5685 378.651 99.3265C378.727 99.0846 378.837 98.8748 378.98 98.697C379.124 98.5193 379.295 98.3811 379.495 98.2823C379.695 98.1811 379.92 98.1305 380.169 98.1305C380.381 98.1305 380.563 98.1638 380.713 98.2305C380.864 98.2971 380.999 98.3872 381.117 98.5008V96.4975H382.032ZM382.949 101.496C382.949 101.42 382.963 101.347 382.99 101.278C383.019 101.209 383.059 101.15 383.108 101.1C383.158 101.051 383.217 101.011 383.286 100.982C383.355 100.952 383.429 100.937 383.508 100.937C383.587 100.937 383.66 100.952 383.727 100.982C383.796 101.011 383.855 101.051 383.904 101.1C383.956 101.15 383.997 101.209 384.027 101.278C384.056 101.347 384.071 101.42 384.071 101.496C384.071 101.575 384.056 101.649 384.027 101.719C383.997 101.785 383.956 101.843 383.904 101.893C383.855 101.942 383.796 101.98 383.727 102.007C383.66 102.037 383.587 102.052 383.508 102.052C383.429 102.052 383.355 102.037 383.286 102.007C383.217 101.98 383.158 101.942 383.108 101.893C383.059 101.843 383.019 101.785 382.99 101.719C382.963 101.649 382.949 101.575 382.949 101.496Z" fill="white"/>
<path d="M349.669 121.259C349.806 121.259 349.914 121.298 349.993 121.377C350.075 121.452 350.116 121.553 350.116 121.68V122.441H345.014V122.02C345.014 121.934 345.031 121.845 345.066 121.752C345.103 121.656 345.162 121.571 345.241 121.495L347.498 119.232C347.687 119.04 347.855 118.857 348.002 118.682C348.153 118.507 348.278 118.334 348.378 118.163C348.477 117.991 348.553 117.818 348.604 117.643C348.659 117.465 348.686 117.278 348.686 117.083C348.686 116.904 348.661 116.748 348.609 116.615C348.558 116.477 348.484 116.363 348.388 116.27C348.295 116.177 348.182 116.109 348.049 116.064C347.918 116.016 347.771 115.992 347.606 115.992C347.455 115.992 347.315 116.015 347.185 116.059C347.058 116.1 346.945 116.16 346.845 116.239C346.746 116.315 346.662 116.404 346.593 116.507C346.525 116.609 346.473 116.723 346.439 116.846C346.381 117.004 346.305 117.108 346.213 117.16C346.12 117.211 345.986 117.223 345.811 117.196L345.143 117.077C345.194 116.721 345.294 116.409 345.441 116.141C345.589 115.871 345.772 115.646 345.991 115.468C346.214 115.286 346.468 115.151 346.753 115.061C347.041 114.969 347.349 114.923 347.678 114.923C348.021 114.923 348.335 114.974 348.619 115.077C348.904 115.176 349.147 115.319 349.35 115.504C349.552 115.689 349.71 115.912 349.823 116.172C349.936 116.433 349.993 116.723 349.993 117.041C349.993 117.316 349.951 117.569 349.869 117.803C349.79 118.036 349.682 118.259 349.545 118.471C349.411 118.684 349.254 118.889 349.072 119.088C348.89 119.287 348.7 119.489 348.501 119.695L346.825 121.408C346.986 121.36 347.145 121.324 347.303 121.3C347.464 121.272 347.617 121.259 347.761 121.259H349.669ZM356.504 118.723C356.504 119.371 356.434 119.935 356.293 120.415C356.156 120.892 355.964 121.286 355.717 121.598C355.474 121.91 355.184 122.143 354.848 122.297C354.516 122.448 354.156 122.524 353.768 122.524C353.381 122.524 353.021 122.448 352.688 122.297C352.359 122.143 352.073 121.91 351.829 121.598C351.586 121.286 351.396 120.892 351.259 120.415C351.121 119.935 351.053 119.371 351.053 118.723C351.053 118.072 351.121 117.508 351.259 117.031C351.396 116.555 351.586 116.16 351.829 115.848C352.073 115.536 352.359 115.305 352.688 115.154C353.021 115 353.381 114.923 353.768 114.923C354.156 114.923 354.516 115 354.848 115.154C355.184 115.305 355.474 115.536 355.717 115.848C355.964 116.16 356.156 116.555 356.293 117.031C356.434 117.508 356.504 118.072 356.504 118.723ZM355.193 118.723C355.193 118.185 355.153 117.739 355.075 117.386C354.996 117.033 354.889 116.752 354.756 116.543C354.625 116.333 354.475 116.188 354.303 116.105C354.132 116.02 353.953 115.977 353.768 115.977C353.587 115.977 353.41 116.02 353.239 116.105C353.071 116.188 352.921 116.333 352.791 116.543C352.661 116.752 352.556 117.033 352.477 117.386C352.402 117.739 352.364 118.185 352.364 118.723C352.364 119.261 352.402 119.707 352.477 120.06C352.556 120.413 352.661 120.695 352.791 120.904C352.921 121.113 353.071 121.26 353.239 121.346C353.41 121.428 353.587 121.469 353.768 121.469C353.953 121.469 354.132 121.428 354.303 121.346C354.475 121.26 354.625 121.113 354.756 120.904C354.889 120.695 354.996 120.413 355.075 120.06C355.153 119.707 355.193 119.261 355.193 118.723ZM362.013 121.259C362.15 121.259 362.258 121.298 362.337 121.377C362.419 121.452 362.46 121.553 362.46 121.68V122.441H357.359V122.02C357.359 121.934 357.376 121.845 357.41 121.752C357.448 121.656 357.506 121.571 357.585 121.495L359.843 119.232C360.031 119.04 360.199 118.857 360.347 118.682C360.498 118.507 360.623 118.334 360.722 118.163C360.822 117.991 360.897 117.818 360.948 117.643C361.003 117.465 361.031 117.278 361.031 117.083C361.031 116.904 361.005 116.748 360.954 116.615C360.902 116.477 360.828 116.363 360.732 116.27C360.64 116.177 360.527 116.109 360.393 116.064C360.263 116.016 360.115 115.992 359.951 115.992C359.8 115.992 359.659 116.015 359.529 116.059C359.402 116.1 359.289 116.16 359.19 116.239C359.09 116.315 359.006 116.404 358.938 116.507C358.869 116.609 358.818 116.723 358.783 116.846C358.725 117.004 358.65 117.108 358.557 117.16C358.464 117.211 358.331 117.223 358.156 117.196L357.487 117.077C357.539 116.721 357.638 116.409 357.786 116.141C357.933 115.871 358.116 115.646 358.336 115.468C358.559 115.286 358.812 115.151 359.097 115.061C359.385 114.969 359.694 114.923 360.023 114.923C360.366 114.923 360.679 114.974 360.964 115.077C361.248 115.176 361.492 115.319 361.694 115.504C361.896 115.689 362.054 115.912 362.167 116.172C362.28 116.433 362.337 116.723 362.337 117.041C362.337 117.316 362.296 117.569 362.214 117.803C362.135 118.036 362.027 118.259 361.89 118.471C361.756 118.684 361.598 118.889 361.416 119.088C361.235 119.287 361.044 119.489 360.846 119.695L359.169 121.408C359.33 121.36 359.49 121.324 359.647 121.3C359.808 121.272 359.961 121.259 360.105 121.259H362.013ZM365.228 117.705C365.393 117.671 365.55 117.647 365.701 117.633C365.852 117.616 365.998 117.607 366.138 117.607C366.529 117.607 366.874 117.665 367.172 117.782C367.47 117.899 367.721 118.06 367.923 118.265C368.125 118.471 368.278 118.713 368.381 118.991C368.484 119.265 368.535 119.561 368.535 119.88C368.535 120.275 368.465 120.635 368.324 120.96C368.187 121.286 367.995 121.565 367.748 121.799C367.501 122.028 367.208 122.207 366.869 122.333C366.533 122.46 366.166 122.524 365.768 122.524C365.535 122.524 365.314 122.5 365.105 122.452C364.896 122.404 364.698 122.34 364.513 122.261C364.332 122.179 364.162 122.087 364.004 121.984C363.85 121.877 363.711 121.766 363.588 121.649L363.978 121.109C364.061 120.993 364.169 120.935 364.302 120.935C364.388 120.935 364.476 120.962 364.565 121.017C364.654 121.072 364.755 121.132 364.868 121.197C364.985 121.262 365.12 121.322 365.274 121.377C365.432 121.432 365.621 121.459 365.84 121.459C366.073 121.459 366.279 121.421 366.457 121.346C366.636 121.271 366.783 121.166 366.9 121.032C367.02 120.895 367.109 120.734 367.167 120.549C367.229 120.36 367.26 120.156 367.26 119.937C367.26 119.532 367.141 119.217 366.905 118.991C366.672 118.761 366.325 118.646 365.866 118.646C365.513 118.646 365.151 118.711 364.781 118.841L363.989 118.615L364.606 115.005H368.278V115.545C368.278 115.727 368.221 115.874 368.108 115.987C367.995 116.1 367.803 116.157 367.532 116.157H365.49L365.228 117.705Z" fill="white"/>
</g>
</g>
<defs>
<filter id="filter0_f_1091_9830" x="0.806976" y="-248.043" width="702.773" height="699.081" filterUnits="userSpaceOnUse" color-interpolation-filters="sRGB">
<feFlood flood-opacity="0" result="BackgroundImageFix"/>
<feBlend mode="normal" in="SourceGraphic" in2="BackgroundImageFix" result="shape"/>
<feGaussianBlur stdDeviation="141.861" result="effect1_foregroundBlur_1091_9830"/>
</filter>
<filter id="filter1_d_1091_9830" x="261.9" y="13.9281" width="190.213" height="178.848" filterUnits="userSpaceOnUse" color-interpolation-filters="sRGB">
<feFlood flood-opacity="0" result="BackgroundImageFix"/>
<feColorMatrix in="SourceAlpha" type="matrix" values="0 0 0 0 0 0 0 0 0 0 0 0 0 0 0 0 0 0 127 0" result="hardAlpha"/>
<feOffset dy="9.36002"/>
<feGaussianBlur stdDeviation="13.212"/>
<feComposite in2="hardAlpha" operator="out"/>
<feColorMatrix type="matrix" values="0 0 0 0 1 0 0 0 0 0.4375 0 0 0 0 0 0 0 0 1 0"/>
<feBlend mode="normal" in2="BackgroundImageFix" result="effect1_dropShadow_1091_9830"/>
<feBlend mode="normal" in="SourceGraphic" in2="effect1_dropShadow_1091_9830" result="shape"/>
</filter>
<linearGradient id="paint0_linear_1091_9830" x1="357.114" y1="289.88" x2="357.114" y2="-58.1116" gradientUnits="userSpaceOnUse">
<stop stop-color="#C59158"/>
<stop offset="0.192458" stop-color="#C59158"/>
<stop offset="0.807016" stop-color="#C59158"/>
<stop offset="1" stop-color="#C59158"/>
</linearGradient>
<linearGradient id="paint1_linear_1091_9830" x1="265.166" y1="31.934" x2="467.186" y2="89.7947" gradientUnits="userSpaceOnUse">
<stop stop-color="#6C470E"/>
<stop offset="0.158738" stop-color="#AE7609"/>
<stop offset="0.283964" stop-color="#E1BB1C"/>
<stop offset="0.388504" stop-color="#F8ECC8"/>
<stop offset="0.513974" stop-color="#E1BB1C"/>
<stop offset="0.732703" stop-color="#AE7609"/>
<stop offset="0.863132" stop-color="#6C470E"/>
</linearGradient>
<linearGradient id="paint2_linear_1091_9830" x1="356.752" y1="18.8546" x2="356.752" y2="181.381" gradientUnits="userSpaceOnUse">
<stop stop-color="#625534"/>
<stop offset="0.994647" stop-color="#4B361A"/>
</linearGradient>
<linearGradient id="paint3_linear_1091_9830" x1="358.813" y1="179.118" x2="355.049" y2="23.558" gradientUnits="userSpaceOnUse">
<stop stop-color="#5C472B"/>
<stop offset="1" stop-color="#51401E"/>
</linearGradient>
</defs>
</svg>
