<svg width="219" height="219" viewBox="0 0 219 219" fill="none" xmlns="http://www.w3.org/2000/svg">
<path d="M66.7667 119.189C66.7667 119.189 99.4231 112.475 117.168 133.664C117.168 133.664 118.302 92.157 92.4035 63.5554C92.4035 63.5554 73.5247 73.5834 66.0256 75.4582C66.0256 75.4582 47.5827 91.9826 39.8655 87.1866C32.1484 82.4342 43.9639 73.1474 43.9639 73.1474C43.9639 73.1474 33.5435 71.8394 36.3339 63.5554C39.0807 55.2278 37.2059 38.965 49.3703 37.6134C61.5347 36.2618 101.734 30.6374 107.794 41.4938C115.914 55.9354 134.516 75.3924 149.52 100.397L148.255 102.708C140.496 116.866 145.229 125.878 143.982 135.016C142.936 142.733 136.963 149.665 129.42 151.802C122.34 153.775 113.979 152.175 105.92 156.205C97.8343 160.215 91.5224 169.444 91.4007 183.455C81.6343 182.191 72.9143 180.359 66.5923 178.223C47.1467 171.683 4.85474 162.178 4.85474 162.178V108.288C4.85474 108.288 29.0532 100.397 66.7667 119.189ZM60.7068 59.4134C60.14 58.4542 58.9192 57.9746 58.0472 57.1898C56.7854 56.1085 55.5842 53.1232 52.4664 54.3994C51.5072 54.8354 50.8096 55.7946 50.6352 56.841C50.3832 58.4778 50.984 57.8059 49.458 60.2854C48.6732 61.6806 48.3244 64.5582 49.458 65.9534C50.8222 67.6939 52.6316 65.4878 55.8236 65.1682C60.668 64.4767 61.8844 61.3113 60.7068 59.4134Z" fill="#D49E7A"/>
<path d="M130.6 155.989C139.752 153.395 147.044 145.026 148.317 135.58C149.682 125.256 144.917 117.887 152.085 104.795C161.05 120.272 179.372 155.415 170.88 171.015C163.685 184.18 131.579 186.921 103.191 184.718C100.647 184.522 98.1505 184.278 95.7036 183.984C96.0651 153.297 120.852 158.682 130.6 155.989Z" fill="#F2C280"/>
</svg>
