<svg width="169" height="152" viewBox="0 0 169 152" fill="none" xmlns="http://www.w3.org/2000/svg">
<path d="M62.2628 85.1168C62.2628 85.1168 94.9192 78.4023 112.664 99.5919C112.664 99.5919 113.798 58.0847 87.8996 29.4831C87.8996 29.4831 69.0208 39.5112 61.5216 41.386C61.5216 41.386 43.0788 57.9104 35.3616 53.1144C27.6444 48.362 39.46 39.0751 39.46 39.0751C39.46 39.0751 29.0396 37.7671 31.83 29.4831C34.5768 21.1555 32.702 4.89275 44.8664 3.54115C57.0308 2.18955 97.23 -3.43485 103.29 7.42155C111.41 21.8632 130.012 41.3201 145.016 66.3251L143.751 68.636C135.992 82.7933 140.725 91.8054 139.478 100.944C138.432 108.661 132.459 115.593 124.916 117.73C117.836 119.702 109.476 118.103 101.416 122.133C93.3304 126.143 87.0185 135.371 86.8968 149.383C77.1304 148.118 68.4104 146.287 62.0884 144.151C42.6428 137.611 0.350835 128.105 0.350835 128.105V74.2159C0.350835 74.2159 24.5493 66.3252 62.2628 85.1168ZM56.2029 25.3411C55.6361 24.3819 54.4153 23.9023 53.5433 23.1175C52.2815 22.0363 51.0803 19.051 47.9625 20.3272C47.0033 20.7632 46.3057 21.7223 46.1313 22.7687C45.8793 24.4055 46.4801 23.7336 44.9541 26.2131C44.1693 27.6083 43.8205 30.4859 44.9541 31.8811C46.3183 33.6217 48.1277 31.4155 51.3197 31.0959C56.1641 30.4044 57.3805 27.2391 56.2029 25.3411Z" fill="#D49E7A"/>
<path d="M126.1 121.917C135.252 119.323 142.544 110.954 143.817 101.507C145.182 91.1841 140.417 83.8144 147.585 70.7227C156.55 86.2002 174.872 121.343 166.38 136.942C159.185 150.108 127.079 152.849 98.6915 150.646C96.1466 150.45 93.6505 150.205 91.2036 149.912C91.5651 119.225 116.352 124.61 126.1 121.917Z" fill="#D61A1A"/>
</svg>
