<svg width="327" height="321" viewBox="0 0 327 321" fill="none" xmlns="http://www.w3.org/2000/svg">
<path d="M222.906 99.8385C233.172 109.964 232.923 124.803 229.593 138.931C224.117 162.154 211.553 183.516 198.456 203.04C183.529 225.367 165.096 249.219 140.645 261.084C131.216 265.657 121.1 268.447 110.853 264.8C99.4765 260.749 91.6191 250.738 84.0921 241.662C75.5385 231.346 67.931 220.282 61.3612 208.602C48.0036 184.877 38.9575 158.969 34.6412 132.077C32.3315 117.488 31.8798 100.44 44.3478 90.5486C55.6054 81.6281 71.3389 81.1904 84.899 80.4244C110.075 78.9944 135.321 79.541 160.404 82.0593C179.407 83.9736 202.085 85.0619 218.527 96.2528C220.092 97.314 221.557 98.5141 222.906 99.8385Z" fill="#7272AF"/>
<path opacity="0.74" d="M98.3721 259.564C80.4547 253.407 72.7929 235.853 69.2268 217.39C63.4071 187.076 67.2282 154.908 72.6297 124.724C78.7952 90.1801 88.3606 51.9139 111.736 24.2105C120.746 13.566 131.524 4.62742 145.942 3.18178C161.928 1.5535 176.858 8.92397 190.874 15.4241C206.76 22.738 221.943 31.4866 236.236 41.5609C265.089 61.8161 289.999 87.1629 309.74 116.355C320.393 132.181 330.094 151.927 320.263 170.608C311.417 187.333 292.497 196.687 276.425 205.178C246.642 220.923 215.704 234.385 183.878 245.447C159.762 253.825 131.624 265.242 105.63 261.307C103.162 260.95 100.733 260.367 98.3721 259.564Z" fill="#6FCBCF"/>
<path opacity="0.85" d="M184.789 77.1989C170.468 73.7675 157.228 81.7651 146.195 92.0374C128.072 108.902 115.185 130.906 104.296 152.259C91.8066 176.726 79.6577 204.955 81.3798 232.114C82.0431 242.556 84.6601 252.651 93.143 259.468C102.546 267.044 115.541 268.491 127.533 270.136C141.133 272.004 154.954 272.667 168.827 272.119C196.859 271.064 224.755 265.169 251.172 254.717C265.47 249.034 281.042 240.476 283.632 224.563C285.959 210.322 278.383 196.66 272.184 184.664C260.718 162.472 247.439 141.256 232.462 121.2C221.14 105.988 208.654 87.2072 190.265 79.0524C188.509 78.2793 186.677 77.6591 184.789 77.1989Z" fill="#F9D020"/>
<path d="M199.986 180.999H180.633C180.613 181.154 180.584 181.273 180.584 181.396C180.581 182.793 180.575 184.193 180.584 185.59C180.584 185.954 180.62 186.322 180.684 186.68C180.778 187.203 181.104 187.538 181.636 187.609C182.091 187.667 182.552 187.699 183.014 187.703C186.272 187.712 189.53 187.716 192.785 187.712C194.214 187.712 195.647 187.712 197.076 187.667C197.915 187.638 198.75 187.519 199.589 187.438C199.712 187.425 199.834 187.416 200.024 187.396C199.889 188.122 199.763 188.799 199.628 189.535C199.444 189.554 199.263 189.59 199.082 189.59C197.811 189.596 196.54 189.6 195.269 189.6C191.027 189.6 186.785 189.6 182.539 189.593C181.681 189.593 180.823 189.593 179.981 189.377C179.797 189.329 179.616 189.271 179.429 189.225C178.097 188.896 177.413 187.961 177.129 186.696C177.007 186.141 176.945 185.564 176.942 184.996C176.929 181.547 176.932 178.099 176.942 174.65C176.945 173.644 177.052 172.653 177.574 171.75C177.923 171.15 178.394 170.721 179.042 170.453C179.942 170.082 180.875 169.95 181.836 169.947C185.143 169.94 188.446 169.934 191.753 169.934C193.024 169.934 194.295 169.943 195.566 169.953C196.45 169.959 197.298 170.156 198.115 170.485C198.786 170.756 199.25 171.218 199.521 171.889C199.837 172.666 199.989 173.473 199.995 174.308C200.008 176.47 200.008 178.631 200.015 180.792C200.015 180.838 199.999 180.886 199.979 181.002L199.986 180.999ZM196.35 179.047C196.369 178.879 196.385 178.815 196.385 178.754C196.385 177.037 196.385 175.324 196.376 173.608C196.376 173.34 196.337 173.069 196.279 172.805C196.163 172.289 195.837 171.969 195.302 171.905C195.05 171.872 194.795 171.843 194.543 171.843C190.508 171.837 186.475 171.837 182.439 171.84C182.201 171.84 181.962 171.86 181.73 171.895C181.104 171.995 180.771 172.314 180.662 172.943C180.607 173.269 180.578 173.608 180.578 173.937C180.571 175.463 180.578 176.986 180.578 178.512C180.578 178.679 180.607 178.847 180.626 179.057C185.891 179.063 191.108 179.063 196.35 179.047Z" fill="#0C07A2"/>
<path d="M134.626 187.216C134.536 188.022 134.452 188.774 134.368 189.513C133.923 189.619 112.473 189.642 111.821 189.539C111.828 189.426 111.821 189.303 111.841 189.187C112.063 187.997 112.144 186.79 112.147 185.583C112.16 179.309 112.173 173.031 112.147 166.756C112.144 165.601 111.954 164.45 111.851 163.295C111.841 163.172 111.821 163.046 111.809 162.93C112.167 162.817 116.244 162.779 116.909 162.875C116.915 162.917 116.941 162.962 116.932 163.004C116.615 164.443 116.599 165.905 116.599 167.366C116.593 173.912 116.593 180.457 116.593 187.003C116.593 187.113 116.609 187.219 116.622 187.374C116.77 187.39 116.906 187.416 117.041 187.416C121.822 187.419 126.606 187.419 131.387 187.422C132.404 187.422 133.423 187.435 134.423 187.209C134.481 187.196 134.543 187.213 134.626 187.216Z" fill="#0C07A2"/>
<path d="M172.05 162.828C172.16 163.612 172.26 164.315 172.363 165.057C172.234 165.057 172.14 165.07 172.053 165.057C170.763 164.864 169.463 164.783 168.159 164.783C166.395 164.783 164.633 164.78 162.869 164.783C162.569 164.783 162.265 164.809 161.969 164.861C161.388 164.957 161.111 165.238 160.998 165.819C160.952 166.051 160.917 166.29 160.914 166.528C160.898 167.545 160.894 168.561 160.891 169.577C160.891 169.667 160.92 169.761 160.943 169.913C164.404 169.951 167.856 169.913 171.34 169.938V171.829H160.93C160.917 172.045 160.898 172.2 160.898 172.351C160.898 176.752 160.898 181.152 160.907 185.556C160.907 186.827 160.956 188.098 161.249 189.343C161.262 189.401 161.249 189.469 161.249 189.569H156.894C156.913 189.375 156.92 189.204 156.949 189.04C157.139 187.972 157.213 186.898 157.217 185.814C157.223 181.284 157.23 176.758 157.233 172.229C157.233 172.119 157.217 172.013 157.207 171.835C156.665 171.803 156.13 171.838 155.597 171.835C155.058 171.829 154.52 171.835 153.994 171.835C153.858 171.467 153.839 170.5 153.955 169.929H157.207C157.217 169.709 157.223 169.542 157.233 169.371C157.284 168.309 157.323 167.245 157.394 166.186C157.43 165.677 157.604 165.202 157.839 164.741C158.204 164.035 158.775 163.589 159.494 163.312C160.181 163.047 160.904 162.918 161.636 162.889C162.478 162.854 163.32 162.844 164.162 162.841C166.53 162.831 168.898 162.831 171.263 162.828C171.515 162.828 171.766 162.828 172.05 162.828Z" fill="#0C07A2"/>
<path d="M111.167 192.777H113.945C113.884 193.535 113.803 194.271 113.774 195.01C113.745 195.771 113.764 196.536 113.764 197.297C113.764 198.039 113.764 198.781 113.764 199.584C116.948 199.584 120.068 199.594 123.252 199.581C123.252 198.391 123.252 197.271 123.252 196.149C123.252 195.039 123.281 193.929 123.013 192.793H125.891C125.617 195.323 125.759 197.845 125.759 200.365C125.759 202.872 125.643 205.378 125.904 207.946C124.955 207.975 124.026 207.972 123.046 207.953C123.4 205.588 123.178 203.246 123.259 200.926C122.904 200.797 114.945 200.736 113.809 200.842C113.797 200.971 113.774 201.107 113.774 201.242C113.771 202.752 113.755 204.262 113.78 205.772C113.79 206.372 113.897 206.969 113.958 207.569C113.967 207.675 113.971 207.782 113.98 207.93H111.164C111.264 202.888 111.274 197.862 111.167 192.784V192.777Z" fill="#0C07A2"/>
<path d="M164.848 196.822H166.78C166.825 197.058 166.867 197.28 166.922 197.561C167.035 197.461 167.119 197.416 167.167 197.342C167.416 196.974 167.78 196.854 168.193 196.835C168.48 196.822 168.764 196.813 169.051 196.813C171.116 196.813 173.184 196.812 175.248 196.832C175.674 196.835 176.1 196.916 176.519 197.003C177.055 197.116 177.442 197.461 177.6 197.98C177.736 198.432 177.852 198.909 177.858 199.374C177.887 201.374 177.881 203.377 177.862 205.381C177.858 205.787 177.774 206.204 177.674 206.6C177.545 207.104 177.223 207.497 176.719 207.649C176.236 207.794 175.732 207.929 175.232 207.939C173.071 207.971 170.909 207.949 168.751 207.952C168.2 207.952 167.693 207.797 167.164 207.439C167.051 209.952 167.135 212.368 167.296 214.82H164.864C164.912 213.333 164.98 211.849 165.006 210.365C165.032 208.855 165.012 207.346 165.015 205.836C165.015 204.342 165.025 202.848 165.015 201.355C165.006 199.864 165.096 198.367 164.854 196.822H164.848ZM175.8 202.403C175.8 201.229 175.81 200.055 175.797 198.877C175.787 198.058 175.639 197.909 174.819 197.874C174.281 197.851 173.739 197.858 173.2 197.861C171.516 197.861 169.835 197.858 168.151 197.874C167.299 197.884 167.106 198.08 167.103 198.919C167.096 201.206 167.096 203.49 167.109 205.778C167.112 206.671 167.293 206.845 168.2 206.91C168.216 206.91 168.232 206.91 168.248 206.91C170.39 206.91 172.535 206.923 174.677 206.9C175.574 206.891 175.79 206.636 175.797 205.736C175.807 204.626 175.797 203.513 175.797 202.4L175.8 202.403Z" fill="#0C07A2"/>
<path d="M141.753 169.977H145.773C145.773 170.17 145.773 170.338 145.773 170.506C145.776 175.241 145.773 179.974 145.789 184.71C145.792 186.249 145.773 187.794 146.063 189.32C146.076 189.394 146.063 189.472 146.063 189.572H141.75C141.76 189.433 141.756 189.323 141.779 189.22C142.037 188.049 142.102 186.858 142.108 185.668C142.124 181.806 142.124 177.945 142.121 174.087C142.121 172.832 142.053 171.577 141.782 170.344C141.76 170.238 141.766 170.128 141.756 169.983L141.753 169.977Z" fill="#0C07A2"/>
<path d="M203.987 198.003C204.039 197.587 204.084 197.232 204.133 196.854C204.258 196.838 204.365 196.812 204.471 196.812C207.601 196.812 210.733 196.813 213.862 196.825C214.272 196.825 214.685 196.883 215.092 196.945C215.798 197.048 216.237 197.484 216.417 198.151C216.527 198.561 216.592 198.993 216.601 199.419C216.627 200.626 216.608 201.835 216.624 203.042C216.646 204.658 216.543 206.274 216.788 207.923H214.827C214.772 207.739 214.727 207.581 214.675 207.41C214.598 207.442 214.533 207.449 214.514 207.481C214.272 207.904 213.869 207.952 213.443 207.952C211.14 207.952 208.836 207.962 206.533 207.942C206.078 207.939 205.62 207.839 205.171 207.739C204.507 207.591 204.104 207.142 203.907 206.504C203.852 206.323 203.791 206.133 203.787 205.945C203.778 204.82 203.768 203.69 203.794 202.565C203.8 202.287 203.904 202.003 204.007 201.739C204.233 201.148 204.675 200.764 205.291 200.642C205.739 200.551 206.204 200.51 206.662 200.506C208.775 200.487 210.888 200.49 213.001 200.484C213.256 200.484 213.511 200.468 213.762 200.468C214.114 200.468 214.317 200.29 214.437 199.971C214.63 199.442 214.617 198.913 214.469 198.38C214.391 198.109 214.211 197.948 213.927 197.919C213.737 197.9 213.546 197.874 213.359 197.874C210.865 197.874 208.368 197.874 205.875 197.89C205.275 197.893 204.675 197.961 203.991 198.006L203.987 198.003ZM214.533 201.59C213.775 201.59 213.078 201.59 212.382 201.59C210.507 201.59 208.633 201.587 206.759 201.6C206.026 201.606 205.842 201.803 205.797 202.539C205.791 202.632 205.788 202.729 205.788 202.826C205.788 203.778 205.784 204.732 205.788 205.684C205.788 206.61 206.042 206.875 206.962 206.916C207.01 206.916 207.059 206.92 207.104 206.92C209.12 206.92 211.14 206.92 213.156 206.92C213.391 206.92 213.63 206.891 213.866 206.849C214.195 206.791 214.414 206.591 214.475 206.258C214.527 205.978 214.566 205.694 214.569 205.41C214.582 204.297 214.575 203.187 214.575 202.074C214.575 201.935 214.553 201.797 214.533 201.593V201.59Z" fill="#0C07A2"/>
<path d="M137.287 196.825C138.575 196.825 139.862 196.815 141.146 196.832C141.523 196.835 141.907 196.886 142.281 196.948C142.917 197.051 143.365 197.406 143.517 198.048C143.617 198.477 143.727 198.919 143.73 199.358C143.752 201.342 143.756 203.329 143.73 205.313C143.723 205.781 143.607 206.255 143.488 206.71C143.375 207.148 143.059 207.442 142.646 207.626C142.159 207.842 141.646 207.945 141.117 207.945C138.542 207.952 135.971 207.961 133.397 207.939C132.897 207.932 132.387 207.819 131.903 207.681C131.274 207.5 130.884 207.039 130.764 206.397C130.684 205.961 130.632 205.516 130.629 205.074C130.619 203.248 130.629 201.422 130.648 199.596C130.651 199.17 130.693 198.738 130.784 198.322C130.955 197.548 131.458 197.067 132.242 196.944C132.758 196.864 133.284 196.832 133.806 196.822C134.965 196.806 136.126 196.815 137.284 196.815C137.284 196.819 137.284 196.825 137.284 196.828L137.287 196.825ZM141.704 202.38H141.713C141.713 201.3 141.717 200.222 141.71 199.141C141.71 198.89 141.678 198.635 141.639 198.386C141.601 198.122 141.439 197.957 141.165 197.932C140.897 197.906 140.63 197.87 140.359 197.87C138.216 197.867 136.071 197.867 133.929 197.87C133.723 197.87 133.519 197.896 133.313 197.919C132.984 197.954 132.793 198.148 132.748 198.467C132.713 198.719 132.681 198.97 132.681 199.225C132.681 201.367 132.681 203.513 132.687 205.655C132.687 205.845 132.703 206.035 132.735 206.223C132.793 206.574 133.006 206.794 133.358 206.855C133.59 206.897 133.829 206.923 134.068 206.923C136.149 206.926 138.226 206.923 140.307 206.923C140.53 206.923 140.752 206.903 140.968 206.861C141.455 206.764 141.613 206.587 141.668 206.1C141.691 205.897 141.701 205.687 141.701 205.484C141.701 204.451 141.701 203.419 141.701 202.39L141.704 202.38Z" fill="#0C07A2"/>
<path d="M160.279 196.834C160.33 197.241 160.375 197.612 160.424 198.012C160.266 198.012 160.156 198.018 160.05 198.012C159.195 197.964 158.336 197.883 157.482 197.873C155.527 197.851 153.572 197.867 151.62 197.867C151.43 197.867 151.239 197.867 151.049 197.88C150.423 197.918 150.204 198.093 150.165 198.709C150.133 199.26 150.142 199.822 150.194 200.373C150.246 200.925 150.442 201.077 151.004 201.112C151.32 201.131 151.639 201.131 151.955 201.131C153.83 201.135 155.704 201.131 157.582 201.144C157.978 201.144 158.375 201.18 158.766 201.248C159.666 201.402 160.172 201.906 160.353 202.796C160.398 203.028 160.427 203.267 160.43 203.506C160.44 204.412 160.446 205.316 160.44 206.222C160.433 206.958 160.088 207.467 159.382 207.69C158.933 207.832 158.453 207.942 157.985 207.945C154.888 207.967 151.788 207.961 148.691 207.961C148.552 207.961 148.413 207.935 148.265 207.922C148.216 207.526 148.171 207.167 148.116 206.742C148.316 206.751 148.481 206.758 148.649 206.767C149.552 206.822 150.455 206.916 151.359 206.929C153.233 206.951 155.107 206.935 156.985 206.929C157.269 206.929 157.556 206.909 157.84 206.867C158.243 206.809 158.524 206.59 158.54 206.203C158.575 205.348 158.575 204.49 158.533 203.635C158.514 203.232 158.272 203.054 157.862 203.035C157.388 203.012 156.911 203.015 156.433 203.012C154.652 203.006 152.875 203.012 151.094 202.99C150.604 202.983 150.11 202.925 149.629 202.832C148.887 202.69 148.413 202.222 148.258 201.48C148.042 200.457 148.039 199.425 148.249 198.402C148.429 197.515 148.933 197.057 149.833 196.925C150.239 196.863 150.655 196.831 151.065 196.831C153.988 196.818 156.914 196.815 159.837 196.809C159.962 196.809 160.088 196.825 160.288 196.838L160.279 196.834Z" fill="#0C07A2"/>
<path d="M199.377 196.793V197.844H193.567C193.544 198.009 193.515 198.128 193.515 198.248C193.515 200.741 193.515 203.238 193.518 205.732C193.518 205.906 193.541 206.081 193.58 206.252C193.657 206.594 193.87 206.81 194.231 206.855C194.422 206.877 194.609 206.91 194.799 206.91C196.37 206.916 197.944 206.971 199.512 206.752C199.648 206.732 199.79 206.752 199.97 206.752C199.935 207.142 199.899 207.51 199.861 207.913C199.674 207.926 199.522 207.948 199.367 207.948C197.715 207.948 196.06 207.965 194.409 207.939C193.889 207.929 193.367 207.839 192.86 207.716C192.167 207.548 191.728 207.081 191.615 206.364C191.547 205.926 191.496 205.481 191.492 205.039C191.483 202.877 191.492 200.716 191.492 198.554C191.492 198.338 191.473 198.122 191.46 197.864H189.728C189.608 197.486 189.605 197.328 189.699 196.809C190.279 196.796 190.873 196.78 191.499 196.767V194.593C192.17 194.48 192.805 194.37 193.496 194.254V196.741C193.705 196.764 193.87 196.793 194.038 196.793C195.628 196.793 197.215 196.793 198.806 196.793C198.98 196.793 199.151 196.793 199.374 196.793H199.377Z" fill="#0C07A2"/>
<path d="M221.703 192.781H223.948C223.948 192.977 223.948 193.145 223.948 193.313C223.948 196.726 223.945 200.142 223.951 203.556C223.951 204.998 223.893 206.44 224.142 207.937C223.309 207.975 222.509 207.962 221.664 207.946C221.9 206.711 221.874 205.507 221.874 204.307C221.877 201.352 221.89 198.4 221.871 195.445C221.864 194.623 221.751 193.803 221.69 192.981C221.687 192.919 221.696 192.858 221.703 192.777V192.781Z" fill="#0C07A2"/>
<path d="M182.804 207.954C183.023 204.215 183.02 200.557 182.814 196.863H185.004C185.004 197.044 185.004 197.212 185.004 197.383C185.004 199.783 184.998 202.18 185.011 204.58C185.017 205.687 184.936 206.796 185.233 207.958C184.385 207.967 183.585 207.974 182.801 207.954H182.804Z" fill="#0C07A2"/>
<path d="M146.489 210.621V212.25H135.495C135.401 211.899 135.391 211.186 135.475 210.621H146.489Z" fill="#C4E1DE"/>
<path d="M158.696 210.621V212.25H147.702C147.608 211.899 147.598 211.186 147.682 210.621H158.696Z" fill="#DDE213"/>
<path d="M134.278 210.621V212.25H123.284C123.19 211.899 123.18 211.186 123.264 210.621H134.278Z" fill="#81B9BB"/>
<path d="M122.071 210.621V212.25H111.077C110.983 211.899 110.973 211.186 111.057 210.621H122.071Z" fill="#312CCD"/>
<path d="M145.748 164.705V167.407C145.376 167.511 142.677 167.517 142.145 167.414V164.712C143.32 164.702 144.501 164.702 145.748 164.705Z" fill="#0C07A2"/>
<path d="M182.973 193.773H184.978V195.343H182.973V193.773Z" fill="#0C07A2"/>
<path d="M199.828 213.1C199.986 212.187 200.138 211.302 200.3 210.363C200.855 210.308 201.404 210.272 201.943 210.398C202.34 210.492 202.56 210.973 202.24 211.338C202.159 211.431 202.082 211.535 202.001 211.638C202.027 211.706 202.037 211.77 202.069 211.819C202.434 212.38 202.208 212.949 201.549 213.113C201.145 213.213 200.374 213.213 199.831 213.097L199.828 213.1ZM200.225 212.8C200.664 212.913 201.042 212.891 201.413 212.826C201.555 212.8 201.707 212.697 201.804 212.581C202.037 212.306 201.904 211.964 201.549 211.912C201.252 211.87 200.948 211.874 200.648 211.886C200.561 211.89 200.432 211.983 200.406 212.064C200.325 212.293 200.287 212.539 200.225 212.8ZM200.7 210.653C200.642 210.963 200.593 211.228 200.532 211.577C200.958 211.547 201.304 211.551 201.639 211.496C201.865 211.457 202.024 211.202 202.014 211.002C202.004 210.798 201.869 210.676 201.581 210.653C201.304 210.634 201.02 210.65 200.703 210.65L200.7 210.653Z" fill="#0C07A2"/>
<path d="M174.453 211.898C174.637 212.353 174.966 212.679 175.072 213.131C174.84 213.241 174.685 213.196 174.578 212.992C174.485 212.808 174.398 212.621 174.298 212.44C173.965 211.859 173.884 211.827 173.113 211.936C173.045 212.246 172.967 212.582 172.896 212.918C172.854 213.118 172.774 213.241 172.477 213.125C172.644 212.211 172.812 211.3 172.983 210.374C173.603 210.374 174.175 210.345 174.74 210.383C175.224 210.416 175.457 210.852 175.237 211.284C175.15 211.459 174.976 211.594 174.821 211.723C174.73 211.801 174.601 211.833 174.446 211.904L174.453 211.898ZM173.235 211.513C173.616 211.639 174.007 211.565 174.394 211.53C174.485 211.52 174.607 211.497 174.656 211.436C174.753 211.307 174.863 211.152 174.872 211C174.885 210.81 174.717 210.697 174.527 210.677C174.34 210.658 174.149 210.648 173.962 210.651C173.319 210.664 173.319 210.519 173.206 211.355C173.2 211.397 173.226 211.446 173.239 211.51L173.235 211.513Z" fill="#0C07A2"/>
<path d="M206.824 213.362C207.185 213.578 207.537 213.843 207.97 213.626C208.157 213.533 208.306 213.397 208.319 213.097C208.112 213.12 207.935 213.145 207.754 213.158C207.192 213.194 206.882 212.9 206.901 212.338C206.917 211.886 207.089 211.508 207.457 211.231C207.725 211.031 208.022 210.966 208.354 211.044C208.564 211.092 208.78 211.115 209.048 211.16C209.026 211.295 208.997 211.473 208.964 211.647C208.877 212.132 208.809 212.619 208.696 213.097C208.532 213.794 207.947 214.143 207.256 213.991C206.911 213.917 206.798 213.765 206.824 213.365V213.362ZM208.587 211.931C208.593 211.441 208.17 211.189 207.767 211.415C207.486 211.573 207.357 211.841 207.286 212.141C207.227 212.39 207.266 212.616 207.486 212.774C207.66 212.9 207.999 212.877 208.199 212.732C208.48 212.529 208.542 212.219 208.583 211.935L208.587 211.931Z" fill="#0C07A2"/>
<path d="M220.922 210.38H221.368C221.3 210.744 221.239 211.08 221.164 211.477C221.687 211.516 222.156 211.519 222.624 211.477C222.701 211.471 222.798 211.313 222.83 211.209C222.892 210.996 222.911 210.774 222.956 210.554C223.002 210.344 223.131 210.318 223.35 210.409C223.311 210.673 223.282 210.935 223.237 211.196C223.134 211.758 223.021 212.32 222.914 212.882C222.879 213.066 222.84 213.227 222.543 213.153C222.598 212.733 222.653 212.32 222.711 211.849C222.188 211.849 221.717 211.849 221.245 211.849C221.061 211.849 221.013 211.984 220.993 212.136C220.958 212.404 220.919 212.672 220.884 212.94C220.858 213.15 220.735 213.195 220.496 213.13C220.577 212.22 220.848 211.342 220.926 210.376L220.922 210.38Z" fill="#0C07A2"/>
<path d="M191.098 212.166C190.546 212.195 189.997 212.221 189.451 212.25C189.493 212.867 189.874 213.099 190.362 212.873C190.536 212.793 190.675 212.586 190.904 212.68C190.917 212.712 190.93 212.728 190.927 212.738C190.769 213.132 190.272 213.338 189.723 213.238C189.355 213.17 189.138 212.909 189.109 212.499C189.064 211.847 189.429 211.243 189.994 211.065C190.33 210.959 190.672 210.962 190.927 211.233C191.169 211.488 191.253 211.805 191.101 212.169L191.098 212.166ZM190.833 211.889C190.743 211.462 190.607 211.327 190.32 211.32C189.975 211.314 189.697 211.53 189.626 211.889H190.833Z" fill="#0C07A2"/>
<path d="M205.469 212.696C205.156 213.21 204.368 213.416 203.923 213.122C203.694 212.971 203.593 212.738 203.568 212.477C203.513 211.947 203.903 211.305 204.401 211.095C205.159 210.772 205.734 211.234 205.634 212.157C205.075 212.183 204.501 212.212 203.929 212.238C203.978 212.848 204.333 213.074 204.83 212.877C205.027 212.8 205.179 212.583 205.469 212.693V212.696ZM205.321 211.86C205.285 211.489 205.153 211.343 204.846 211.324C204.504 211.298 204.242 211.492 204.123 211.876C204.53 211.947 204.924 211.97 205.321 211.863V211.86Z" fill="#0C07A2"/>
<path d="M232.092 212.169C231.511 212.191 230.95 212.214 230.391 212.237C230.443 212.86 230.788 213.083 231.289 212.879C231.482 212.802 231.64 212.589 231.915 212.682C231.841 212.95 231.663 213.105 231.427 213.154C231.166 213.205 230.891 213.234 230.63 213.212C230.294 213.179 230.084 212.915 230.039 212.563C229.962 211.959 230.275 211.381 230.824 211.116C231.163 210.952 231.495 210.935 231.815 211.161C232.092 211.362 232.176 211.643 232.096 212.166L232.092 212.169ZM231.802 211.84C231.699 211.439 231.576 211.326 231.269 211.323C230.904 211.316 230.652 211.507 230.552 211.901C230.975 211.904 231.389 211.978 231.802 211.84Z" fill="#0C07A2"/>
<path d="M226.404 212.174C225.881 212.187 225.335 212.2 224.783 212.213C224.712 212.546 224.844 212.726 225.054 212.868C225.261 213.007 225.477 212.962 225.69 212.865C225.868 212.785 226.007 212.575 226.31 212.72C226.21 212.833 226.139 212.949 226.036 213.02C225.703 213.256 225.326 213.282 224.938 213.204C224.68 213.153 224.528 212.975 224.447 212.733C224.225 212.052 224.683 211.228 225.38 211.038C226.068 210.847 226.691 211.399 226.404 212.174ZM226.117 211.851C226.078 211.493 225.958 211.357 225.684 211.322C225.329 211.277 225.038 211.477 224.916 211.874C225.322 211.926 225.719 211.964 226.117 211.851Z" fill="#0C07A2"/>
<path d="M178.292 212.742C178.208 212.842 178.149 212.955 178.059 213.016C177.759 213.217 177.417 213.288 177.058 213.236C176.732 213.191 176.522 212.974 176.454 212.645C176.345 212.116 176.609 211.48 177.065 211.192C177.394 210.986 177.749 210.902 178.101 211.105C178.479 211.321 178.547 211.686 178.505 212.109C177.94 212.306 177.333 212.064 176.784 212.264C176.845 212.89 177.152 213.081 177.685 212.865C177.843 212.8 178.001 212.732 178.162 212.671C178.182 212.664 178.217 212.697 178.295 212.735L178.292 212.742ZM176.874 211.857C177.336 211.925 177.746 211.97 178.166 211.825C178.143 211.486 177.982 211.341 177.71 211.325C177.346 211.302 177.074 211.454 176.874 211.86V211.857Z" fill="#0C07A2"/>
<path d="M184.881 211.929C184.849 212.779 184.223 213.334 183.412 213.231C183.064 213.185 182.828 212.976 182.75 212.643C182.595 211.949 183.109 211.155 183.806 211.016C184.442 210.89 184.904 211.28 184.881 211.929ZM184.478 212.01C184.504 211.426 184.136 211.184 183.651 211.432C183.277 211.623 183.102 211.942 183.109 212.356C183.118 212.866 183.564 213.111 184.006 212.85C184.339 212.656 184.452 212.333 184.478 212.007V212.01Z" fill="#0C07A2"/>
<path d="M215.766 211.682C215.905 211.753 216.034 211.834 216.17 211.886C216.331 211.947 216.506 211.976 216.67 212.034C217.093 212.183 217.18 212.486 216.909 212.845C216.622 213.229 215.889 213.377 215.479 213.135C215.25 212.999 215.217 212.893 215.324 212.58C215.65 212.696 215.886 213.103 216.296 212.928C216.444 212.867 216.567 212.741 216.774 212.596C216.599 212.489 216.506 212.418 216.402 212.373C216.154 212.267 215.892 212.199 215.653 212.073C215.402 211.944 215.363 211.766 215.473 211.514C215.708 210.978 216.632 210.814 217.022 211.25C217.084 211.317 217.132 211.472 217.097 211.537C217.022 211.676 216.893 211.624 216.767 211.556C216.609 211.466 216.441 211.359 216.267 211.333C216.057 211.301 215.863 211.395 215.76 211.682H215.766Z" fill="#0C07A2"/>
<path d="M211.983 213.093C212.119 212.421 212.248 211.775 212.367 211.191C212.684 211.13 212.942 211.084 213.197 211.026C213.73 210.907 214.078 211.204 214.007 211.737C213.959 212.114 213.885 212.489 213.82 212.863C213.791 213.028 213.759 213.186 213.465 213.131C213.478 212.973 213.484 212.808 213.504 212.647C213.546 212.334 213.617 212.021 213.639 211.704C213.659 211.42 213.507 211.291 213.229 211.333C212.884 211.385 212.642 211.578 212.561 211.927C212.49 212.237 212.438 212.55 212.393 212.863C212.364 213.073 212.296 213.193 211.977 213.086L211.983 213.093Z" fill="#0C07A2"/>
<path d="M194.942 211.097C195.259 211.052 195.268 211.229 195.294 211.407C195.359 211.811 195.436 212.214 195.527 212.731C195.669 212.55 195.753 212.466 195.811 212.366C196.011 212.024 196.202 211.672 196.398 211.329C196.466 211.21 196.524 211.061 196.77 211.129C196.702 211.284 196.647 211.439 196.57 211.581C196.195 212.246 195.817 212.908 195.43 213.564C195.268 213.835 195.042 214.035 194.694 213.99C194.626 213.98 194.565 213.925 194.426 213.851C194.61 213.78 194.723 213.738 194.833 213.696C195.217 213.541 195.343 213.328 195.268 212.911C195.188 212.472 195.084 212.04 195 211.604C194.968 211.442 194.962 211.275 194.946 211.1L194.942 211.097Z" fill="#0C07A2"/>
<path d="M181.585 212.482C181.436 213.051 180.952 213.328 180.397 213.235C179.983 213.167 179.722 212.786 179.793 212.305C179.87 211.788 180.038 211.314 180.577 211.088C180.887 210.958 181.201 210.945 181.485 211.142C181.585 211.21 181.672 211.32 181.72 211.43C181.749 211.494 181.72 211.633 181.672 211.675C181.627 211.711 181.504 211.675 181.427 211.64C181.378 211.617 181.356 211.536 181.31 211.491C181.107 211.294 180.913 211.268 180.665 211.401C180.271 211.611 180.041 212.159 180.167 212.586C180.255 212.886 180.532 213.034 180.842 212.918C180.984 212.863 181.1 212.744 181.236 212.663C181.333 212.605 181.436 212.56 181.585 212.486V212.482Z" fill="#0C07A2"/>
<path d="M187.033 212.62C187.188 212.333 187.33 212.036 187.495 211.755C187.65 211.493 187.75 211.173 188.14 211.051C188.131 211.164 188.15 211.245 188.118 211.299C187.792 211.864 187.462 212.426 187.12 212.982C187.062 213.075 186.936 213.162 186.833 213.178C186.775 213.188 186.655 213.049 186.633 212.959C186.478 212.365 186.345 211.764 186.203 211.157C186.487 211.044 186.62 211.096 186.662 211.351C186.713 211.68 186.771 212.01 186.833 212.336C186.849 212.423 186.884 212.507 186.91 212.594C186.952 212.604 186.994 212.613 187.036 212.623L187.033 212.62Z" fill="#0C07A2"/>
<path d="M229.185 211.043C229.173 211.343 229.034 211.376 228.882 211.366C228.536 211.34 228.388 211.556 228.32 211.837C228.236 212.192 228.181 212.554 228.12 212.912C228.078 213.164 227.949 213.229 227.668 213.103C227.804 212.438 227.939 211.776 228.072 211.127C228.462 211.098 228.808 211.072 229.182 211.046L229.185 211.043Z" fill="#0C07A2"/>
<path d="M192.324 213.106C192.456 212.441 192.588 211.798 192.714 211.169C193.021 211.12 193.282 211.072 193.544 211.043C193.663 211.03 193.831 211.011 193.822 211.198C193.818 211.259 193.676 211.346 193.589 211.359C193.079 211.427 193.008 211.479 192.905 211.976C192.84 212.286 192.792 212.599 192.743 212.915C192.714 213.112 192.63 213.206 192.32 213.112L192.324 213.106Z" fill="#0C07A2"/>
<path d="M210.874 211.133C210.757 211.775 210.651 212.382 210.531 212.989C210.502 213.144 210.386 213.183 210.218 213.099C210.218 213.002 210.202 212.892 210.218 212.786C210.299 212.318 210.389 211.85 210.473 211.378C210.515 211.143 210.518 211.146 210.87 211.133H210.874Z" fill="#0C07A2"/>
<path d="M238.002 213.012C237.869 213.151 237.759 213.209 237.626 213.09C237.604 213.07 237.604 212.989 237.626 212.963C237.743 212.834 237.859 212.844 238.002 213.012Z" fill="#0C07A2"/>
<path d="M233.418 213.084C233.463 212.897 233.554 212.835 233.699 212.9C233.728 212.913 233.758 212.987 233.748 213.02C233.686 213.188 233.567 213.152 233.418 213.084Z" fill="#0C07A2"/>
<path d="M235.418 213.033C235.638 212.894 235.77 212.83 235.91 213.05C235.761 213.179 235.635 213.16 235.418 213.033Z" fill="#0C07A2"/>
<path d="M210.656 210.418H211.025L211.035 210.528C210.909 210.544 210.782 210.557 210.659 210.573C210.659 210.521 210.659 210.47 210.656 210.418Z" fill="#0C07A2"/>
</svg>
