<svg width="626" height="477" viewBox="0 0 626 477" fill="none" xmlns="http://www.w3.org/2000/svg">
<path d="M334.906 253.092C345.172 263.218 344.923 278.057 341.593 292.184C336.117 315.408 323.553 336.77 310.456 356.294C295.529 378.62 277.096 402.473 252.645 414.338C243.216 418.911 233.1 421.701 222.853 418.054C211.476 414.003 203.619 403.991 196.092 394.916C187.539 384.6 179.931 373.535 173.361 361.856C160.004 338.131 150.957 312.223 146.641 285.331C144.332 270.742 143.88 253.694 156.348 243.803C167.605 234.882 183.339 234.444 196.899 233.678C222.075 232.248 247.321 232.795 272.404 235.313C291.407 237.227 314.085 238.316 330.527 249.507C332.092 250.568 333.557 251.768 334.906 253.092Z" fill="#7272AF"/>
<path opacity="0.74" d="M218 418.212C199.754 413.109 191.083 396.032 186.447 377.809C178.87 347.885 180.81 315.549 184.443 285.101C188.585 250.257 195.904 211.499 217.626 182.48C226 171.329 236.238 161.777 250.548 159.494C266.412 156.936 281.746 163.424 296.116 169.097C312.402 175.472 328.07 183.321 342.925 192.545C372.909 211.085 399.254 234.937 420.663 262.929C432.22 278.107 443.055 297.254 434.33 316.476C426.474 333.688 408.13 344.129 392.581 353.542C363.766 370.997 333.665 386.239 302.538 399.137C278.952 408.906 251.526 421.943 225.347 419.529C222.863 419.317 220.403 418.876 218 418.212Z" fill="#6FCBCF"/>
<path opacity="0.85" d="M296.789 230.453C282.468 227.021 269.228 235.019 258.195 245.291C240.072 262.156 227.185 284.16 216.296 305.513C203.807 329.98 191.658 358.209 193.38 385.368C194.043 395.81 196.66 405.905 205.143 412.722C214.546 420.298 227.541 421.745 239.533 423.39C253.133 425.258 266.954 425.921 280.827 425.373C308.859 424.318 336.755 418.423 363.172 407.971C377.47 402.288 393.042 393.73 395.632 377.817C397.959 363.576 390.383 349.914 384.184 337.918C372.718 315.726 359.439 294.509 344.462 274.454C333.14 259.242 320.654 240.461 302.265 232.306C300.509 231.533 298.677 230.913 296.789 230.453Z" fill="#F9D020"/>
<path d="M67.264 70.0742V46.8102H76.8C81.376 46.8102 84.992 49.3702 84.992 53.8822C84.992 56.8582 83.264 59.0662 80.96 60.1862L85.952 70.0742H80.832L76.608 61.3062C76.064 61.3062 75.488 61.3382 74.912 61.3382H71.776V70.0742H67.264ZM75.872 49.4342H71.776V58.7142H75.744C78.624 58.7142 80.48 56.9542 80.48 53.8822C80.48 50.9702 78.624 49.4342 75.872 49.4342ZM105.061 64.5702C105.061 68.6662 101.221 70.3942 97.1248 70.3942C91.6848 70.3942 88.1327 67.0982 88.1327 61.6582C88.1327 56.3462 91.5567 52.8582 96.8688 52.8582C102.021 52.8582 105.285 55.8982 105.285 61.0502C105.285 61.5302 105.253 61.9782 105.221 62.5222H92.3888C92.6128 65.5622 94.0848 68.2502 97.1248 68.2502C99.4928 68.2502 100.901 66.9382 100.901 64.5702H105.061ZM96.8688 55.0022C93.9567 55.0022 92.6768 57.4982 92.4208 60.4102H101.221C101.221 57.3062 99.9728 55.0022 96.8688 55.0022ZM109.576 70.0742V45.5302H113.704V70.0742H109.576ZM124.391 47.5782C124.391 48.9862 123.239 50.1062 121.831 50.1062C120.423 50.1062 119.303 48.9862 119.303 47.5782C119.303 46.2022 120.423 45.0822 121.831 45.0822C123.239 45.0822 124.391 46.2022 124.391 47.5782ZM119.783 70.0742V53.1782H123.911V70.0742H119.783ZM145.552 64.5702C145.552 68.6662 141.712 70.3942 137.616 70.3942C132.176 70.3942 128.624 67.0982 128.624 61.6582C128.624 56.3462 132.048 52.8582 137.36 52.8582C142.512 52.8582 145.776 55.8982 145.776 61.0502C145.776 61.5302 145.744 61.9782 145.712 62.5222H132.88C133.104 65.5622 134.576 68.2502 137.616 68.2502C139.984 68.2502 141.392 66.9382 141.392 64.5702H145.552ZM137.36 55.0022C134.448 55.0022 133.168 57.4982 132.912 60.4102H141.712C141.712 57.3062 140.464 55.0022 137.36 55.0022ZM159.828 55.2902H154.676V70.0742H150.548V55.2902H148.212V53.1782H150.644V51.1622C150.644 47.0662 153.396 45.2102 157.588 45.2102C158.9 45.2102 159.956 45.4022 160.82 45.5942V47.7062C160.148 47.6422 159.572 47.6102 158.868 47.6102C156.052 47.6102 154.676 48.5702 154.676 51.3862V53.1782H159.828V55.2902Z" fill="#F0AD1C"/>
<path d="M393.764 70.0742V46.8102H403.3C407.876 46.8102 411.492 49.3702 411.492 53.8822C411.492 56.8582 409.764 59.0662 407.46 60.1862L412.452 70.0742H407.332L403.108 61.3062C402.564 61.3062 401.988 61.3382 401.412 61.3382H398.276V70.0742H393.764ZM402.372 49.4342H398.276V58.7142H402.244C405.124 58.7142 406.98 56.9542 406.98 53.8822C406.98 50.9702 405.124 49.4342 402.372 49.4342ZM431.561 64.5702C431.561 68.6662 427.721 70.3942 423.625 70.3942C418.185 70.3942 414.633 67.0982 414.633 61.6582C414.633 56.3462 418.057 52.8582 423.369 52.8582C428.521 52.8582 431.785 55.8982 431.785 61.0502C431.785 61.5302 431.753 61.9782 431.721 62.5222H418.889C419.113 65.5622 420.585 68.2502 423.625 68.2502C425.993 68.2502 427.401 66.9382 427.401 64.5702H431.561ZM423.369 55.0022C420.457 55.0022 419.177 57.4982 418.921 60.4102H427.721C427.721 57.3062 426.473 55.0022 423.369 55.0022ZM451.597 64.1222C451.597 68.1862 447.917 70.3942 443.5 70.3942C438.188 70.3942 434.796 67.0342 434.796 61.7222C434.796 56.4742 438.252 52.8582 443.533 52.8582C447.788 52.8582 451.66 55.0342 451.66 58.9702V59.2902H447.469C447.469 56.8902 445.932 55.0022 443.533 55.0022C440.172 55.0022 439.052 58.3622 439.052 61.7222C439.052 65.0822 440.14 68.1222 443.5 68.1222C446.028 68.1222 447.373 66.3622 447.373 63.8022H451.597V64.1222ZM472.855 61.6262C472.855 67.0022 469.015 70.3942 463.767 70.3942C458.519 70.3942 454.679 67.0342 454.679 61.6262C454.679 56.3142 458.519 52.8582 463.767 52.8582C468.983 52.8582 472.855 56.3142 472.855 61.6262ZM458.935 61.6262C458.935 65.1782 460.279 68.2502 463.767 68.2502C467.223 68.2502 468.599 65.1782 468.599 61.6262C468.599 58.1382 467.223 55.0022 463.767 55.0022C460.343 55.0022 458.935 58.1702 458.935 61.6262ZM492.337 53.1782L485.169 70.0742H481.585L474.449 53.1782H478.929L484.241 66.1062L489.713 53.1782H492.337ZM510.622 64.5702C510.622 68.6662 506.782 70.3942 502.686 70.3942C497.246 70.3942 493.694 67.0982 493.694 61.6582C493.694 56.3462 497.118 52.8582 502.43 52.8582C507.582 52.8582 510.846 55.8982 510.846 61.0502C510.846 61.5302 510.814 61.9782 510.782 62.5222H497.95C498.174 65.5622 499.646 68.2502 502.686 68.2502C505.054 68.2502 506.462 66.9382 506.462 64.5702H510.622ZM502.43 55.0022C499.518 55.0022 498.238 57.4982 497.982 60.4102H506.782C506.782 57.3062 505.534 55.0022 502.43 55.0022ZM526.05 53.0822V56.3142C525.538 56.1862 524.866 56.0902 524.258 56.0902C522.882 56.0902 521.538 56.4102 520.546 57.3062C519.682 58.1702 519.106 59.4822 519.106 61.4662V70.0742H514.978V53.1782H518.594L519.074 56.4102C519.874 53.7542 522.018 52.8582 524.162 52.8582C524.898 52.8582 525.57 52.9542 526.05 53.0822Z" fill="#01D0BF"/>
<path d="M224.264 70.0742V46.8102H233.8C238.376 46.8102 241.992 49.3702 241.992 53.8822C241.992 56.8582 240.264 59.0662 237.96 60.1862L242.952 70.0742H237.832L233.608 61.3062C233.064 61.3062 232.488 61.3382 231.912 61.3382H228.776V70.0742H224.264ZM232.872 49.4342H228.776V58.7142H232.744C235.624 58.7142 237.48 56.9542 237.48 53.8822C237.48 50.9702 235.624 49.4342 232.872 49.4342ZM262.061 64.5702C262.061 68.6662 258.221 70.3942 254.125 70.3942C248.685 70.3942 245.133 67.0982 245.133 61.6582C245.133 56.3462 248.557 52.8582 253.869 52.8582C259.021 52.8582 262.285 55.8982 262.285 61.0502C262.285 61.5302 262.253 61.9782 262.221 62.5222H249.389C249.613 65.5622 251.085 68.2502 254.125 68.2502C256.493 68.2502 257.901 66.9382 257.901 64.5702H262.061ZM253.869 55.0022C250.957 55.0022 249.677 57.4982 249.421 60.4102H258.221C258.221 57.3062 256.973 55.0022 253.869 55.0022ZM284.593 61.5302C284.593 66.4902 281.457 70.3942 276.561 70.3942C273.745 70.3942 271.792 69.1462 270.704 67.3542L270.224 70.0742H266.576V45.5302H270.704V55.5782C271.92 53.9782 274.096 52.8582 276.592 52.8582C281.552 52.8582 284.593 56.5382 284.593 61.5302ZM275.536 55.2582C272.273 55.2582 270.704 58.1702 270.704 61.5622C270.704 64.9542 272.24 67.8662 275.536 67.8662C278.8 67.8662 280.337 64.8582 280.337 61.5302C280.337 58.2342 278.833 55.2582 275.536 55.2582ZM301.569 70.0742L301.057 67.3222C300.385 68.9542 298.177 70.3942 295.553 70.3942C290.721 70.3942 288.449 67.2582 288.449 62.3942V53.1782H292.577V62.1702C292.577 65.4022 293.697 67.6102 296.737 67.6102C299.617 67.6102 301.057 65.2422 301.057 62.3622V53.1782H305.185V70.0742H301.569ZM315.867 47.5782C315.867 48.9862 314.715 50.1062 313.307 50.1062C311.899 50.1062 310.779 48.9862 310.779 47.5782C310.779 46.2022 311.899 45.0822 313.307 45.0822C314.715 45.0822 315.867 46.2022 315.867 47.5782ZM311.259 70.0742V53.1782H315.387V70.0742H311.259ZM321.38 70.0742V45.5302H325.508V70.0742H321.38ZM344.194 70.0742L343.682 67.2902C342.69 68.9862 340.578 70.3942 337.73 70.3942C332.738 70.3942 329.826 66.6822 329.826 61.6262C329.826 56.7622 332.93 52.8582 337.762 52.8582C340.514 52.8582 342.594 54.0422 343.682 55.6742V45.5302H347.81V70.0742H344.194ZM334.082 61.5622C334.082 64.8902 335.586 67.8982 338.882 67.8982C342.114 67.8982 343.682 64.8262 343.682 61.5622C343.682 58.2982 342.114 55.2582 338.882 55.2582C335.618 55.2582 334.082 58.2982 334.082 61.5622Z" fill="#4848A3"/>
<path d="M311.986 334.253H292.633C292.613 334.408 292.584 334.527 292.584 334.65C292.581 336.047 292.575 337.447 292.584 338.843C292.584 339.208 292.62 339.576 292.684 339.934C292.778 340.457 293.104 340.792 293.636 340.863C294.091 340.921 294.552 340.953 295.014 340.957C298.272 340.966 301.53 340.969 304.785 340.966C306.214 340.966 307.647 340.966 309.076 340.921C309.915 340.892 310.75 340.773 311.589 340.692C311.712 340.679 311.834 340.669 312.024 340.65C311.889 341.376 311.763 342.053 311.628 342.789C311.444 342.808 311.263 342.844 311.082 342.844C309.811 342.85 308.54 342.853 307.269 342.853C303.027 342.853 298.785 342.853 294.539 342.847C293.681 342.847 292.823 342.847 291.981 342.631C291.797 342.582 291.616 342.524 291.429 342.479C290.097 342.15 289.413 341.215 289.129 339.95C289.007 339.395 288.945 338.818 288.942 338.25C288.929 334.801 288.932 331.353 288.942 327.904C288.945 326.897 289.052 325.907 289.574 325.004C289.923 324.404 290.394 323.975 291.042 323.707C291.942 323.336 292.875 323.204 293.836 323.2C297.143 323.194 300.446 323.188 303.753 323.188C305.024 323.188 306.295 323.197 307.566 323.207C308.45 323.213 309.298 323.41 310.115 323.739C310.786 324.01 311.25 324.471 311.521 325.142C311.837 325.92 311.989 326.726 311.995 327.562C312.008 329.723 312.008 331.885 312.015 334.046C312.015 334.092 311.999 334.14 311.979 334.256L311.986 334.253ZM308.35 332.301C308.369 332.133 308.385 332.069 308.385 332.008C308.385 330.291 308.385 328.578 308.376 326.862C308.376 326.594 308.337 326.323 308.279 326.059C308.163 325.543 307.837 325.223 307.302 325.159C307.05 325.126 306.795 325.097 306.543 325.097C302.508 325.091 298.475 325.091 294.439 325.094C294.201 325.094 293.962 325.113 293.73 325.149C293.104 325.249 292.771 325.568 292.662 326.197C292.607 326.523 292.578 326.862 292.578 327.191C292.571 328.717 292.578 330.24 292.578 331.766C292.578 331.933 292.607 332.101 292.626 332.311C297.891 332.317 303.108 332.317 308.35 332.301Z" fill="#0C07A2"/>
<path d="M246.626 340.47C246.536 341.276 246.452 342.028 246.368 342.767C245.923 342.873 224.473 342.896 223.821 342.793C223.828 342.68 223.821 342.557 223.841 342.441C224.063 341.25 224.144 340.044 224.147 338.837C224.16 332.563 224.173 326.285 224.147 320.01C224.144 318.855 223.954 317.704 223.851 316.549C223.841 316.426 223.821 316.3 223.809 316.184C224.167 316.071 228.244 316.032 228.909 316.129C228.915 316.171 228.941 316.216 228.932 316.258C228.615 317.697 228.599 319.159 228.599 320.62C228.593 327.166 228.593 333.711 228.593 340.257C228.593 340.367 228.609 340.473 228.622 340.628C228.77 340.644 228.906 340.67 229.041 340.67C233.822 340.673 238.606 340.673 243.387 340.676C244.404 340.676 245.423 340.689 246.423 340.463C246.481 340.45 246.543 340.467 246.626 340.47Z" fill="#0C07A2"/>
<path d="M284.05 316.082C284.16 316.866 284.26 317.569 284.363 318.311C284.234 318.311 284.14 318.324 284.053 318.311C282.763 318.118 281.463 318.037 280.159 318.037C278.395 318.037 276.633 318.034 274.869 318.037C274.569 318.037 274.265 318.063 273.969 318.114C273.388 318.211 273.111 318.492 272.998 319.073C272.952 319.305 272.917 319.544 272.914 319.782C272.898 320.798 272.894 321.815 272.891 322.831C272.891 322.921 272.92 323.015 272.943 323.166C276.404 323.205 279.856 323.166 283.34 323.192V325.083H272.93C272.917 325.299 272.898 325.454 272.898 325.605C272.898 330.006 272.898 334.406 272.907 338.809C272.907 340.081 272.956 341.352 273.249 342.597C273.262 342.655 273.249 342.723 273.249 342.823H268.894C268.913 342.629 268.92 342.458 268.949 342.294C269.139 341.226 269.213 340.152 269.217 339.068C269.223 334.538 269.23 330.012 269.233 325.483C269.233 325.373 269.217 325.267 269.207 325.089C268.665 325.057 268.13 325.092 267.597 325.089C267.058 325.083 266.52 325.089 265.994 325.089C265.858 324.721 265.839 323.754 265.955 323.183H269.207C269.217 322.963 269.223 322.795 269.233 322.624C269.284 321.563 269.323 320.498 269.394 319.44C269.43 318.931 269.604 318.456 269.839 317.995C270.204 317.289 270.775 316.843 271.494 316.566C272.181 316.301 272.904 316.172 273.636 316.143C274.478 316.108 275.32 316.098 276.162 316.095C278.53 316.085 280.898 316.085 283.263 316.082C283.515 316.082 283.766 316.082 284.05 316.082Z" fill="#0C07A2"/>
<path d="M223.167 346.031H225.945C225.884 346.789 225.803 347.525 225.774 348.264C225.745 349.025 225.764 349.79 225.764 350.551C225.764 351.293 225.764 352.035 225.764 352.838C228.948 352.838 232.068 352.848 235.252 352.835C235.252 351.645 235.252 350.525 235.252 349.402C235.252 348.293 235.281 347.183 235.013 346.047H237.891C237.617 348.577 237.759 351.099 237.759 353.619C237.759 356.126 237.643 358.632 237.904 361.2C236.955 361.229 236.026 361.226 235.046 361.207C235.4 358.842 235.178 356.5 235.259 354.18C234.904 354.051 226.945 353.99 225.809 354.096C225.797 354.225 225.774 354.361 225.774 354.496C225.771 356.006 225.755 357.516 225.78 359.026C225.79 359.626 225.897 360.223 225.958 360.823C225.967 360.929 225.971 361.036 225.98 361.184H223.164C223.264 356.142 223.274 351.116 223.167 346.038V346.031Z" fill="#0C07A2"/>
<path d="M276.848 350.076H278.78C278.825 350.312 278.867 350.534 278.922 350.815C279.035 350.715 279.119 350.67 279.167 350.595C279.416 350.228 279.78 350.108 280.193 350.089C280.48 350.076 280.764 350.066 281.051 350.066C283.116 350.066 285.184 350.066 287.248 350.086C287.674 350.089 288.1 350.17 288.519 350.257C289.055 350.37 289.442 350.715 289.6 351.234C289.736 351.686 289.852 352.163 289.858 352.628C289.887 354.628 289.881 356.631 289.862 358.635C289.858 359.041 289.774 359.457 289.674 359.854C289.545 360.357 289.223 360.751 288.719 360.903C288.236 361.048 287.732 361.183 287.232 361.193C285.071 361.225 282.909 361.203 280.751 361.206C280.2 361.206 279.693 361.051 279.164 360.693C279.051 363.206 279.135 365.622 279.296 368.074H276.864C276.912 366.587 276.98 365.103 277.006 363.619C277.032 362.109 277.012 360.599 277.015 359.09C277.015 357.596 277.025 356.102 277.015 354.609C277.006 353.118 277.096 351.621 276.854 350.076H276.848ZM287.8 355.657C287.8 354.483 287.81 353.309 287.797 352.131C287.787 351.312 287.639 351.163 286.819 351.128C286.281 351.105 285.739 351.112 285.2 351.115C283.516 351.115 281.835 351.112 280.151 351.128C279.299 351.137 279.106 351.334 279.103 352.173C279.096 354.46 279.096 356.744 279.109 359.032C279.112 359.925 279.293 360.099 280.2 360.164C280.216 360.164 280.232 360.164 280.248 360.164C282.39 360.164 284.535 360.177 286.677 360.154C287.574 360.145 287.79 359.89 287.797 358.99C287.807 357.88 287.797 356.767 287.797 355.654L287.8 355.657Z" fill="#0C07A2"/>
<path d="M253.753 323.23H257.773C257.773 323.424 257.773 323.592 257.773 323.76C257.776 328.495 257.773 333.228 257.789 337.964C257.792 339.503 257.773 341.048 258.063 342.574C258.076 342.648 258.063 342.725 258.063 342.825H253.75C253.76 342.687 253.756 342.577 253.779 342.474C254.037 341.303 254.102 340.112 254.108 338.922C254.124 335.06 254.124 331.199 254.121 327.34C254.121 326.086 254.053 324.831 253.782 323.598C253.76 323.492 253.766 323.382 253.756 323.237L253.753 323.23Z" fill="#0C07A2"/>
<path d="M315.987 351.257C316.039 350.841 316.084 350.486 316.133 350.108C316.258 350.092 316.365 350.066 316.471 350.066C319.601 350.066 322.733 350.066 325.862 350.079C326.272 350.079 326.685 350.137 327.092 350.199C327.798 350.302 328.237 350.737 328.417 351.405C328.527 351.815 328.592 352.247 328.601 352.673C328.627 353.88 328.608 355.089 328.624 356.296C328.646 357.912 328.543 359.528 328.788 361.177H326.827C326.772 360.993 326.727 360.835 326.675 360.664C326.598 360.696 326.533 360.703 326.514 360.735C326.272 361.158 325.869 361.206 325.443 361.206C323.14 361.206 320.836 361.216 318.533 361.196C318.078 361.193 317.62 361.093 317.171 360.993C316.507 360.845 316.104 360.396 315.907 359.757C315.852 359.577 315.791 359.386 315.787 359.199C315.778 358.073 315.768 356.944 315.794 355.818C315.8 355.541 315.904 355.257 316.007 354.993C316.233 354.402 316.675 354.018 317.291 353.896C317.739 353.805 318.204 353.763 318.662 353.76C320.775 353.741 322.888 353.744 325.001 353.738C325.256 353.738 325.511 353.722 325.762 353.722C326.114 353.722 326.317 353.544 326.437 353.225C326.63 352.696 326.617 352.167 326.469 351.634C326.391 351.363 326.211 351.202 325.927 351.173C325.737 351.154 325.546 351.128 325.359 351.128C322.865 351.128 320.368 351.128 317.875 351.144C317.275 351.147 316.675 351.215 315.991 351.26L315.987 351.257ZM326.533 354.844C325.775 354.844 325.078 354.844 324.382 354.844C322.507 354.844 320.633 354.841 318.759 354.854C318.026 354.86 317.842 355.057 317.797 355.793C317.791 355.886 317.788 355.983 317.788 356.08C317.788 357.031 317.784 357.986 317.788 358.938C317.788 359.864 318.042 360.128 318.962 360.17C319.01 360.17 319.059 360.174 319.104 360.174C321.12 360.174 323.14 360.174 325.156 360.174C325.391 360.174 325.63 360.145 325.866 360.103C326.195 360.045 326.414 359.845 326.475 359.512C326.527 359.232 326.566 358.948 326.569 358.664C326.582 357.551 326.575 356.441 326.575 355.328C326.575 355.189 326.553 355.051 326.533 354.847V354.844Z" fill="#0C07A2"/>
<path d="M249.287 350.079C250.575 350.079 251.862 350.069 253.146 350.085C253.523 350.089 253.907 350.14 254.281 350.202C254.917 350.305 255.365 350.66 255.517 351.302C255.617 351.731 255.727 352.173 255.73 352.611C255.752 354.595 255.756 356.583 255.73 358.567C255.723 359.034 255.607 359.509 255.488 359.964C255.375 360.402 255.059 360.696 254.646 360.88C254.159 361.096 253.646 361.199 253.117 361.199C250.542 361.206 247.971 361.215 245.397 361.193C244.897 361.186 244.387 361.073 243.903 360.935C243.274 360.754 242.884 360.293 242.764 359.651C242.684 359.215 242.632 358.77 242.629 358.328C242.619 356.502 242.629 354.676 242.648 352.85C242.651 352.424 242.693 351.992 242.784 351.576C242.955 350.802 243.458 350.321 244.242 350.198C244.758 350.118 245.284 350.085 245.806 350.076C246.965 350.06 248.126 350.069 249.284 350.069C249.284 350.073 249.284 350.079 249.284 350.082L249.287 350.079ZM253.704 355.634H253.713C253.713 354.553 253.717 353.476 253.71 352.395C253.71 352.144 253.678 351.889 253.639 351.64C253.601 351.376 253.439 351.211 253.165 351.185C252.897 351.16 252.63 351.124 252.359 351.124C250.216 351.121 248.071 351.121 245.929 351.124C245.723 351.124 245.519 351.15 245.313 351.173C244.984 351.208 244.793 351.402 244.748 351.721C244.713 351.973 244.681 352.224 244.681 352.479C244.681 354.621 244.681 356.767 244.687 358.909C244.687 359.099 244.703 359.289 244.735 359.476C244.793 359.828 245.006 360.047 245.358 360.109C245.59 360.151 245.829 360.176 246.068 360.176C248.149 360.18 250.226 360.176 252.307 360.176C252.53 360.176 252.752 360.157 252.968 360.115C253.455 360.018 253.613 359.841 253.668 359.354C253.691 359.151 253.701 358.941 253.701 358.738C253.701 357.705 253.701 356.673 253.701 355.644L253.704 355.634Z" fill="#0C07A2"/>
<path d="M272.279 350.088C272.33 350.495 272.375 350.866 272.424 351.266C272.266 351.266 272.156 351.272 272.05 351.266C271.195 351.217 270.336 351.137 269.482 351.127C267.527 351.105 265.572 351.121 263.62 351.121C263.43 351.121 263.239 351.121 263.049 351.134C262.423 351.172 262.204 351.346 262.165 351.963C262.133 352.514 262.142 353.076 262.194 353.627C262.246 354.179 262.442 354.331 263.004 354.366C263.32 354.385 263.639 354.385 263.955 354.385C265.83 354.389 267.704 354.385 269.582 354.398C269.978 354.398 270.375 354.434 270.766 354.502C271.666 354.656 272.172 355.16 272.353 356.05C272.398 356.282 272.427 356.521 272.43 356.76C272.44 357.666 272.446 358.57 272.44 359.476C272.433 360.212 272.088 360.721 271.382 360.944C270.933 361.086 270.453 361.196 269.985 361.199C266.888 361.221 263.788 361.215 260.691 361.215C260.552 361.215 260.413 361.189 260.265 361.176C260.216 360.779 260.171 360.421 260.116 359.995C260.316 360.005 260.481 360.012 260.649 360.021C261.552 360.076 262.455 360.17 263.359 360.183C265.233 360.205 267.107 360.189 268.985 360.183C269.269 360.183 269.556 360.163 269.84 360.121C270.243 360.063 270.524 359.844 270.54 359.457C270.575 358.602 270.575 357.744 270.533 356.889C270.514 356.486 270.272 356.308 269.862 356.289C269.388 356.266 268.911 356.269 268.433 356.266C266.652 356.26 264.875 356.266 263.094 356.244C262.604 356.237 262.11 356.179 261.629 356.086C260.887 355.944 260.413 355.476 260.258 354.734C260.042 353.711 260.039 352.679 260.249 351.656C260.429 350.769 260.933 350.311 261.833 350.179C262.239 350.117 262.655 350.085 263.065 350.085C265.988 350.072 268.914 350.069 271.837 350.062C271.962 350.062 272.088 350.079 272.288 350.092L272.279 350.088Z" fill="#0C07A2"/>
<path d="M311.377 350.047V351.098H305.567C305.544 351.263 305.515 351.382 305.515 351.502C305.515 353.995 305.515 356.492 305.518 358.986C305.518 359.16 305.541 359.334 305.58 359.505C305.657 359.847 305.87 360.064 306.231 360.109C306.422 360.131 306.609 360.164 306.799 360.164C308.37 360.17 309.944 360.225 311.512 360.006C311.648 359.986 311.79 360.006 311.97 360.006C311.935 360.396 311.899 360.764 311.861 361.167C311.674 361.18 311.522 361.202 311.367 361.202C309.715 361.202 308.06 361.219 306.409 361.193C305.889 361.183 305.367 361.093 304.86 360.97C304.167 360.802 303.728 360.335 303.615 359.618C303.547 359.18 303.496 358.734 303.492 358.292C303.483 356.131 303.492 353.97 303.492 351.808C303.492 351.592 303.473 351.376 303.46 351.118H301.728C301.608 350.74 301.605 350.582 301.699 350.063C302.279 350.05 302.873 350.034 303.499 350.021V347.847C304.17 347.734 304.805 347.624 305.496 347.508V349.995C305.705 350.018 305.87 350.047 306.038 350.047C307.628 350.047 309.215 350.047 310.806 350.047C310.98 350.047 311.151 350.047 311.374 350.047H311.377Z" fill="#0C07A2"/>
<path d="M333.703 346.034H335.948C335.948 346.231 335.948 346.399 335.948 346.567C335.948 349.98 335.945 353.396 335.951 356.809C335.951 358.252 335.893 359.694 336.142 361.19C335.309 361.229 334.509 361.216 333.664 361.2C333.9 359.965 333.874 358.761 333.874 357.561C333.877 354.606 333.89 351.654 333.871 348.699C333.864 347.877 333.751 347.057 333.69 346.234C333.687 346.173 333.696 346.112 333.703 346.031V346.034Z" fill="#0C07A2"/>
<path d="M294.804 361.208C295.023 357.469 295.02 353.811 294.814 350.117H297.004C297.004 350.298 297.004 350.466 297.004 350.637C297.004 353.037 296.998 355.434 297.011 357.834C297.017 358.94 296.936 360.05 297.233 361.212C296.385 361.221 295.585 361.228 294.801 361.208H294.804Z" fill="#0C07A2"/>
<path d="M258.489 363.875V365.504H247.495C247.401 365.153 247.391 364.44 247.475 363.875H258.489Z" fill="#C4E1DE"/>
<path d="M270.696 363.875V365.504H259.702C259.608 365.153 259.598 364.44 259.682 363.875H270.696Z" fill="#DDE213"/>
<path d="M246.278 363.875V365.504H235.284C235.19 365.153 235.18 364.44 235.264 363.875H246.278Z" fill="#81B9BB"/>
<path d="M234.071 363.875V365.504H223.077C222.983 365.153 222.973 364.44 223.057 363.875H234.071Z" fill="#312CCD"/>
<path d="M257.748 317.959V320.661C257.376 320.765 254.677 320.771 254.145 320.668V317.965C255.32 317.956 256.501 317.956 257.748 317.959Z" fill="#0C07A2"/>
<path d="M294.973 347.027H296.978V348.596H294.973V347.027Z" fill="#0C07A2"/>
<path d="M311.828 366.354C311.986 365.441 312.138 364.556 312.3 363.616C312.855 363.562 313.404 363.526 313.943 363.652C314.34 363.746 314.56 364.227 314.24 364.592C314.159 364.685 314.082 364.788 314.001 364.892C314.027 364.96 314.037 365.024 314.069 365.073C314.434 365.634 314.208 366.203 313.549 366.367C313.145 366.467 312.374 366.467 311.831 366.351L311.828 366.354ZM312.225 366.054C312.664 366.167 313.042 366.145 313.413 366.08C313.555 366.054 313.707 365.951 313.804 365.835C314.037 365.56 313.904 365.218 313.549 365.166C313.252 365.124 312.948 365.127 312.648 365.14C312.561 365.144 312.432 365.237 312.406 365.318C312.325 365.547 312.287 365.793 312.225 366.054ZM312.7 363.907C312.642 364.217 312.593 364.482 312.532 364.83C312.958 364.801 313.304 364.805 313.639 364.75C313.865 364.711 314.024 364.456 314.014 364.256C314.004 364.052 313.869 363.93 313.581 363.907C313.304 363.888 313.02 363.904 312.703 363.904L312.7 363.907Z" fill="#0C07A2"/>
<path d="M286.453 365.152C286.637 365.607 286.966 365.933 287.072 366.385C286.84 366.495 286.685 366.45 286.578 366.246C286.485 366.062 286.398 365.875 286.298 365.694C285.965 365.113 285.884 365.081 285.113 365.19C285.045 365.5 284.967 365.836 284.896 366.172C284.854 366.372 284.774 366.495 284.477 366.378C284.644 365.465 284.812 364.554 284.983 363.628C285.603 363.628 286.175 363.599 286.74 363.637C287.224 363.67 287.457 364.105 287.237 364.538C287.15 364.712 286.976 364.848 286.821 364.977C286.73 365.055 286.601 365.087 286.446 365.158L286.453 365.152ZM285.235 364.767C285.616 364.893 286.007 364.819 286.394 364.784C286.485 364.774 286.607 364.751 286.656 364.69C286.753 364.561 286.863 364.406 286.872 364.254C286.885 364.064 286.717 363.951 286.527 363.931C286.34 363.912 286.149 363.902 285.962 363.905C285.319 363.918 285.319 363.773 285.206 364.609C285.2 364.651 285.226 364.7 285.239 364.764L285.235 364.767Z" fill="#0C07A2"/>
<path d="M318.824 366.616C319.185 366.832 319.537 367.097 319.97 366.88C320.157 366.787 320.306 366.651 320.319 366.351C320.112 366.373 319.935 366.399 319.754 366.412C319.192 366.448 318.882 366.154 318.901 365.592C318.917 365.14 319.089 364.762 319.457 364.485C319.725 364.285 320.022 364.22 320.354 364.297C320.564 364.346 320.78 364.368 321.048 364.414C321.026 364.549 320.997 364.727 320.964 364.901C320.877 365.386 320.809 365.873 320.696 366.351C320.532 367.048 319.947 367.397 319.256 367.245C318.911 367.171 318.798 367.019 318.824 366.619V366.616ZM320.587 365.185C320.593 364.695 320.17 364.443 319.767 364.669C319.486 364.827 319.357 365.095 319.286 365.395C319.227 365.644 319.266 365.87 319.486 366.028C319.66 366.154 319.999 366.131 320.199 365.986C320.48 365.783 320.542 365.473 320.583 365.189L320.587 365.185Z" fill="#0C07A2"/>
<path d="M332.922 363.634H333.368C333.3 363.998 333.239 364.334 333.164 364.731C333.687 364.77 334.156 364.773 334.624 364.731C334.701 364.725 334.798 364.567 334.83 364.463C334.892 364.25 334.911 364.027 334.956 363.808C335.002 363.598 335.131 363.572 335.35 363.663C335.311 363.927 335.282 364.189 335.237 364.45C335.134 365.012 335.021 365.574 334.914 366.136C334.879 366.32 334.84 366.481 334.543 366.407C334.598 365.987 334.653 365.574 334.711 365.103C334.188 365.103 333.717 365.103 333.245 365.103C333.061 365.103 333.013 365.238 332.993 365.39C332.958 365.658 332.919 365.926 332.884 366.194C332.858 366.404 332.735 366.449 332.496 366.384C332.577 365.474 332.848 364.596 332.926 363.63L332.922 363.634Z" fill="#0C07A2"/>
<path d="M303.098 365.42C302.546 365.449 301.997 365.475 301.451 365.504C301.493 366.121 301.874 366.353 302.362 366.127C302.536 366.046 302.675 365.84 302.904 365.933C302.917 365.966 302.93 365.982 302.927 365.992C302.769 366.385 302.272 366.592 301.723 366.492C301.355 366.424 301.138 366.163 301.109 365.753C301.064 365.1 301.429 364.497 301.994 364.319C302.33 364.213 302.672 364.216 302.927 364.487C303.169 364.742 303.253 365.058 303.101 365.423L303.098 365.42ZM302.833 365.142C302.743 364.716 302.607 364.581 302.32 364.574C301.975 364.568 301.697 364.784 301.626 365.142H302.833Z" fill="#0C07A2"/>
<path d="M317.469 365.95C317.156 366.464 316.368 366.67 315.923 366.376C315.694 366.225 315.593 365.992 315.568 365.731C315.513 365.201 315.903 364.559 316.401 364.349C317.159 364.026 317.734 364.488 317.634 365.411C317.075 365.437 316.501 365.466 315.929 365.492C315.978 366.102 316.333 366.328 316.83 366.131C317.027 366.053 317.179 365.837 317.469 365.947V365.95ZM317.321 365.114C317.285 364.743 317.153 364.597 316.846 364.578C316.504 364.552 316.242 364.746 316.123 365.13C316.53 365.201 316.924 365.224 317.321 365.117V365.114Z" fill="#0C07A2"/>
<path d="M344.092 365.423C343.511 365.445 342.95 365.468 342.391 365.491C342.443 366.114 342.788 366.336 343.289 366.133C343.482 366.056 343.64 365.842 343.915 365.936C343.841 366.204 343.663 366.359 343.427 366.407C343.166 366.459 342.891 366.488 342.63 366.466C342.294 366.433 342.084 366.169 342.039 365.817C341.962 365.213 342.275 364.635 342.824 364.37C343.163 364.206 343.495 364.189 343.815 364.415C344.092 364.616 344.176 364.896 344.096 365.42L344.092 365.423ZM343.802 365.093C343.699 364.693 343.576 364.58 343.269 364.577C342.904 364.57 342.652 364.761 342.552 365.155C342.975 365.158 343.389 365.232 343.802 365.093Z" fill="#0C07A2"/>
<path d="M338.404 365.428C337.881 365.441 337.335 365.454 336.783 365.467C336.712 365.8 336.844 365.98 337.054 366.122C337.261 366.261 337.477 366.216 337.69 366.119C337.868 366.038 338.007 365.829 338.31 365.974C338.21 366.087 338.139 366.203 338.036 366.274C337.703 366.51 337.326 366.536 336.938 366.458C336.68 366.407 336.528 366.229 336.447 365.987C336.225 365.306 336.683 364.482 337.38 364.292C338.068 364.101 338.691 364.653 338.404 365.428ZM338.117 365.105C338.078 364.747 337.958 364.611 337.684 364.576C337.329 364.531 337.038 364.731 336.916 365.128C337.322 365.18 337.719 365.218 338.117 365.105Z" fill="#0C07A2"/>
<path d="M290.292 365.996C290.208 366.096 290.149 366.209 290.059 366.27C289.759 366.47 289.417 366.541 289.058 366.49C288.732 366.445 288.522 366.228 288.454 365.899C288.345 365.369 288.609 364.733 289.065 364.446C289.394 364.239 289.749 364.155 290.101 364.359C290.479 364.575 290.547 364.94 290.505 365.363C289.94 365.56 289.333 365.318 288.784 365.518C288.845 366.144 289.152 366.335 289.685 366.119C289.843 366.054 290.001 365.986 290.162 365.925C290.182 365.918 290.217 365.951 290.295 365.989L290.292 365.996ZM288.874 365.111C289.336 365.179 289.746 365.224 290.166 365.079C290.143 364.74 289.982 364.595 289.71 364.578C289.346 364.556 289.074 364.708 288.874 365.114V365.111Z" fill="#0C07A2"/>
<path d="M296.881 365.183C296.849 366.032 296.223 366.588 295.412 366.484C295.064 366.439 294.828 366.229 294.75 365.897C294.595 365.203 295.109 364.408 295.806 364.27C296.442 364.144 296.904 364.534 296.881 365.183ZM296.478 365.264C296.504 364.68 296.136 364.437 295.651 364.686C295.277 364.877 295.102 365.196 295.109 365.61C295.118 366.12 295.564 366.365 296.006 366.103C296.339 365.91 296.452 365.587 296.478 365.261V365.264Z" fill="#0C07A2"/>
<path d="M327.766 364.936C327.905 365.007 328.034 365.088 328.17 365.14C328.331 365.201 328.506 365.23 328.67 365.288C329.093 365.437 329.18 365.74 328.909 366.098C328.622 366.483 327.889 366.631 327.479 366.389C327.25 366.253 327.217 366.147 327.324 365.834C327.65 365.95 327.886 366.357 328.296 366.182C328.444 366.121 328.567 365.995 328.774 365.85C328.599 365.743 328.506 365.672 328.402 365.627C328.154 365.52 327.892 365.453 327.653 365.327C327.402 365.198 327.363 365.02 327.473 364.768C327.708 364.232 328.632 364.068 329.022 364.503C329.084 364.571 329.132 364.726 329.097 364.791C329.022 364.93 328.893 364.878 328.767 364.81C328.609 364.72 328.441 364.613 328.267 364.587C328.057 364.555 327.863 364.649 327.76 364.936H327.766Z" fill="#0C07A2"/>
<path d="M323.983 366.347C324.119 365.675 324.248 365.029 324.367 364.445C324.684 364.383 324.942 364.338 325.197 364.28C325.73 364.161 326.078 364.458 326.007 364.99C325.959 365.368 325.885 365.743 325.82 366.117C325.791 366.282 325.759 366.44 325.465 366.385C325.478 366.227 325.484 366.062 325.504 365.901C325.546 365.588 325.617 365.275 325.639 364.958C325.659 364.674 325.507 364.545 325.229 364.587C324.884 364.639 324.642 364.832 324.561 365.181C324.49 365.491 324.438 365.804 324.393 366.117C324.364 366.327 324.296 366.447 323.977 366.34L323.983 366.347Z" fill="#0C07A2"/>
<path d="M306.942 364.351C307.259 364.306 307.268 364.483 307.294 364.661C307.359 365.064 307.436 365.468 307.527 365.985C307.669 365.804 307.753 365.72 307.811 365.62C308.011 365.278 308.202 364.926 308.398 364.583C308.466 364.464 308.524 364.315 308.77 364.383C308.702 364.538 308.647 364.693 308.57 364.835C308.195 365.5 307.817 366.162 307.43 366.818C307.268 367.089 307.042 367.289 306.694 367.244C306.626 367.234 306.565 367.179 306.426 367.105C306.61 367.034 306.723 366.992 306.833 366.95C307.217 366.795 307.343 366.582 307.268 366.165C307.188 365.726 307.084 365.294 307 364.858C306.968 364.696 306.962 364.528 306.946 364.354L306.942 364.351Z" fill="#0C07A2"/>
<path d="M293.585 365.736C293.436 366.304 292.952 366.582 292.397 366.489C291.983 366.421 291.722 366.04 291.793 365.559C291.87 365.042 292.038 364.567 292.577 364.341C292.887 364.212 293.201 364.199 293.485 364.396C293.585 364.464 293.672 364.574 293.72 364.684C293.749 364.748 293.72 364.887 293.672 364.929C293.627 364.965 293.504 364.929 293.427 364.894C293.378 364.871 293.356 364.79 293.31 364.745C293.107 364.548 292.913 364.522 292.665 364.655C292.271 364.864 292.041 365.413 292.167 365.84C292.255 366.14 292.532 366.288 292.842 366.172C292.984 366.117 293.1 365.998 293.236 365.917C293.333 365.859 293.436 365.814 293.585 365.739V365.736Z" fill="#0C07A2"/>
<path d="M299.033 365.874C299.188 365.586 299.33 365.289 299.495 365.009C299.65 364.747 299.75 364.427 300.14 364.305C300.131 364.418 300.15 364.498 300.118 364.553C299.792 365.118 299.462 365.68 299.12 366.235C299.062 366.329 298.936 366.416 298.833 366.432C298.775 366.442 298.655 366.303 298.633 366.213C298.478 365.619 298.345 365.018 298.203 364.411C298.487 364.298 298.62 364.35 298.662 364.605C298.713 364.934 298.771 365.264 298.833 365.59C298.849 365.677 298.884 365.761 298.91 365.848C298.952 365.858 298.994 365.867 299.036 365.877L299.033 365.874Z" fill="#0C07A2"/>
<path d="M341.185 364.297C341.173 364.597 341.034 364.629 340.882 364.62C340.536 364.594 340.388 364.81 340.32 365.091C340.236 365.446 340.181 365.808 340.12 366.166C340.078 366.418 339.949 366.483 339.668 366.357C339.804 365.692 339.939 365.03 340.072 364.381C340.462 364.352 340.808 364.326 341.182 364.3L341.185 364.297Z" fill="#0C07A2"/>
<path d="M304.324 366.36C304.456 365.695 304.588 365.052 304.714 364.423C305.021 364.374 305.282 364.326 305.544 364.297C305.663 364.284 305.831 364.264 305.822 364.452C305.818 364.513 305.676 364.6 305.589 364.613C305.079 364.681 305.008 364.733 304.905 365.23C304.84 365.54 304.792 365.853 304.743 366.169C304.714 366.366 304.63 366.46 304.32 366.366L304.324 366.36Z" fill="#0C07A2"/>
<path d="M322.874 364.387C322.757 365.029 322.651 365.636 322.531 366.243C322.502 366.398 322.386 366.437 322.218 366.353C322.218 366.256 322.202 366.146 322.218 366.04C322.299 365.572 322.389 365.103 322.473 364.632C322.515 364.396 322.518 364.4 322.87 364.387H322.874Z" fill="#0C07A2"/>
<path d="M350.002 366.266C349.869 366.405 349.759 366.463 349.626 366.343C349.604 366.324 349.604 366.243 349.626 366.217C349.743 366.088 349.859 366.098 350.002 366.266Z" fill="#0C07A2"/>
<path d="M345.418 366.338C345.463 366.151 345.554 366.089 345.699 366.154C345.728 366.167 345.758 366.241 345.748 366.273C345.686 366.442 345.567 366.406 345.418 366.338Z" fill="#0C07A2"/>
<path d="M347.418 366.287C347.638 366.148 347.77 366.084 347.91 366.303C347.761 366.433 347.635 366.413 347.418 366.287Z" fill="#0C07A2"/>
<path d="M322.656 363.672H323.025L323.035 363.782C322.909 363.798 322.782 363.811 322.659 363.827C322.659 363.775 322.659 363.724 322.656 363.672Z" fill="#0C07A2"/>
</svg>
