<svg width="24" height="21" viewBox="0 0 24 21" fill="none" xmlns="http://www.w3.org/2000/svg">
<path d="M11.8937 3.61618C9.33866 1.33637 6.32411 0.503666 4.13075 1.76999C1.02185 3.56488 0.740164 8.89728 3.50159 13.6802C5.31711 16.8248 9.00195 18.9297 10.5017 19.5251" stroke="#06009E" stroke-width="1.5" stroke-linecap="round" stroke-linejoin="round"/>
<path d="M16.0494 18.2912C19.5 16.4297 22.8086 10.9303 21.5497 9.29076C20.0495 7.79059 16.0492 8.2908 12.4822 11.6425C10.5099 13.4957 8.69891 15.842 8.50029 17.9311" stroke="#06009E" stroke-width="1.5" stroke-linecap="round" stroke-linejoin="round"/>
<path d="M9.13049 7.18023C6.36909 11.9631 6.65074 17.2955 9.75964 19.0905C12.002 20.9297 17.6274 18.4631 20.3888 13.6802C23.1502 8.89728 22.8685 3.56488 19.7596 1.76999C16.6507 -0.0249381 11.8919 2.39732 9.13049 7.18023Z" stroke="#06009E" stroke-width="1.5" stroke-linecap="round" stroke-linejoin="round"/>
</svg>
