<svg width="900" height="900" viewBox="0 0 900 900" fill="none" xmlns="http://www.w3.org/2000/svg">
<g opacity="0.5">
<path d="M218.472 638.991V706.907C218.472 710.998 221.732 715.089 226.654 715.089C231.576 715.089 234.836 711.829 234.836 706.907V635.732C234.836 633.271 234.005 631.641 232.375 630.011L138.284 533.457C135.024 530.197 133.362 526.106 133.362 521.184C133.362 518.724 134.193 514.633 137.453 512.171C144.804 506.45 153.817 508.911 159.537 514.632C167.719 522.814 174.271 529.366 179.992 535.918C189.804 546.561 197.985 554.743 210.258 565.386C227.453 580.918 253.628 589.1 279.804 589.931H286.355H292.907C319.083 589.1 344.459 580.918 361.621 565.386C373.894 554.743 382.076 545.762 391.888 535.918C397.608 530.197 404.16 522.814 412.342 514.632C417.264 508.911 427.076 506.45 434.427 512.171C437.686 515.431 438.517 519.522 438.517 521.184C438.517 526.106 436.887 530.198 433.596 533.457L338.736 630.011C337.106 631.641 336.275 633.271 336.275 635.732V752.738C336.275 756.829 339.535 760.92 344.456 760.92C348.547 760.92 352.638 757.66 352.638 752.738V638.991L443.473 544.9L445.103 543.27L446.733 544.9L537.567 638.991V740.466C537.567 744.556 540.827 748.647 545.749 748.647C550.671 748.647 553.931 745.387 553.931 740.466V635.732C553.931 633.271 553.1 631.641 551.47 630.011L457.379 533.457C454.119 530.197 452.457 526.106 452.457 521.184C452.457 518.724 453.288 514.633 456.548 512.171C463.899 506.45 472.912 508.911 478.633 514.632C486.814 522.814 493.366 529.366 499.087 535.918C508.899 546.561 517.081 554.743 529.353 565.386C546.548 580.918 572.723 589.1 598.899 589.931H605.451H612.002C638.178 589.1 663.554 580.918 680.717 565.386C692.989 554.743 701.171 545.762 710.983 535.918C716.704 530.197 723.255 522.814 731.437 514.632C736.359 508.911 746.171 506.45 753.522 512.171C756.782 515.431 757.613 519.522 757.613 521.184C757.613 526.106 755.983 530.198 752.691 533.457L658.665 630.011C657.035 631.641 656.204 633.271 656.204 635.732V706.907C656.204 710.998 659.464 715.089 664.386 715.089C669.308 715.089 672.568 711.829 672.568 706.907V638.991L763.403 544.9C769.954 538.349 773.214 529.368 772.416 520.355C772.416 512.173 768.325 504.823 762.604 499.9C750.331 489.258 731.507 490.887 719.234 503.16C711.052 511.342 704.5 517.894 698.779 524.446C688.968 535.089 681.584 543.271 670.143 553.083C665.221 557.173 660.331 560.433 654.61 563.725C660.331 554.712 664.422 544.102 664.422 531.829C664.422 499.933 638.247 473.725 606.318 473.725C574.422 473.725 548.214 499.901 548.214 531.829C548.214 543.271 551.474 554.745 558.026 563.725C551.474 560.465 546.584 557.174 541.662 553.083C530.221 543.271 522.039 535.089 513.026 524.446C507.305 517.894 500.753 511.342 492.571 503.16C480.299 490.888 461.474 489.258 449.201 499.9C448.37 500.731 447.571 501.53 447.571 501.53C446.74 500.699 445.941 499.9 445.941 499.069C433.668 488.427 414.844 490.056 402.571 502.329C394.389 510.511 387.837 517.063 382.116 523.615C372.305 534.258 364.921 542.44 353.48 552.252C348.558 556.343 343.668 559.603 337.948 562.895C343.669 553.881 347.759 543.271 347.759 530.999C347.759 499.103 321.584 472.895 289.655 472.895C257.759 472.895 231.551 499.07 231.551 530.999C231.551 542.44 234.811 553.914 241.363 562.895C234.811 559.635 229.921 556.343 224.999 552.252C213.558 542.44 205.376 534.258 196.363 523.615C190.642 517.063 184.09 510.511 175.908 502.329C163.636 490.057 144.811 488.427 132.538 499.069C126.817 503.991 122.727 511.342 122.727 519.524C122.727 528.537 125.987 537.517 131.74 544.069L218.472 638.991ZM604.646 489.289C627.561 489.289 647.185 508.113 647.185 531.828C647.185 554.743 628.36 573.568 605.444 574.366C582.529 574.366 563.704 555.542 563.704 531.828C562.905 508.081 581.73 489.289 604.646 489.289ZM285.555 489.289C308.471 489.289 328.094 508.113 328.094 531.828C328.094 554.743 309.269 573.568 286.353 574.366C263.438 574.366 244.613 555.542 244.613 531.828C243.814 508.081 262.639 489.289 285.555 489.289Z" fill="#B69B00"/>
<path d="M287.183 333.829C281.462 338.751 277.371 346.102 277.371 354.284C277.371 363.297 280.631 372.277 286.384 377.998L377.219 472.089V485.991C377.219 490.082 380.479 494.173 385.401 494.173C389.491 494.173 393.582 490.913 393.582 485.991V468.796C393.582 466.335 392.751 464.706 391.121 463.076L297.832 367.356C294.572 364.096 292.91 360.006 292.91 355.084C292.91 352.623 293.741 348.532 297.001 346.071C304.352 340.35 313.365 342.811 319.086 348.532C327.268 356.713 332.988 363.265 338.709 368.986C348.521 379.629 356.703 388.609 368.975 399.252C385.339 413.986 409.884 422.168 437.689 423.798C440.15 423.798 442.611 424.629 445.04 424.629C447.501 424.629 449.962 424.629 452.391 423.798C480.196 422.168 503.943 413.986 520.307 399.252C532.58 388.609 540.761 379.629 550.573 368.986C556.294 363.265 562.014 356.713 570.196 348.532C575.118 342.811 584.93 340.35 592.281 346.071C595.541 349.331 596.371 353.421 596.371 355.084C596.371 360.006 594.741 364.097 591.45 367.356L499.118 463.91C497.488 465.54 496.657 467.17 496.657 469.631V486.826C496.657 490.917 499.917 495.008 504.839 495.008C508.93 495.008 513.021 491.748 513.021 486.826V472.923L603.855 378.832C610.407 372.281 613.667 363.3 612.868 354.287C612.868 346.105 608.777 338.755 603.057 333.832C590.784 323.19 571.959 324.819 559.686 337.092C551.505 345.274 545.784 351.826 540.063 357.547C530.251 368.19 522.07 376.372 510.595 387.015C506.505 391.105 500.784 394.365 495.063 396.826C500.784 387.813 504.076 377.203 504.076 364.93C504.076 333.034 477.901 306.826 445.972 306.826C414.076 306.826 387.868 333.001 387.868 364.93C387.868 376.372 391.128 387.846 397.68 396.826C391.128 393.566 385.407 390.274 381.316 386.183C369.875 375.54 361.693 367.359 351.849 356.716C345.297 351.826 338.745 345.274 330.563 337.092C318.29 324.82 300.297 323.988 287.193 333.832L287.183 333.829ZM445.1 323.986C468.016 323.986 487.639 342.81 487.639 366.524C487.639 388.609 471.275 405.804 449.989 408.265H441.808C420.522 405.804 404.158 388.642 404.158 366.524C403.359 342.81 422.184 323.986 445.1 323.986Z" fill="#015B52"/>
<path d="M445.096 245.463C449.187 245.463 453.278 242.203 453.278 237.281V180.008C453.278 175.917 450.018 171.826 445.096 171.826C440.174 171.826 436.914 175.086 436.914 180.008V237.281C436.914 242.171 441.005 245.463 445.096 245.463Z" fill="#4848A3"/>
<path d="M301.066 278.196C302.696 280.657 305.157 282.287 307.618 282.287C309.248 282.287 310.079 282.287 311.709 281.456C315.8 278.995 316.631 274.105 314.969 270.813L286.332 220.891C283.871 216.8 278.982 215.969 275.689 217.631C271.599 220.092 270.768 224.982 272.43 228.274L301.066 278.196Z" fill="#4848A3"/>
<path d="M154.643 352.628L204.565 381.265C206.195 382.096 207.026 382.096 208.656 382.096C211.117 382.096 214.377 380.466 215.208 378.005C217.669 373.914 216.039 368.992 211.948 367.362L162.026 338.726C157.935 336.265 153.012 337.895 151.383 341.986C149.721 345.277 150.552 350.199 154.643 352.628Z" fill="#4848A3"/>
<path d="M681.521 382.091C683.151 382.091 683.982 382.091 685.612 381.26L735.534 352.623C739.625 350.162 740.456 345.273 738.794 341.981C736.333 337.89 731.443 337.059 728.151 338.721L678.229 367.357C674.138 369.818 673.307 374.708 674.969 378C676.63 381.26 679.092 382.091 681.521 382.091Z" fill="#4848A3"/>
<path d="M577.638 281.437C579.268 282.268 580.099 282.268 581.729 282.268C584.19 282.268 587.45 280.638 588.281 278.177L616.917 228.255C619.378 224.164 617.748 219.242 613.657 217.612C609.566 215.151 604.644 216.781 603.014 220.872L574.378 270.794C572.748 274.086 574.378 278.976 577.638 281.437Z" fill="#4848A3"/>
</g>
</svg>
