<svg width="15" height="12" viewBox="0 0 15 12" fill="none" xmlns="http://www.w3.org/2000/svg">
<path d="M14.7807 5.01667C14.903 5.15 14.9641 5.30844 14.9641 5.492C14.9641 5.67556 14.903 5.83378 14.7807 5.96667L12.4141 8.31667C12.2918 8.45 12.1363 8.51667 11.9474 8.51667C11.7585 8.51667 11.603 8.45 11.4807 8.31667L10.5307 7.38333C10.3974 7.25 10.3307 7.09178 10.3307 6.90867C10.3307 6.72556 10.3974 6.56711 10.5307 6.43333C10.6641 6.31111 10.8225 6.25 11.0061 6.25C11.1896 6.25 11.3478 6.31111 11.4807 6.43333L11.9474 6.9L13.8307 5.01667C13.9641 4.89444 14.1223 4.83333 14.3054 4.83333C14.4885 4.83333 14.647 4.89444 14.7807 5.01667ZM6.88073 11.6167L5.21406 10.1C4.41406 9.37778 3.72806 8.73333 3.15606 8.16667C2.58406 7.6 2.11184 7.06667 1.7394 6.56667C1.36695 6.06667 1.09473 5.58333 0.922729 5.11667C0.750729 4.65 0.664507 4.16111 0.664062 3.65C0.664062 2.60556 1.01406 1.73622 1.71406 1.042C2.41406 0.347778 3.28628 0.000444444 4.33073 0C4.90851 0 5.45851 0.119556 5.98073 0.358667C6.50295 0.597778 6.95295 0.939333 7.33073 1.38333C7.70851 0.938889 8.15851 0.597333 8.68073 0.358667C9.20295 0.12 9.75295 0.000444444 10.3307 0C11.2752 0 12.067 0.286222 12.7061 0.858667C13.3452 1.43111 13.7423 2.10044 13.8974 2.86667C13.6752 2.77778 13.4418 2.72222 13.1974 2.7C12.953 2.67778 12.703 2.66667 12.4474 2.66667C11.503 2.66667 10.6363 3.04733 9.8474 3.80867C9.05851 4.57 8.66406 5.52267 8.66406 6.66667C8.66406 7.2 8.78073 7.74178 9.01406 8.292C9.2474 8.84222 9.57517 9.28933 9.9974 9.63333C9.78628 9.82222 9.5114 10.064 9.17273 10.3587C8.83406 10.6533 8.54228 10.9116 8.2974 11.1333L7.76406 11.6167C7.64184 11.7278 7.49451 11.7833 7.32206 11.7833C7.14962 11.7833 7.00251 11.7278 6.88073 11.6167Z" fill="#7F7FBA"/>
</svg>
