<svg width="16" height="17" viewBox="0 0 16 17" fill="none" xmlns="http://www.w3.org/2000/svg">
<path d="M14.7807 7.08893C14.903 7.22227 14.9641 7.38071 14.9641 7.56427C14.9641 7.74782 14.903 7.90604 14.7807 8.03893L12.4141 10.3889C12.2918 10.5223 12.1363 10.5889 11.9474 10.5889C11.7585 10.5889 11.603 10.5223 11.4807 10.3889L10.5307 9.4556C10.3974 9.32227 10.3307 9.16404 10.3307 8.98093C10.3307 8.79782 10.3974 8.63938 10.5307 8.5056C10.6641 8.38338 10.8225 8.32227 11.0061 8.32227C11.1896 8.32227 11.3478 8.38338 11.4807 8.5056L11.9474 8.97227L13.8307 7.08893C13.9641 6.96671 14.1223 6.9056 14.3054 6.9056C14.4885 6.9056 14.6469 6.96671 14.7807 7.08893ZM6.88073 13.6889L5.21406 12.1723C4.41406 11.45 3.72806 10.8056 3.15606 10.2389C2.58406 9.67227 2.11184 9.13893 1.7394 8.63893C1.36695 8.13893 1.09473 7.6556 0.922729 7.18893C0.750729 6.72227 0.664507 6.23338 0.664062 5.72227C0.664062 4.67782 1.01406 3.80849 1.71406 3.11427C2.41406 2.42004 3.28628 2.07271 4.33073 2.07227C4.90851 2.07227 5.45851 2.19182 5.98073 2.43093C6.50295 2.67004 6.95295 3.0116 7.33073 3.4556C7.70851 3.01115 8.15851 2.6696 8.68073 2.43093C9.20295 2.19227 9.75295 2.07271 10.3307 2.07227C11.2752 2.07227 12.067 2.35849 12.7061 2.93093C13.3452 3.50338 13.7423 4.17271 13.8974 4.93893C13.6752 4.85004 13.4418 4.79449 13.1974 4.77227C12.953 4.75004 12.703 4.73893 12.4474 4.73893C11.503 4.73893 10.6363 5.1196 9.84739 5.88093C9.05851 6.64227 8.66406 7.59493 8.66406 8.73893C8.66406 9.27227 8.78073 9.81404 9.01406 10.3643C9.2474 10.9145 9.57517 11.3616 9.9974 11.7056C9.78628 11.8945 9.5114 12.1363 9.17273 12.4309C8.83406 12.7256 8.54228 12.9838 8.2974 13.2056L7.76406 13.6889C7.64184 13.8 7.49451 13.8556 7.32206 13.8556C7.14962 13.8556 7.00251 13.8 6.88073 13.6889Z" fill="#2B63A4"/>
</svg>
