<svg width="15" height="13" viewBox="0 0 15 13" fill="none" xmlns="http://www.w3.org/2000/svg">
<path d="M14.7807 5.61432C14.903 5.74766 14.9641 5.9061 14.9641 6.08966C14.9641 6.27321 14.903 6.43143 14.7807 6.56432L12.4141 8.91432C12.2918 9.04766 12.1363 9.11432 11.9474 9.11432C11.7585 9.11432 11.603 9.04766 11.4807 8.91432L10.5307 7.98099C10.3974 7.84766 10.3307 7.68943 10.3307 7.50632C10.3307 7.32321 10.3974 7.16477 10.5307 7.03099C10.6641 6.90877 10.8225 6.84766 11.0061 6.84766C11.1896 6.84766 11.3478 6.90877 11.4807 7.03099L11.9474 7.49766L13.8307 5.61432C13.9641 5.4921 14.1223 5.43099 14.3054 5.43099C14.4885 5.43099 14.647 5.4921 14.7807 5.61432ZM6.88073 12.2143L5.21406 10.6977C4.41406 9.97543 3.72806 9.33099 3.15606 8.76432C2.58406 8.19766 2.11184 7.66432 1.7394 7.16432C1.36695 6.66432 1.09473 6.18099 0.922729 5.71432C0.750729 5.24766 0.664507 4.75877 0.664062 4.24766C0.664062 3.20321 1.01406 2.33388 1.71406 1.63966C2.41406 0.945434 3.28628 0.598101 4.33073 0.597656C4.90851 0.597656 5.45851 0.717212 5.98073 0.956323C6.50295 1.19543 6.95295 1.53699 7.33073 1.98099C7.70851 1.53655 8.15851 1.19499 8.68073 0.956323C9.20295 0.717656 9.75295 0.598101 10.3307 0.597656C11.2752 0.597656 12.067 0.883879 12.7061 1.45632C13.3452 2.02877 13.7423 2.6981 13.8974 3.46432C13.6752 3.37543 13.4418 3.31988 13.1974 3.29766C12.953 3.27543 12.703 3.26432 12.4474 3.26432C11.503 3.26432 10.6363 3.64499 9.8474 4.40632C9.05851 5.16766 8.66406 6.12032 8.66406 7.26432C8.66406 7.79766 8.78073 8.33943 9.01406 8.88966C9.2474 9.43988 9.57517 9.88699 9.9974 10.231C9.78628 10.4199 9.5114 10.6617 9.17273 10.9563C8.83406 11.251 8.54228 11.5092 8.2974 11.731L7.76406 12.2143C7.64184 12.3254 7.49451 12.381 7.32206 12.381C7.14962 12.381 7.00251 12.3254 6.88073 12.2143Z" fill="#00A148"/>
</svg>
