<svg width="16" height="17" viewBox="0 0 16 17" fill="none" xmlns="http://www.w3.org/2000/svg">
<path d="M14.7807 7.21198C14.903 7.34531 14.9641 7.50376 14.9641 7.68731C14.9641 7.87087 14.903 8.02909 14.7807 8.16198L12.4141 10.512C12.2918 10.6453 12.1363 10.712 11.9474 10.712C11.7585 10.712 11.603 10.6453 11.4807 10.512L10.5307 9.57865C10.3974 9.44531 10.3307 9.28709 10.3307 9.10398C10.3307 8.92087 10.3974 8.76242 10.5307 8.62865C10.6641 8.50642 10.8225 8.44531 11.0061 8.44531C11.1896 8.44531 11.3478 8.50642 11.4807 8.62865L11.9474 9.09531L13.8307 7.21198C13.9641 7.08976 14.1223 7.02865 14.3054 7.02865C14.4885 7.02865 14.6469 7.08976 14.7807 7.21198ZM6.88073 13.812L5.21406 12.2953C4.41406 11.5731 3.72806 10.9286 3.15606 10.362C2.58406 9.79531 2.11184 9.26198 1.7394 8.76198C1.36695 8.26198 1.09473 7.77865 0.922729 7.31198C0.750729 6.84531 0.664507 6.35642 0.664062 5.84531C0.664062 4.80087 1.01406 3.93153 1.71406 3.23731C2.41406 2.54309 3.28628 2.19576 4.33073 2.19531C4.90851 2.19531 5.45851 2.31487 5.98073 2.55398C6.50295 2.79309 6.95295 3.13465 7.33073 3.57865C7.70851 3.1342 8.15851 2.79265 8.68073 2.55398C9.20295 2.31531 9.75295 2.19576 10.3307 2.19531C11.2752 2.19531 12.067 2.48153 12.7061 3.05398C13.3452 3.62642 13.7423 4.29576 13.8974 5.06198C13.6752 4.97309 13.4418 4.91753 13.1974 4.89531C12.953 4.87309 12.703 4.86198 12.4474 4.86198C11.503 4.86198 10.6363 5.24265 9.84739 6.00398C9.05851 6.76531 8.66406 7.71798 8.66406 8.86198C8.66406 9.39531 8.78073 9.93709 9.01406 10.4873C9.2474 11.0375 9.57517 11.4846 9.9974 11.8286C9.78628 12.0175 9.5114 12.2593 9.17273 12.554C8.83406 12.8486 8.54228 13.1069 8.2974 13.3286L7.76406 13.812C7.64184 13.9231 7.49451 13.9786 7.32206 13.9786C7.14962 13.9786 7.00251 13.9231 6.88073 13.812Z" fill="#F0AD1C"/>
</svg>
