<svg width="219" height="218" viewBox="0 0 219 218" fill="none" xmlns="http://www.w3.org/2000/svg">
<path d="M66.4704 150.943C64.2904 166.509 65.0316 187.48 65.0316 187.48H104.402C104.402 187.48 106.016 182.553 104.49 177.277C95.3131 179.439 73.4651 166.288 66.4704 150.943Z" fill="#D49E7A"/>
<path d="M111.424 178.891C111.206 183.338 109.941 187.48 109.941 187.48H149.269C152.146 178.237 151.797 166.421 150.62 156.611C143.778 167.629 123.182 184.444 111.424 178.891Z" fill="#D49E7A"/>
<path d="M108.982 55.8511C117.266 55.8511 124.591 55.0227 127.469 54.6303C129.126 49.2675 132.962 36.9287 134.227 30.5195H82.125C83.1278 36.1875 85.177 46.4335 86.485 52.7555C93.1405 55.3445 101.841 55.8511 108.982 55.8511Z" fill="#D49E7A"/>
<path d="M141.811 97.7506C141.768 92.1698 142.422 86.6326 143.468 81.357L76.3242 78.959C78.257 95.6268 77.0554 94.6301 77.0654 97.6634C78.407 99.2417 80.229 101.811 80.3354 102.023C84.5746 102.871 90.0355 106.899 91.715 112.4C92.6799 115.592 92.553 122.537 92.4562 125.873C102.956 125.529 115.451 125.359 125.941 126.003C125.64 114.674 125.365 106.682 135.795 102.285C136.71 101.849 137.887 101.413 139.195 101.326C139.762 100.454 140.634 99.1894 141.811 97.7506Z" fill="#D49E7A"/>
<path d="M72.707 58.6022C73.9113 62.7394 74.9062 68.7615 75.7442 74.5755L144.402 77.0368C145.659 71.8523 147.23 67.0864 148.906 62.8445L148.33 62.2154C129.983 57.6443 136.305 59.21 134.938 58.8917C137.094 56.352 142.08 31.017 142.203 30.5312H138.693C137.46 37.2134 132.852 52.1464 130.775 58.5804C117.758 59.8431 101.441 61.8391 86.7423 57.6596C86.7423 57.6596 84.9037 56.6651 82.6901 56.0625C81.4698 50.0366 78.798 36.7761 77.6447 30.5312H74.1354C74.1354 30.5312 76.1109 48.3711 77.8318 55.9666C76.2679 56.5382 74.1001 57.7651 72.707 58.6022Z" fill="#D49E7A"/>
<path d="M130.302 126.309C132.966 126.453 134.508 126.662 135.752 126.789C138.485 117.134 135.099 115.961 136.668 106.689C129.253 110.396 130.034 116.89 130.302 126.309Z" fill="#F2C280"/>
<path d="M83.0848 126.266C83.5225 126.246 87.6515 126.063 88.0988 126.048C88.37 117.382 88.956 111.472 82.4744 107.605C83.6123 116.854 80.8006 117.477 83.0848 126.266Z" fill="#F2C280"/>
<path d="M147.655 152.949C146.303 152.556 145.257 151.641 144.515 150.115C140.352 147.872 141.202 143.247 141.202 140.174C137.146 141.073 133.333 137.654 134.487 131.018C119.009 129.405 98.3866 129.928 84.2602 130.582C84.7834 132.631 84.8706 135.683 83.519 137.776C81.9162 140.253 79.7746 140.162 79.3334 140.305C78.7666 140.305 78.1998 140.217 77.6766 140.087C77.8492 143.711 78.3532 147.989 74.4066 150.115C73.8398 151.248 73.1422 152.077 72.2266 152.513C79.8566 164.633 97.8198 175.054 104.098 172.917C105.08 166.494 109.958 167.906 111.074 173.484C118.879 181.594 141.376 164.677 147.655 152.949Z" fill="#D49E7A"/>
<path d="M195.304 47.4991C188.287 42.3138 174.409 30.5304 174.409 30.5304H165.089L165.095 30.5195C164.412 30.5195 146.147 30.5195 146.653 30.5195C146.556 30.966 143.353 47.3592 140.81 56.0255C144.781 57.1042 148.577 57.814 150.577 58.2055L150.707 58.3799C153.742 51.2404 155.774 47.8026 156.769 46.0394C156.863 46.1135 187.188 70.0224 187.449 72.7941C187.712 75.6224 159.222 91.3332 152.99 94.1616C146.705 96.989 142.15 104.792 142.15 104.792C139.792 106.259 140.945 117.309 141.259 120.084C141.748 125.379 136.335 135.698 139.897 135.953C141.416 136.005 142.672 133.491 143.301 131.396C143.929 129.301 145.658 126.263 145.658 126.263C145.763 128.097 145.815 138.466 145.501 142.813C145.187 147.159 147.91 146.479 147.91 146.479C149.062 152.03 150.371 146.06 152.309 141.922C154.247 137.785 153.985 130.296 155.085 125.479C156.132 120.713 154.613 116.628 154.613 116.628C154.613 116.628 149.691 104.95 164.721 101.126C179.804 97.3025 206.303 84.001 212.744 78.8689C219.134 73.6844 202.323 52.6313 195.304 47.4991Z" fill="#D49E7A"/>
<path d="M71.0882 146.479C71.0882 146.479 73.8111 147.16 73.4971 142.813C73.1828 138.467 73.2351 128.097 73.3397 126.264C73.3397 126.264 75.0685 129.302 75.6963 131.396C76.3255 133.492 77.5825 136.005 79.1006 135.953C82.5555 135.706 77.2598 125.262 77.739 120.085C78.0529 117.309 79.2057 106.259 76.8482 104.793C76.8482 104.793 72.2925 96.9895 66.008 94.162C59.7758 91.3337 31.2862 75.6229 31.5483 72.7945C31.8103 70.0185 62.2374 46.0333 62.2374 46.0333V45.1037C64.7828 46.3895 68.9021 50.0035 71.1802 54.4123C71.6162 54.1943 72.183 53.8455 72.8806 53.4967C71.3546 44.9511 69.8722 31.6531 69.785 30.9991L69.7414 30.5195H66.6022H62.1986V30.5304H44.589C44.589 30.5304 30.7107 42.3138 23.6933 47.4991C16.675 52.6313 -0.135408 73.684 6.25374 78.8689C12.6952 84.001 39.1948 97.303 54.2774 101.126C69.3076 104.949 64.3852 116.628 64.3852 116.628C64.3852 116.628 62.8662 120.713 63.9134 125.479C65.013 130.296 64.7514 137.786 66.6894 141.922C68.6266 146.06 69.9359 152.031 71.0882 146.479Z" fill="#D49E7A"/>
</svg>
