<svg width="210" height="158" viewBox="0 0 210 158" fill="none" xmlns="http://www.w3.org/2000/svg">
<path d="M61.9743 120.943C59.7943 136.509 60.5355 157.48 60.5355 157.48H99.9063C99.9063 157.48 101.519 152.553 99.9935 147.277C90.817 149.439 68.969 136.288 61.9743 120.943Z" fill="#D49E7A"/>
<path d="M106.928 148.891C106.71 153.338 105.445 157.48 105.445 157.48H144.773C147.65 148.237 147.301 136.421 146.124 126.611C139.282 137.629 118.686 154.444 106.928 148.891Z" fill="#D49E7A"/>
<path d="M104.482 25.8511C112.766 25.8511 120.091 25.0227 122.969 24.6303C124.626 19.2675 128.462 6.92873 129.727 0.519531H77.625C78.6278 6.18753 80.677 16.4335 81.985 22.7555C88.6405 25.3445 97.3409 25.8511 104.482 25.8511Z" fill="#D49E7A"/>
<path d="M137.315 67.7506C137.272 62.1698 137.926 56.6326 138.972 51.357L71.8281 48.959C73.7609 65.6268 72.5593 64.6301 72.5693 67.6634C73.9109 69.2417 75.7329 71.8106 75.8393 72.0234C80.0786 72.871 85.5395 76.8992 87.2189 82.4002C88.1838 85.5917 88.0569 92.5372 87.9601 95.8726C98.4603 95.5286 110.955 95.3594 121.445 96.0034C121.144 84.6744 120.869 76.6816 131.299 72.285C132.214 71.849 133.391 71.413 134.699 71.3258C135.266 70.4538 136.138 69.1894 137.315 67.7506Z" fill="#D49E7A"/>
<path d="M68.2109 28.6022C69.4152 32.7394 70.4101 38.7615 71.2481 44.5755L139.906 47.0368C141.163 41.8523 142.734 37.0864 144.41 32.8445L143.834 32.2154C125.487 27.6443 131.809 29.21 130.442 28.8917C132.598 26.352 137.584 1.01695 137.707 0.53125H134.197C132.963 7.21339 128.356 22.1464 126.279 28.5804C113.262 29.8431 96.9447 31.8391 82.2462 27.6596C82.2462 27.6596 80.4076 26.6651 78.194 26.0625C76.9737 20.0366 74.3019 6.77608 73.1486 0.53125H69.6393C69.6393 0.53125 71.6148 18.3711 73.3357 25.9666C71.7718 26.5382 69.604 27.7651 68.2109 28.6022Z" fill="#D49E7A"/>
<path d="M125.802 96.3095C128.466 96.4533 130.008 96.6617 131.252 96.789C133.985 87.1343 130.599 85.9606 132.168 76.6895C124.753 80.3959 125.534 86.8901 125.802 96.3095Z" fill="#D61A1A"/>
<path d="M78.5887 96.2663C79.0264 96.2458 83.1554 96.0631 83.6027 96.0483C83.8739 87.3819 84.4599 81.4719 77.9783 77.6055C79.1163 86.8543 76.3045 87.4774 78.5887 96.2663Z" fill="#D61A1A"/>
<path d="M143.162 122.949C141.811 122.556 140.764 121.641 140.023 120.115C135.859 117.872 136.71 113.247 136.71 110.174C132.653 111.073 128.841 107.654 129.995 101.018C114.517 99.4045 93.8944 99.9277 79.768 100.582C80.2912 102.631 80.3784 105.683 79.0268 107.776C77.424 110.253 75.2824 110.162 74.8412 110.305C74.2744 110.305 73.7076 110.217 73.1844 110.087C73.357 113.711 73.861 117.989 69.9144 120.115C69.3476 121.248 68.65 122.077 67.7344 122.513C75.3644 134.633 93.3276 145.054 99.606 142.917C100.588 136.494 105.465 137.906 106.582 143.484C114.387 151.594 136.884 134.677 143.162 122.949Z" fill="#D49E7A"/>
<path d="M190.808 17.4991C183.791 12.3138 169.913 0.530431 169.913 0.530431H160.593L160.599 0.519531C159.916 0.519531 141.651 0.519531 142.156 0.519531C142.06 0.965995 138.857 17.3592 136.314 26.0255C140.285 27.1042 144.081 27.814 146.08 28.2055L146.211 28.3799C149.246 21.2404 151.278 17.8026 152.273 16.0394C152.367 16.1135 182.692 40.0224 182.953 42.7941C183.215 45.6224 154.726 61.3332 148.494 64.1616C142.209 66.989 137.653 74.7921 137.653 74.7921C135.296 76.2588 136.449 87.3088 136.763 90.0844C137.252 95.3787 131.838 105.698 135.401 105.953C136.92 106.005 138.176 103.491 138.805 101.396C139.433 99.3014 141.162 96.2634 141.162 96.2634C141.267 98.0968 141.319 108.466 141.004 112.813C140.691 117.159 143.413 116.479 143.413 116.479C144.566 122.03 145.875 116.06 147.813 111.922C149.751 107.785 149.489 100.296 150.589 95.4786C151.636 90.7127 150.117 86.6278 150.117 86.6278C150.117 86.6278 145.194 74.9495 160.225 71.1262C175.308 67.3025 201.807 54.001 208.248 48.8689C214.637 43.6844 197.827 22.6313 190.808 17.4991Z" fill="#D49E7A"/>
<path d="M66.5922 116.479C66.5922 116.479 69.315 117.16 69.001 112.813C68.6867 108.467 68.739 98.0972 68.8437 96.2638C68.8437 96.2638 70.5724 99.3019 71.2002 101.396C71.8294 103.492 73.0864 106.005 74.6045 105.953C78.0594 105.706 72.7637 95.2619 73.2429 90.0848C73.5568 87.3088 74.7096 76.2588 72.3521 74.7926C72.3521 74.7926 67.7964 66.9895 61.5119 64.162C55.2797 61.3337 26.7901 45.6229 27.0522 42.7945C27.3142 40.0185 57.7414 16.0333 57.7414 16.0333V15.1037C60.2867 16.3895 64.406 20.0035 66.6841 24.4123C67.1201 24.1943 67.6869 23.8455 68.3845 23.4967C66.8585 14.9511 65.3761 1.65313 65.2889 0.999132L65.2453 0.519531H62.1061H57.7025V0.530431H40.0929C40.0929 0.530431 26.2146 12.3138 19.1972 17.4991C12.1789 22.6313 -4.6315 43.684 1.75764 48.8689C8.19911 54.001 34.6988 67.303 49.7813 71.1262C64.8115 74.9491 59.8891 86.6278 59.8891 86.6278C59.8891 86.6278 58.3701 90.7131 59.4173 95.4786C60.5169 100.296 60.2553 107.786 62.1933 111.922C64.1305 116.06 65.4398 122.031 66.5922 116.479Z" fill="#D49E7A"/>
</svg>
