<svg width="105" height="212" viewBox="0 0 105 212" fill="none" xmlns="http://www.w3.org/2000/svg">
<path d="M71.1794 54.7312C65.4224 49.8606 64.9899 43.4915 67.6914 36.2884L0.242188 23.252V78.842C15.8074 88.0852 60.7154 78.9291 60.7154 78.9291C51.6902 87.3003 43.8422 150.215 43.0574 155.273C42.2726 160.374 38.305 166.478 38.305 166.478C38.305 166.478 32.0266 171.623 30.4134 178.599C28.8002 185.618 43.6242 188.888 48.8998 191.068C54.1754 193.205 60.4538 198.044 66.6886 204.89C72.9234 211.691 78.1554 207.593 78.1554 207.593C78.1554 207.593 80.7278 211.473 85.5238 211.43C90.2762 211.386 89.7966 206.416 88.2706 205.98C86.7446 205.587 85.175 205.195 85.175 205.195C84.6954 202.535 76.6294 197.347 76.6294 197.347C76.6294 197.347 73.0106 189.455 67.6478 180.561C62.3286 171.666 63.9854 168.266 63.9854 168.266C61.0206 152.246 91.2223 87.0623 94.2874 78.5372C72.3439 76.0965 77.5646 61.1207 71.1794 54.7312Z" fill="#D49E7A"/>
<path d="M95.3367 61.2335C95.3367 60.1435 95.5547 58.8355 96.2523 57.2659C96.5575 56.3067 96.0779 52.9495 95.3367 52.1211C94.8135 51.5979 94.3339 51.0747 93.9415 50.6387C89.3613 55.2189 80.2349 52.95 80.7307 41.8315C79.5535 41.4391 74.3651 40.0875 71.3131 39.3027H71.2695C68.4586 48.0271 73.446 50.7525 75.3679 52.7751C79.5971 57.3531 78.5943 65.1575 82.9979 69.6047C85.9282 72.5922 93.2971 74.2695 95.6419 74.2695C95.9035 73.4415 96.1215 72.5691 96.3831 71.6971H94.7263C94.5192 67.9279 93.941 64.6069 95.3367 61.2335Z" fill="#D61A1A"/>
<path d="M102.495 60.4417C102.495 60.4417 104.08 58.3066 104.796 53.8206C105.512 49.3346 87.6304 30.0473 87.6304 30.0473L60.9812 0.361328H32.8906C38.944 9.21213 63.207 26.0143 66.8389 28.6372C70.4708 31.2602 72.3713 35.0835 72.3713 35.0835C78.3144 36.8397 85.378 37.8264 85.2704 39.9057C85.2189 40.9015 83.9654 46.8786 87.7425 48.3209C91.5191 49.7627 93.0015 43.1142 93.0015 43.1142C94.0409 43.6989 95.0721 45.6098 98.4493 49.066C100.639 51.3066 101.196 57.0187 100.223 59.1115C99.2511 61.2043 99.9618 61.9306 99.9618 61.9306C98.5339 63.5155 98.8025 67.3924 98.8025 67.3924C102.501 67.4421 102.495 60.4417 102.495 60.4417Z" fill="#D49E7A"/>
</svg>
