<svg width="219" height="218" viewBox="0 0 219 218" fill="none" xmlns="http://www.w3.org/2000/svg">
<path d="M110.679 58.7312C104.922 53.8606 104.49 47.4915 107.191 40.2884L39.7422 27.252V82.842C55.3074 92.0852 100.215 82.9291 100.215 82.9291C91.1902 91.3003 83.3422 154.215 82.5574 159.273C81.7726 164.374 77.805 170.478 77.805 170.478C77.805 170.478 71.5266 175.623 69.9134 182.599C68.3002 189.618 83.1242 192.888 88.3998 195.068C93.6754 197.205 99.9538 202.044 106.189 208.89C112.423 215.691 117.655 211.593 117.655 211.593C117.655 211.593 120.228 215.473 125.024 215.43C129.776 215.386 129.297 210.416 127.771 209.98C126.245 209.587 124.675 209.195 124.675 209.195C124.195 206.535 116.129 201.347 116.129 201.347C116.129 201.347 112.511 193.455 107.148 184.561C101.829 175.666 103.485 172.266 103.485 172.266C100.521 156.246 130.722 91.0623 133.787 82.5372C111.844 80.0965 117.065 65.1207 110.679 58.7312Z" fill="#D49E7A"/>
<path d="M134.837 65.2335C134.837 64.1435 135.055 62.8355 135.752 61.2659C136.057 60.3067 135.578 56.9495 134.837 56.1211C134.313 55.5979 133.834 55.0747 133.441 54.6387C128.861 59.2189 119.735 56.95 120.231 45.8315C119.053 45.4391 113.865 44.0875 110.813 43.3027H110.769C107.959 52.0271 112.946 54.7525 114.868 56.7751C119.097 61.3531 118.094 69.1575 122.498 73.6047C125.428 76.5922 132.797 78.2695 135.142 78.2695C135.403 77.4415 135.621 76.5691 135.883 75.6971H134.226C134.019 71.9279 133.441 68.6069 134.837 65.2335Z" fill="#F2C280"/>
<path d="M141.995 64.4417C141.995 64.4417 143.58 62.3066 144.296 57.8206C145.012 53.3346 127.13 34.0473 127.13 34.0473L100.481 4.36133H72.3906C78.444 13.2121 102.707 30.0143 106.339 32.6372C109.971 35.2602 111.871 39.0835 111.871 39.0835C117.814 40.8397 124.878 41.8264 124.77 43.9057C124.719 44.9015 123.465 50.8786 127.242 52.3209C131.019 53.7627 132.502 47.1142 132.502 47.1142C133.541 47.6989 134.572 49.6098 137.949 53.066C140.139 55.3066 140.696 61.0187 139.723 63.1115C138.751 65.2043 139.462 65.9306 139.462 65.9306C138.034 67.5155 138.302 71.3924 138.302 71.3924C142.001 71.4421 141.995 64.4417 141.995 64.4417Z" fill="#D49E7A"/>
<path opacity="0.1" d="M143.357 73.4435L143.256 73.5163L143.311 73.6449L145.066 77.7887C144.714 78.2247 140.325 83.6498 140.678 83.2138C140.994 83.6498 142.801 86.1472 142.485 85.7112L139.34 87.9872L140.7 89.691C141.137 89.3074 145.354 85.6005 144.918 85.9842C144.534 85.5473 142.068 82.7408 142.452 83.1776C142.743 82.7377 146.262 77.4329 145.97 77.8728C145.734 77.4368 143.432 73.1745 143.667 73.6105L146.186 71.3965L143.357 73.4435Z" fill="#4D4D70"/>
<path opacity="0.1" d="M158.201 86.7841C158.199 86.345 158.16 79.3193 158.163 79.7584C157.718 79.5683 152.791 77.4629 153.237 77.6534L153.482 73.3457C153.42 73.7848 152.77 78.3196 152.832 77.8805C153.27 78.1134 157.756 80.5018 157.318 80.2689C157.258 81.0276 156.694 88.0672 156.729 87.6212C157.165 87.8841 160.446 89.8605 160.01 89.5976L158.754 93.2269L160.843 93.8512C160.955 93.4065 162.253 88.2761 162.141 88.7208C161.702 88.505 157.763 86.5687 158.201 86.7841Z" fill="#4D4D70"/>
<path opacity="0.1" d="M172.012 62.7188C171.633 63.16 168.787 66.474 169.166 66.0328C168.725 65.834 162.363 62.9699 162.804 63.1687C162.366 63.5506 158.884 66.5852 159.322 66.2033L154.43 64.8704C154.884 65.0374 159.869 66.8712 159.415 66.7038C159.852 66.3846 163.344 63.8362 162.907 64.1554C163.346 64.4008 169.925 68.0763 169.486 67.8308C169.924 67.4023 172.832 64.5547 172.395 64.9833C173.25 65.4895 174.099 65.9848 174.959 66.4396L176.663 65.0793C174.26 63.7774 172.449 62.9346 172.012 62.7188Z" fill="#4D4D70"/>
<path opacity="0.1" d="M171.885 49.722C171.449 49.8232 162.387 51.9286 162.832 51.8253C163.002 52.2783 164.701 56.8114 164.531 56.3584L157.648 57.7248C158.142 57.6598 165.628 56.674 165.16 56.7355C165.027 56.2965 163.721 51.9774 163.854 52.4169C164.566 52.2997 174.142 50.7222 173.551 50.8194C173.473 50.383 172.638 45.7296 172.717 46.166L178.822 45.3428L178.461 43.1934C177.715 43.3438 170.22 44.8554 170.659 44.7669C170.769 45.212 171.995 50.1672 171.885 49.722Z" fill="#4D4D70"/>
<path opacity="0.1" d="M157.266 47.7229C157.281 47.2843 157.418 43.3359 157.402 43.7749C158.453 43.063 167.588 36.8683 167.008 37.2624C166.842 36.8077 165.404 32.8479 165.57 33.3031L171.555 30.5179L170.575 28.5703C170.006 28.8786 162.93 32.7141 163.378 32.4708C163.571 32.9146 165.427 37.1913 165.234 36.7471C164.79 37.0898 156.189 43.7226 156.633 43.3799C156.645 43.819 156.752 47.8476 156.74 47.4086L149.422 51.6713C149.858 51.452 157.722 47.4936 157.266 47.7229Z" fill="#4D4D70"/>
<path opacity="0.1" d="M144.833 35.7073C145.425 34.8113 150.16 27.6391 149.864 28.0886C149.433 27.6517 146.615 24.7977 147.046 25.2345L148.584 22.7062L146.678 21.6484C146.458 22.0849 144.465 26.0424 144.685 25.606C145.125 25.9858 148.32 28.743 147.88 28.3633C147.523 29.0116 143.458 36.3905 143.704 35.9436C144.143 36.2278 146.945 38.0425 146.507 37.7582L143.395 44.1273C143.653 43.6904 147.53 37.1417 147.271 37.5786C146.826 37.2372 144.388 35.3659 144.833 35.7073Z" fill="#4D4D70"/>
</svg>
