<svg width="113" height="53" viewBox="0 0 113 53" fill="none" xmlns="http://www.w3.org/2000/svg">
<path d="M78.4829 22.2101H61.4147C61.3977 22.3467 61.372 22.4519 61.372 22.5601C61.3692 23.792 61.3635 25.0268 61.372 26.2588C61.372 26.5803 61.4033 26.9046 61.4602 27.2204C61.5428 27.6814 61.8301 27.9773 62.2996 28.0398C62.7007 28.0911 63.1076 28.1195 63.5145 28.1224C66.3881 28.1309 69.2617 28.1337 72.1325 28.1309C73.3929 28.1309 74.6561 28.1309 75.9165 28.0911C76.6563 28.0654 77.3932 27.9602 78.1329 27.8891C78.241 27.8777 78.3492 27.8691 78.517 27.8521C78.3975 28.4922 78.2866 29.0897 78.1671 29.7384C78.0049 29.7555 77.8456 29.7868 77.6862 29.7868C76.5652 29.7925 75.4442 29.7953 74.3232 29.7953C70.5818 29.7953 66.8405 29.7953 63.0962 29.7896C62.3394 29.7896 61.5826 29.7896 60.84 29.599C60.6778 29.5563 60.5185 29.5051 60.3535 29.4653C59.1784 29.1751 58.5752 28.35 58.3249 27.2347C58.2167 26.7453 58.1627 26.236 58.1599 25.7353C58.1485 22.6938 58.1513 19.6523 58.1599 16.6108C58.1627 15.7231 58.2566 14.8496 58.7175 14.053C59.0248 13.5238 59.4402 13.1454 60.0121 12.9092C60.8059 12.5821 61.6281 12.4654 62.476 12.4626C65.3923 12.4569 68.3057 12.4512 71.222 12.4512C72.343 12.4512 73.464 12.4597 74.585 12.4682C75.3646 12.4739 76.1129 12.6475 76.8327 12.9377C77.4245 13.1767 77.8342 13.5835 78.0732 14.1753C78.352 14.861 78.4857 15.5723 78.4914 16.3092C78.5028 18.2155 78.5028 20.1217 78.5085 22.028C78.5085 22.0678 78.4943 22.1105 78.4772 22.2129L78.4829 22.2101ZM75.2764 20.4888C75.2934 20.3408 75.3077 20.2839 75.3077 20.2299C75.3077 18.7162 75.3077 17.2055 75.2991 15.6918C75.2991 15.4557 75.265 15.2167 75.2138 14.9834C75.1114 14.5281 74.824 14.2465 74.3517 14.1896C74.1298 14.1611 73.905 14.1355 73.6831 14.1355C70.1238 14.1298 66.5673 14.1298 63.008 14.1327C62.7975 14.1327 62.5869 14.1497 62.3821 14.181C61.8301 14.2692 61.5371 14.5509 61.4403 15.1057C61.392 15.3931 61.3663 15.6918 61.3663 15.982C61.3607 17.3278 61.3663 18.6707 61.3663 20.0165C61.3663 20.1644 61.392 20.3124 61.409 20.4973C66.0523 20.503 70.653 20.503 75.2764 20.4888Z" fill="#0C07A2"/>
<path d="M20.8426 27.6911C20.7629 28.4024 20.689 29.0653 20.615 29.7169C20.2224 29.8108 1.30485 29.8307 0.730131 29.7396C0.735821 29.64 0.73013 29.5319 0.747201 29.4295C0.943518 28.3796 1.01465 27.3155 1.01749 26.2514C1.02887 20.7176 1.04025 15.1809 1.01749 9.64706C1.01465 8.62849 0.846782 7.61277 0.755736 6.5942C0.747201 6.48608 0.730131 6.37512 0.71875 6.27269C1.03456 6.17311 4.63085 6.13897 5.21696 6.22433C5.22265 6.26132 5.24541 6.30115 5.23687 6.33813C4.95805 7.60708 4.94382 8.89594 4.94382 10.1848C4.93813 15.9576 4.93813 21.7305 4.93813 27.5033C4.93813 27.6001 4.95236 27.694 4.96374 27.8305C5.09462 27.8447 5.21411 27.8675 5.33361 27.8675C9.55015 27.8703 13.7695 27.8704 17.9861 27.8732C18.8823 27.8732 19.7814 27.8846 20.6634 27.6854C20.7146 27.674 20.7686 27.6883 20.8426 27.6911Z" fill="#0C07A2"/>
<path d="M53.8461 6.18164C53.9428 6.87302 54.031 7.49325 54.1221 8.14764C54.0083 8.14764 53.9258 8.15902 53.849 8.14764C52.7109 7.97693 51.5643 7.90581 50.4148 7.90581C48.8585 7.90581 47.3051 7.90297 45.7488 7.90581C45.4842 7.90581 45.2167 7.92857 44.955 7.97409C44.4428 8.05945 44.1981 8.30698 44.0986 8.81911C44.0587 9.02396 44.0274 9.2345 44.0246 9.44504C44.0104 10.3413 44.0075 11.2375 44.0047 12.1337C44.0047 12.2134 44.0303 12.2959 44.0502 12.4296C47.1031 12.4638 50.1474 12.4296 53.2202 12.4524V14.1197H44.0388C44.0274 14.3103 44.0104 14.4468 44.0104 14.5806C44.0104 18.4614 44.0104 22.3422 44.0189 26.2258C44.0189 27.3468 44.0616 28.4678 44.3205 29.5661C44.3319 29.6173 44.3205 29.677 44.3205 29.7652H40.4795C40.4966 29.5945 40.5023 29.4437 40.5279 29.2986C40.6957 28.3569 40.7612 27.4094 40.764 26.4535C40.7697 22.4588 40.7754 18.4671 40.7783 14.4725C40.7783 14.3757 40.764 14.2818 40.7555 14.1253C40.2775 14.0969 39.8052 14.1282 39.3358 14.1253C38.8606 14.1197 38.3855 14.1253 37.9217 14.1253C37.8022 13.801 37.7851 12.9474 37.8876 12.4438H40.7555C40.764 12.2504 40.7697 12.1024 40.7783 11.9516C40.8238 11.0156 40.8579 10.0767 40.9205 9.14345C40.9518 8.69392 41.1054 8.27568 41.3131 7.86882C41.6347 7.24573 42.1382 6.8531 42.7727 6.60842C43.3787 6.37511 44.0161 6.2613 44.6619 6.23569C45.4045 6.20439 46.1471 6.19586 46.8897 6.19302C48.978 6.18448 51.0664 6.18449 53.1519 6.18164C53.3738 6.18164 53.5957 6.18164 53.8461 6.18164Z" fill="#0C07A2"/>
<path d="M0.151283 32.5977H2.60097C2.54691 33.2663 2.47578 33.915 2.45018 34.5665C2.42457 35.238 2.44164 35.9123 2.44164 36.5837C2.44164 37.2381 2.44164 37.8925 2.44164 38.601C5.24982 38.601 8.0011 38.6095 10.8093 38.5981C10.8093 37.5482 10.8093 36.561 10.8093 35.5709C10.8093 34.5921 10.8349 33.6134 10.5987 32.6119H13.1366C12.8948 34.8425 13.02 37.0674 13.02 39.2895C13.02 41.5002 12.9175 43.7109 13.148 45.9756C12.3115 46.0012 11.4921 45.9984 10.6272 45.9813C10.9402 43.8958 10.7438 41.8302 10.815 39.7845C10.502 39.6707 3.48297 39.6167 2.48147 39.7106C2.47009 39.8244 2.45018 39.9439 2.45018 40.0634C2.44733 41.3949 2.43311 42.7264 2.45587 44.058C2.4644 44.5872 2.5583 45.1135 2.61235 45.6427C2.62089 45.7366 2.62373 45.8305 2.63227 45.9614H0.148438C0.236638 41.5144 0.245174 37.0816 0.151283 32.6034V32.5977Z" fill="#0C07A2"/>
<path d="M47.4961 36.1667H49.2003C49.2402 36.3744 49.2772 36.5708 49.3255 36.8183C49.4251 36.7301 49.4991 36.6903 49.5418 36.6248C49.7608 36.3005 50.0823 36.1952 50.4465 36.1781C50.6997 36.1667 50.9501 36.1582 51.2033 36.1582C53.0243 36.1582 54.848 36.1582 56.6689 36.1753C57.0445 36.1781 57.42 36.2492 57.7899 36.3261C58.2622 36.4256 58.6036 36.7301 58.743 37.1882C58.8625 37.5865 58.965 38.0076 58.9706 38.4173C58.9963 40.1813 58.9906 41.9481 58.9735 43.715C58.9706 44.0735 58.8967 44.4405 58.8085 44.7904C58.6947 45.2343 58.4101 45.5814 57.9663 45.7151C57.5395 45.8431 57.0957 45.9626 56.6547 45.9712C54.7484 45.9996 52.8422 45.9797 50.9387 45.9826C50.4522 45.9826 50.0055 45.846 49.5389 45.5302C49.4393 47.7466 49.5133 49.8776 49.6556 52.0399H47.5103C47.553 50.7283 47.6127 49.4195 47.6355 48.1108C47.6583 46.7792 47.6412 45.4477 47.644 44.1161C47.644 42.7988 47.6526 41.4815 47.644 40.1642C47.6355 38.8497 47.7152 37.5296 47.5018 36.1667H47.4961ZM57.1554 41.0889C57.1554 40.0532 57.164 39.0176 57.1526 37.9791C57.144 37.2564 57.0132 37.1256 56.2905 37.0943C55.8154 37.0743 55.3374 37.08 54.8622 37.0829C53.377 37.0829 51.8947 37.08 50.4095 37.0943C49.6584 37.1028 49.4877 37.2764 49.4849 38.0161C49.4792 40.0333 49.4792 42.0477 49.4905 44.0649C49.4934 44.853 49.6527 45.0067 50.4522 45.0636C50.4664 45.0636 50.4807 45.0636 50.4949 45.0636C52.3841 45.0636 54.2761 45.075 56.1653 45.055C56.9563 45.0465 57.1469 44.8217 57.1526 44.0279C57.1611 43.0492 57.1526 42.0676 57.1526 41.086L57.1554 41.0889Z" fill="#0C07A2"/>
<path d="M27.1278 12.4883H30.6729C30.6729 12.659 30.6729 12.8069 30.6729 12.9549C30.6758 17.1316 30.6729 21.3055 30.6871 25.4822C30.69 26.8393 30.6729 28.2021 30.929 29.5479C30.9404 29.6133 30.929 29.6816 30.929 29.7698H27.125C27.1335 29.6475 27.1307 29.5507 27.1506 29.4597C27.3782 28.4269 27.4351 27.377 27.4408 26.3272C27.455 22.9215 27.455 19.5158 27.4522 16.113C27.4522 15.0063 27.3924 13.8995 27.1534 12.8126C27.1335 12.7187 27.1392 12.622 27.1307 12.494L27.1278 12.4883Z" fill="#0C07A2"/>
<path d="M82.0134 37.2081C82.059 36.841 82.0988 36.5281 82.1415 36.1952C82.2524 36.181 82.3463 36.1582 82.4402 36.1582C85.2 36.1582 87.9627 36.1582 90.7225 36.1696C91.0838 36.1696 91.448 36.2208 91.8065 36.2749C92.4296 36.3659 92.8165 36.75 92.9759 37.3389C93.0726 37.7003 93.1295 38.0815 93.138 38.4571C93.1608 39.5212 93.1437 40.5881 93.158 41.6522C93.1779 43.0776 93.0868 44.5031 93.3031 45.957H91.5732C91.5248 45.7948 91.485 45.6554 91.4395 45.5046C91.3712 45.533 91.3143 45.5387 91.2972 45.5672C91.0838 45.9399 90.7282 45.9826 90.3526 45.9826C88.3212 45.9826 86.2897 45.9911 84.2583 45.974C83.8571 45.9712 83.4531 45.883 83.0576 45.7948C82.4715 45.6639 82.1159 45.2684 81.9423 44.7051C81.8939 44.5458 81.8399 44.3779 81.837 44.2129C81.8285 43.2199 81.82 42.2241 81.8427 41.2311C81.8484 40.9864 81.9395 40.7361 82.0305 40.5028C82.2297 39.9821 82.6195 39.6435 83.1629 39.5354C83.5584 39.4557 83.9681 39.4188 84.3721 39.4159C86.2357 39.3989 88.0993 39.4017 89.9628 39.396C90.1876 39.396 90.4124 39.3818 90.6343 39.3818C90.9444 39.3818 91.1237 39.2253 91.2289 38.9436C91.3996 38.477 91.3883 38.0104 91.2574 37.5409C91.1891 37.302 91.0298 37.1597 90.7794 37.1341C90.6115 37.117 90.4437 37.0943 90.2786 37.0943C88.0793 37.0943 85.8772 37.0943 83.6779 37.1085C83.1487 37.1113 82.6195 37.1711 82.0163 37.2109L82.0134 37.2081ZM91.3143 40.3719C90.6457 40.3719 90.0311 40.3719 89.4166 40.3719C87.7635 40.3719 86.1105 40.369 84.4574 40.3804C83.8116 40.3861 83.6494 40.5597 83.6096 41.2084C83.6039 41.2909 83.601 41.3762 83.601 41.4616C83.601 42.3009 83.5982 43.1431 83.601 43.9824C83.601 44.799 83.8258 45.0323 84.6367 45.0693C84.6794 45.0693 84.722 45.0721 84.7619 45.0721C86.5401 45.0721 88.3212 45.0721 90.0994 45.0721C90.3071 45.0721 90.5176 45.0465 90.7253 45.0095C91.0155 44.9583 91.209 44.7819 91.2631 44.4889C91.3086 44.2413 91.3427 43.9909 91.3456 43.7406C91.357 42.759 91.3513 41.7803 91.3513 40.7987C91.3513 40.6763 91.3314 40.554 91.3143 40.3747V40.3719Z" fill="#0C07A2"/>
<path d="M23.1883 36.1693C24.3235 36.1693 25.4587 36.1607 26.5911 36.175C26.924 36.1778 27.2625 36.2233 27.5926 36.2774C28.1531 36.3684 28.5486 36.6814 28.6823 37.2476C28.7705 37.626 28.8672 38.0158 28.8701 38.4027C28.89 40.1525 28.8928 41.9051 28.8701 43.6549C28.8644 44.0675 28.762 44.4857 28.6567 44.8869C28.5571 45.2738 28.2783 45.5327 27.9141 45.6949C27.4845 45.8855 27.0321 45.9766 26.5655 45.9766C24.295 45.9823 22.0274 45.9908 19.757 45.9709C19.316 45.9652 18.8665 45.8656 18.4397 45.7433C17.8849 45.5839 17.5406 45.1771 17.4353 44.6109C17.3642 44.2268 17.3187 43.8342 17.3158 43.4444C17.3073 41.834 17.3158 40.2236 17.3329 38.6133C17.3358 38.2377 17.3728 37.8565 17.4524 37.4894C17.6032 36.8066 18.0471 36.3827 18.7384 36.2745C19.1937 36.2034 19.6574 36.175 20.1183 36.1664C21.1397 36.1522 22.164 36.1607 23.1854 36.1607C23.1854 36.1636 23.1854 36.1693 23.1854 36.1721L23.1883 36.1693ZM27.0833 41.0687H27.0918C27.0918 40.1155 27.0947 39.1652 27.089 38.2121C27.089 37.9902 27.0605 37.7654 27.0264 37.5463C26.9923 37.313 26.85 37.1679 26.6082 37.1452C26.372 37.1224 26.1359 37.0911 25.8969 37.0911C24.0077 37.0883 22.1156 37.0883 20.2265 37.0911C20.0444 37.0911 19.8651 37.1139 19.683 37.1338C19.3928 37.1651 19.225 37.3358 19.1851 37.6175C19.1538 37.8394 19.1254 38.0613 19.1254 38.2861C19.1254 40.1753 19.1254 42.0673 19.1311 43.9565C19.1311 44.1244 19.1453 44.2922 19.1737 44.4573C19.225 44.7674 19.4127 44.9608 19.7229 45.0149C19.9277 45.0519 20.1383 45.0746 20.3488 45.0746C22.1839 45.0775 24.0162 45.0746 25.8513 45.0746C26.0477 45.0746 26.244 45.0576 26.4346 45.0206C26.8642 44.9352 27.0036 44.7788 27.052 44.3491C27.0719 44.1699 27.0805 43.985 27.0805 43.8057C27.0805 42.8953 27.0805 41.9848 27.0805 41.0772L27.0833 41.0687Z" fill="#0C07A2"/>
<path d="M43.465 36.1771C43.5105 36.5355 43.5503 36.8627 43.593 37.2155C43.4536 37.2155 43.3569 37.2212 43.263 37.2155C42.509 37.1729 41.7522 37.1017 40.9982 37.0932C39.274 37.0733 37.5499 37.0875 35.8285 37.0875C35.6607 37.0875 35.4928 37.0875 35.325 37.0989C34.773 37.133 34.5795 37.2867 34.5454 37.8301C34.5169 38.3166 34.5255 38.8117 34.571 39.2982C34.6165 39.7847 34.7901 39.9185 35.2851 39.9497C35.564 39.9668 35.8456 39.9668 36.1244 39.9668C37.7775 39.9697 39.4305 39.9668 41.0864 39.9782C41.4364 39.9782 41.7863 40.0095 42.1306 40.0692C42.9244 40.2058 43.3711 40.6497 43.5304 41.4349C43.5703 41.6398 43.5959 41.8503 43.5987 42.0609C43.6072 42.8603 43.6129 43.657 43.6072 44.4565C43.6015 45.1052 43.2971 45.5547 42.674 45.751C42.2785 45.8762 41.8546 45.973 41.4421 45.9758C38.7107 45.9957 35.9765 45.99 33.2451 45.99C33.1228 45.99 33.0005 45.9673 32.8696 45.9559C32.8269 45.6059 32.7871 45.2901 32.7387 44.9146C32.9151 44.9231 33.0602 44.9288 33.2082 44.9373C34.0048 44.9857 34.8014 45.0682 35.5981 45.0796C37.2511 45.0995 38.9042 45.0853 40.5601 45.0796C40.8104 45.0796 41.0637 45.0625 41.314 45.0255C41.6697 44.9743 41.9172 44.7808 41.9314 44.4394C41.9627 43.6855 41.9627 42.9286 41.9257 42.1747C41.9087 41.819 41.6953 41.6625 41.3339 41.6455C40.9157 41.6255 40.4946 41.6284 40.0735 41.6255C38.503 41.6199 36.9353 41.6256 35.3648 41.6056C34.9323 41.5999 34.497 41.5487 34.0731 41.4662C33.4187 41.341 33.0005 40.9285 32.8639 40.2741C32.6733 39.3722 32.6704 38.4617 32.8554 37.5598C33.0147 36.7774 33.4585 36.3734 34.2523 36.2567C34.6108 36.2027 34.9778 36.1742 35.3392 36.1742C37.9169 36.1628 40.4975 36.16 43.0752 36.1543C43.1862 36.1543 43.2971 36.1685 43.4735 36.1799L43.465 36.1771Z" fill="#0C07A2"/>
<path d="M77.9451 36.1395V37.0671H72.8209C72.801 37.2122 72.7754 37.3174 72.7754 37.4227C72.7754 39.622 72.7754 41.8242 72.7783 44.0235C72.7783 44.1771 72.7982 44.3308 72.8323 44.4816C72.9006 44.7832 73.0884 44.9738 73.407 45.0136C73.5749 45.0335 73.7399 45.062 73.9078 45.062C75.2934 45.0677 76.6818 45.116 78.0646 44.9226C78.1841 44.9055 78.3093 44.9226 78.4686 44.9226C78.4373 45.2668 78.406 45.5912 78.3719 45.9468C78.2068 45.9582 78.0731 45.9781 77.9365 45.9781C76.4798 45.9781 75.0202 45.9924 73.5635 45.9696C73.1054 45.9611 72.6445 45.8814 72.1978 45.7733C71.5861 45.6253 71.1992 45.2128 71.0996 44.5811C71.0399 44.1942 70.9943 43.8016 70.9915 43.4118C70.983 41.5055 70.9915 39.5993 70.9915 37.693C70.9915 37.5024 70.9744 37.3117 70.963 37.0841H69.4352C69.3299 36.7512 69.3271 36.6118 69.4096 36.1538C69.9217 36.1424 70.4452 36.1282 70.9972 36.1168V34.1991C71.589 34.0996 72.1495 34.0028 72.7583 33.9004V36.094C72.9433 36.1139 73.0884 36.1395 73.2363 36.1395C74.639 36.1395 76.0388 36.1395 77.4415 36.1395C77.5951 36.1395 77.7459 36.1395 77.9422 36.1395H77.9451Z" fill="#0C07A2"/>
<path d="M97.6357 32.6005H99.6159C99.6159 32.7741 99.6159 32.922 99.6159 33.07C99.6159 36.0801 99.6131 39.0932 99.6188 42.1034C99.6188 43.3751 99.5676 44.6469 99.7866 45.9671C99.0526 46.0012 98.347 45.9899 97.6016 45.9756C97.8093 44.8859 97.7865 43.8247 97.7865 42.7663C97.7893 40.1601 97.8007 37.5568 97.7836 34.9506C97.778 34.2251 97.6784 33.5024 97.6243 32.7769C97.6215 32.7228 97.63 32.6688 97.6357 32.5977V32.6005Z" fill="#0C07A2"/>
<path d="M63.331 45.9828C63.5244 42.6853 63.5216 39.4589 63.3395 36.2012H65.2714C65.2714 36.3605 65.2714 36.5084 65.2714 36.6592C65.2714 38.776 65.2657 40.89 65.2771 43.0068C65.2828 43.9827 65.2116 44.9614 65.4734 45.9857C64.7251 45.9942 64.0195 45.9999 63.3281 45.9828H63.331Z" fill="#0C07A2"/>
<path d="M31.303 48.332V49.7688H21.6067C21.5242 49.4587 21.5156 48.8299 21.5896 48.332H31.303Z" fill="#C4E1DE"/>
<path d="M42.0686 48.332V49.7688H32.3723C32.2898 49.4587 32.2813 48.8299 32.3552 48.332H42.0686Z" fill="#DDE213"/>
<path d="M20.5335 48.332V49.7688H10.8371C10.7546 49.4587 10.7461 48.8299 10.8201 48.332H20.5335Z" fill="#81B9BB"/>
<path d="M9.76784 48.332V49.7688H0.0715152C-0.0109947 49.4587 -0.0195295 48.8299 0.0544449 48.332H9.76784Z" fill="#312CCD"/>
<path d="M30.6504 7.83764V10.221C30.323 10.3121 27.9425 10.3178 27.4727 10.2267V7.84334C28.5091 7.8348 29.5513 7.83479 30.6504 7.83764Z" fill="#0C07A2"/>
<path d="M63.4805 33.4746H65.2488V34.8585H63.4805V33.4746Z" fill="#0C07A2"/>
<path d="M78.3438 50.5233C78.4833 49.7174 78.6171 48.9372 78.7595 48.1086C79.2493 48.0602 79.7333 48.0289 80.2089 48.1399C80.5591 48.2225 80.7527 48.6468 80.4708 48.9685C80.3996 49.0511 80.3313 49.1422 80.2601 49.2333C80.2829 49.2931 80.2914 49.3501 80.3199 49.3928C80.6417 49.8883 80.4424 50.3894 79.8615 50.5346C79.5055 50.6229 78.825 50.6229 78.3466 50.5204L78.3438 50.5233ZM78.694 50.2584C79.0813 50.3581 79.4144 50.3382 79.7419 50.2812C79.8672 50.2584 80.001 50.1673 80.0864 50.0648C80.2914 49.8228 80.1747 49.5209 79.8615 49.4754C79.5995 49.4384 79.3318 49.4412 79.067 49.4526C78.9901 49.4555 78.8762 49.538 78.8535 49.6092C78.7823 49.8114 78.7481 50.0278 78.694 50.2584ZM79.1126 48.3649C79.0613 48.6382 79.0186 48.8717 78.9645 49.1792C79.3404 49.1536 79.6451 49.1565 79.9412 49.1081C80.1405 49.0739 80.28 48.8489 80.2715 48.6724C80.263 48.493 80.1434 48.3848 79.8899 48.3649C79.6451 48.3478 79.3945 48.362 79.1154 48.362L79.1126 48.3649Z" fill="#0C07A2"/>
<path d="M55.9653 49.4607C56.1276 49.8622 56.4181 50.1498 56.512 50.5484C56.307 50.6452 56.1703 50.6054 56.0764 50.426C55.9938 50.2637 55.9169 50.0985 55.8286 49.939C55.5354 49.4265 55.4642 49.398 54.7836 49.4948C54.7238 49.7682 54.6555 50.0643 54.5928 50.3605C54.5558 50.537 54.4846 50.6452 54.2227 50.5427C54.3707 49.7369 54.5188 48.9339 54.6697 48.1166C55.2164 48.1166 55.7204 48.091 56.2187 48.1252C56.6459 48.1537 56.8509 48.5381 56.6573 48.9196C56.5804 49.0734 56.4266 49.193 56.2899 49.3069C56.2102 49.3752 56.0963 49.4037 55.9596 49.4664L55.9653 49.4607ZM54.8918 49.1218C55.2278 49.2329 55.5724 49.1674 55.9141 49.1361C55.9938 49.1275 56.102 49.1076 56.1447 49.0535C56.2301 48.9396 56.327 48.8029 56.3355 48.6691C56.3469 48.5011 56.1988 48.4014 56.0308 48.3843C55.8657 48.3672 55.6977 48.3587 55.5325 48.3615C54.9659 48.3729 54.9659 48.2448 54.8662 48.9823C54.8605 49.0193 54.8833 49.062 54.8947 49.119L54.8918 49.1218Z" fill="#0C07A2"/>
<path d="M84.5148 50.7503C84.8338 50.9411 85.1441 51.1746 85.5257 50.9838C85.6909 50.9012 85.8218 50.7816 85.8332 50.5168C85.651 50.5367 85.4944 50.5595 85.3349 50.5709C84.8394 50.6022 84.5661 50.3431 84.5832 49.8477C84.5974 49.449 84.7483 49.1158 85.0729 48.871C85.3093 48.6944 85.5713 48.6375 85.8645 48.7058C86.0496 48.7485 86.2404 48.7685 86.4768 48.8083C86.4568 48.9279 86.4312 49.0845 86.4027 49.2383C86.3258 49.6654 86.266 50.0954 86.1664 50.5168C86.0212 51.1319 85.5058 51.4394 84.8964 51.3056C84.5917 51.2401 84.4921 51.1062 84.5148 50.7531V50.7503ZM86.0696 49.4889C86.0753 49.056 85.7022 48.8339 85.3463 49.0333C85.0986 49.1728 84.9847 49.4091 84.922 49.674C84.8708 49.8932 84.9049 50.0925 85.0986 50.2321C85.2523 50.3431 85.5513 50.3232 85.7279 50.195C85.9756 50.0157 86.0297 49.7423 86.0667 49.4917L86.0696 49.4889Z" fill="#0C07A2"/>
<path d="M96.9462 48.1175H97.3391C97.2793 48.4392 97.2252 48.7354 97.1597 49.0856C97.621 49.1198 98.0339 49.1226 98.4468 49.0856C98.5151 49.0799 98.6006 48.9404 98.629 48.8493C98.6831 48.6613 98.7002 48.4649 98.7401 48.2712C98.78 48.0861 98.8939 48.0634 99.0875 48.1431C99.0533 48.3766 99.0277 48.6072 98.9878 48.8379C98.8967 49.3333 98.797 49.8288 98.7031 50.3243C98.6718 50.4866 98.6376 50.6289 98.3756 50.5635C98.424 50.1933 98.4724 49.8288 98.5237 49.4131C98.0624 49.4131 97.6467 49.4131 97.2309 49.4131C97.0686 49.4131 97.0259 49.5327 97.0088 49.6665C96.9775 49.9028 96.9433 50.1392 96.912 50.3755C96.8892 50.5606 96.781 50.6005 96.5703 50.5435C96.6415 49.7405 96.8807 48.966 96.949 48.1146L96.9462 48.1175Z" fill="#0C07A2"/>
<path d="M70.648 49.6965C70.1611 49.7221 69.677 49.7449 69.1958 49.7705C69.2328 50.3144 69.5688 50.5194 69.9988 50.3201C70.1525 50.2489 70.275 50.0667 70.4772 50.1492C70.4885 50.1777 70.4999 50.1919 70.4971 50.2005C70.3576 50.5479 69.919 50.7301 69.435 50.6419C69.1104 50.5821 68.9196 50.3514 68.894 49.9898C68.8541 49.4146 69.1759 48.8821 69.6742 48.7255C69.9703 48.6315 70.2721 48.6344 70.4971 48.8736C70.7106 49.0985 70.7847 49.3776 70.6508 49.6993L70.648 49.6965ZM70.4145 49.4516C70.3348 49.0757 70.2152 48.9561 69.9618 48.9504C69.6571 48.9448 69.4122 49.1355 69.3496 49.4516H70.4145Z" fill="#0C07A2"/>
<path d="M83.3184 50.165C83.0422 50.6177 82.3474 50.8 81.9545 50.5409C81.7523 50.407 81.664 50.202 81.6413 49.9714C81.5929 49.5044 81.9374 48.9377 82.3759 48.7526C83.0451 48.4679 83.5519 48.8751 83.4637 49.6895C82.971 49.7123 82.4642 49.7379 81.9602 49.7607C82.0029 50.2988 82.3161 50.4982 82.7546 50.3245C82.9283 50.2561 83.0622 50.0653 83.3184 50.1622V50.165ZM83.1874 49.4275C83.1561 49.1 83.0394 48.9719 82.7689 48.9548C82.467 48.932 82.2364 49.1029 82.131 49.4417C82.4898 49.5044 82.8372 49.5243 83.1874 49.4303V49.4275Z" fill="#0C07A2"/>
<path d="M106.802 49.6998C106.289 49.7198 105.794 49.7397 105.301 49.7596C105.347 50.3092 105.651 50.5057 106.093 50.3263C106.264 50.2579 106.403 50.07 106.645 50.1526C106.58 50.3889 106.423 50.5256 106.215 50.5683C105.985 50.6139 105.743 50.6395 105.512 50.6196C105.216 50.5911 105.031 50.3576 104.991 50.0472C104.922 49.5148 105.199 49.0051 105.683 48.7716C105.982 48.6263 106.275 48.6121 106.557 48.8114C106.802 48.988 106.876 49.2357 106.805 49.697L106.802 49.6998ZM106.545 49.4094C106.454 49.0563 106.346 48.9566 106.076 48.9538C105.754 48.9481 105.532 49.1161 105.444 49.4635C105.817 49.4663 106.181 49.5318 106.545 49.4094Z" fill="#0C07A2"/>
<path d="M101.783 49.7036C101.322 49.715 100.841 49.7264 100.354 49.7378C100.291 50.0311 100.408 50.1906 100.593 50.3159C100.775 50.4383 100.966 50.3984 101.154 50.313C101.311 50.2418 101.433 50.0567 101.701 50.1849C101.613 50.2845 101.55 50.387 101.459 50.4497C101.166 50.6576 100.832 50.6803 100.491 50.612C100.263 50.5664 100.129 50.4098 100.058 50.1963C99.8614 49.5954 100.266 48.8693 100.881 48.7013C101.487 48.5333 102.037 49.0202 101.783 49.7036ZM101.53 49.4189C101.496 49.1028 101.39 48.9832 101.148 48.9519C100.835 48.912 100.579 49.0886 100.471 49.4388C100.83 49.4844 101.18 49.5186 101.53 49.4189Z" fill="#0C07A2"/>
<path d="M59.353 50.2009C59.2789 50.2892 59.2277 50.3888 59.148 50.4429C58.8831 50.6195 58.5813 50.6821 58.2652 50.6366C57.9776 50.5967 57.7926 50.4059 57.7328 50.1155C57.6359 49.6485 57.8694 49.0875 58.2709 48.8341C58.5614 48.6519 58.8746 48.5778 59.185 48.7572C59.5181 48.948 59.5779 49.2698 59.5409 49.6428C59.0426 49.8165 58.5073 49.6029 58.0232 49.7795C58.0773 50.3319 58.3478 50.4999 58.8177 50.3091C58.9572 50.2521 59.0967 50.1924 59.2391 50.1382C59.2562 50.1326 59.2875 50.161 59.3558 50.1952L59.353 50.2009ZM58.1029 49.4207C58.5101 49.4805 58.8718 49.5203 59.2419 49.3922C59.222 49.0932 59.0796 48.9651 58.8404 48.9508C58.5187 48.9309 58.2795 49.0647 58.1029 49.4235V49.4207Z" fill="#0C07A2"/>
<path d="M65.1616 49.4887C65.1332 50.2376 64.5807 50.7273 63.866 50.6362C63.5585 50.5964 63.3506 50.4113 63.2823 50.118C63.1456 49.5058 63.5984 48.8053 64.2134 48.6828C64.7744 48.5718 65.1816 48.9163 65.1616 49.4887ZM64.8057 49.5599C64.8285 49.0445 64.5039 48.8309 64.0767 49.0502C63.7464 49.2182 63.5927 49.5001 63.5984 49.8646C63.6069 50.3145 63.9999 50.5309 64.39 50.3002C64.6833 50.1294 64.7829 49.8446 64.8057 49.557V49.5599Z" fill="#0C07A2"/>
<path d="M92.4025 49.2696C92.525 49.3323 92.6389 49.4035 92.7585 49.449C92.9008 49.5031 93.0546 49.5287 93.1998 49.58C93.5729 49.711 93.6497 49.9786 93.4105 50.2947C93.1571 50.6336 92.5107 50.7645 92.1491 50.551C91.9469 50.4314 91.9185 50.3374 92.0124 50.0612C92.3 50.1637 92.5079 50.5225 92.8695 50.3688C93.0005 50.3146 93.1087 50.2036 93.2909 50.0755C93.1372 49.9815 93.0546 49.9188 92.9635 49.879C92.7442 49.785 92.5136 49.7252 92.3029 49.6142C92.0808 49.5003 92.0466 49.3437 92.1434 49.1216C92.3513 48.6489 93.1657 48.5036 93.5102 48.8881C93.5643 48.9479 93.607 49.0845 93.5757 49.1415C93.5102 49.2639 93.3963 49.2184 93.2853 49.1586C93.1457 49.0788 92.9977 48.9849 92.8439 48.9621C92.6588 48.9336 92.488 49.0162 92.3968 49.2696H92.4025Z" fill="#0C07A2"/>
<path d="M89.0643 50.5135C89.1839 49.9212 89.2978 49.3517 89.4031 48.8363C89.6822 48.7822 89.91 48.7424 90.1349 48.6911C90.6048 48.5858 90.9123 48.8477 90.8497 49.3176C90.807 49.6507 90.7415 49.981 90.6845 50.3113C90.6589 50.4566 90.6304 50.5961 90.3713 50.5477C90.3827 50.4082 90.3884 50.2629 90.4055 50.1206C90.4425 49.8444 90.5051 49.5682 90.5251 49.2891C90.5421 49.0385 90.4083 48.9246 90.1634 48.9616C89.8587 49.0072 89.6452 49.178 89.574 49.4856C89.5113 49.7589 89.4658 50.0351 89.4259 50.3113C89.4003 50.4964 89.3405 50.6018 89.0586 50.5078L89.0643 50.5135Z" fill="#0C07A2"/>
<path d="M74.0337 48.7543C74.3128 48.7145 74.3213 48.8711 74.3441 49.0277C74.401 49.3836 74.4694 49.7396 74.5491 50.1952C74.6744 50.0357 74.7484 49.9617 74.7997 49.8734C74.9762 49.5716 75.1442 49.2612 75.3179 48.9594C75.3777 48.854 75.429 48.723 75.6454 48.7828C75.5856 48.9195 75.5372 49.0562 75.4689 49.1815C75.1385 49.768 74.8054 50.3518 74.4637 50.9298C74.3213 51.169 74.122 51.3455 73.8145 51.3057C73.7547 51.2971 73.7006 51.2487 73.5781 51.1832C73.7404 51.1206 73.8401 51.0836 73.9369 51.0466C74.2758 50.9099 74.3868 50.7219 74.3213 50.3546C74.2501 49.9674 74.159 49.5858 74.085 49.2014C74.0565 49.059 74.0508 48.911 74.0366 48.7572L74.0337 48.7543Z" fill="#0C07A2"/>
<path d="M62.2547 49.9763C62.1237 50.4775 61.6965 50.7224 61.2068 50.6398C60.8423 50.58 60.6117 50.244 60.6743 49.8197C60.7426 49.3641 60.8907 48.9455 61.3662 48.7462C61.6396 48.6323 61.9158 48.6209 62.1664 48.7946C62.2547 48.8544 62.3315 48.9512 62.3742 49.048C62.3999 49.105 62.3743 49.2274 62.3315 49.2644C62.2917 49.2958 62.1835 49.2645 62.1151 49.2331C62.0724 49.2132 62.0525 49.142 62.0126 49.1021C61.8332 48.9284 61.6624 48.9057 61.4431 49.0224C61.0957 49.2075 60.8936 49.6916 61.0046 50.0674C61.0815 50.3323 61.3264 50.4632 61.5997 50.3607C61.725 50.3123 61.8275 50.207 61.9471 50.1358C62.0326 50.0845 62.1237 50.0447 62.2547 49.9792V49.9763Z" fill="#0C07A2"/>
<path d="M67.0599 50.0948C67.1966 49.8414 67.3219 49.5794 67.4671 49.3317C67.6038 49.101 67.6921 48.8191 68.0366 48.7109C68.0281 48.8106 68.0452 48.8818 68.0167 48.9302C67.7291 49.4285 67.4386 49.924 67.1368 50.4137C67.0856 50.4963 66.9745 50.5732 66.8834 50.5874C66.8321 50.596 66.7268 50.4735 66.7068 50.3938C66.5702 49.8699 66.4534 49.3402 66.3281 48.8049C66.5787 48.7052 66.6954 48.7508 66.7325 48.9758C66.778 49.2662 66.8293 49.5566 66.8834 49.8442C66.8976 49.9211 66.9289 49.9952 66.9517 50.072C66.9887 50.0806 67.0258 50.0891 67.0628 50.0977L67.0599 50.0948Z" fill="#0C07A2"/>
<path d="M104.237 48.7051C104.225 48.9699 104.103 48.9984 103.969 48.9898C103.664 48.967 103.533 49.1578 103.474 49.4056C103.4 49.7188 103.351 50.0377 103.297 50.3538C103.26 50.5759 103.146 50.6328 102.898 50.5218C103.018 49.9352 103.138 49.3515 103.254 48.7791C103.599 48.7535 103.904 48.7307 104.234 48.7079L104.237 48.7051Z" fill="#0C07A2"/>
<path d="M71.7255 50.5236C71.8423 49.937 71.959 49.3704 72.07 48.8151C72.3406 48.7724 72.5712 48.7297 72.8019 48.704C72.9072 48.6927 73.0553 48.6756 73.0467 48.8407C73.0439 48.8948 72.9186 48.9717 72.8417 48.9831C72.3918 49.0429 72.3292 49.0885 72.2381 49.527C72.1811 49.8003 72.1384 50.0765 72.0957 50.3556C72.07 50.5293 71.996 50.6119 71.7227 50.5293L71.7255 50.5236Z" fill="#0C07A2"/>
<path d="M88.0883 48.7852C87.9858 49.3518 87.8918 49.8871 87.7864 50.4225C87.7608 50.5591 87.6583 50.5933 87.5102 50.5193C87.5102 50.4338 87.496 50.337 87.5102 50.2431C87.5814 49.8302 87.6612 49.4173 87.7352 49.0016C87.7722 48.7937 87.775 48.7965 88.0854 48.7852H88.0883Z" fill="#0C07A2"/>
<path d="M112.01 50.443C111.893 50.5657 111.796 50.617 111.679 50.5115C111.659 50.4943 111.659 50.423 111.679 50.4002C111.782 50.2861 111.884 50.2947 112.01 50.443Z" fill="#0C07A2"/>
<path d="M107.969 50.5068C108.009 50.3414 108.089 50.2872 108.217 50.3442C108.243 50.3556 108.268 50.4212 108.26 50.4497C108.205 50.5981 108.1 50.5667 107.969 50.5068Z" fill="#0C07A2"/>
<path d="M109.734 50.4598C109.928 50.3371 110.045 50.2801 110.168 50.474C110.037 50.5881 109.925 50.571 109.734 50.4598Z" fill="#0C07A2"/>
<path d="M87.8945 48.1562H88.2197L88.2282 48.2532C88.117 48.2675 88.0058 48.2789 87.8974 48.2932C87.8974 48.2475 87.8974 48.2019 87.8945 48.1562Z" fill="#0C07A2"/>
<g clip-path="url(#clip0_1420_5832)">
<path d="M90.088 22.6501C89.0442 22.8504 88.1533 22.2167 87.4342 21.4259C86.2523 20.1259 85.4794 18.4737 84.8405 16.8658C84.1077 15.0302 83.4287 12.9183 83.7292 10.9413C83.8451 10.179 84.0982 9.4494 84.7477 8.98021C85.4689 8.45935 86.4051 8.40031 87.2708 8.32228C88.2546 8.23372 89.2444 8.23372 90.2283 8.32228C92.2273 8.50142 94.1788 9.03294 95.9925 9.89223C96.9752 10.3604 98.0295 11.0436 98.1097 12.2118C98.1814 13.2662 97.5508 14.2383 97.031 15.0924C96.0665 16.6783 94.9789 18.1861 93.7783 19.6019C92.8684 20.6742 91.8552 22.0037 90.4887 22.5341C90.3589 22.5847 90.2248 22.6235 90.088 22.6501Z" fill="#7272AF"/>
<path opacity="0.74" d="M89.5062 22.7086C87.9394 22.1392 87.2921 20.5819 87.0063 18.9508C86.5403 16.2728 86.9251 13.446 87.446 10.7964C88.0407 7.76402 88.94 4.40902 91.0382 2.00507C91.8469 1.08144 92.8085 0.310703 94.079 0.205266C95.4877 0.0861227 96.7898 0.757754 98.0129 1.35136C99.3992 2.01946 100.722 2.81283 101.964 3.72158C104.471 5.54887 106.624 7.81851 108.316 10.4189C109.229 11.8286 110.053 13.582 109.16 15.2121C108.356 16.6713 106.678 17.4663 105.251 18.1896C102.607 19.5309 99.8655 20.6694 97.0492 21.5952C94.9151 22.2963 92.4226 23.259 90.142 22.8731C89.9255 22.8379 89.7127 22.7828 89.5062 22.7086Z" fill="#6FCBCF"/>
<path opacity="0.85" d="M89.4023 22.6009C88.485 21.5897 88.601 20.2043 89.009 18.9043C89.6786 16.7692 91.0187 14.8471 92.3893 13.1116C93.9593 11.122 95.8687 9.00798 98.2875 8.05062C99.2174 7.68264 100.202 7.48548 101.159 7.89141C102.22 8.34057 102.909 9.32535 103.571 10.2216C104.322 11.2379 104.979 12.3207 105.533 13.4564C106.658 15.7491 107.359 18.2262 107.603 20.7684C107.732 22.1454 107.669 23.7406 106.408 24.5905C105.28 25.3517 103.772 25.2948 102.468 25.2811C100.055 25.2559 97.6483 25.0458 95.2678 24.6527C93.4637 24.3574 91.3012 24.1128 89.7998 22.9657C89.6569 22.8559 89.5239 22.7338 89.4023 22.6009Z" fill="#F9D020"/>
</g>
<defs>
<clipPath id="clip0_1420_5832">
<rect width="25.891" height="25.0981" fill="white" transform="translate(83.6445 0.195312)"/>
</clipPath>
</defs>
</svg>
