<svg width="49" height="48" viewBox="0 0 49 48" fill="none" xmlns="http://www.w3.org/2000/svg">
<path d="M12.192 42.4937C10.2165 42.8728 8.53038 41.6736 7.16949 40.177C4.9326 37.7166 3.46994 34.5898 2.2607 31.5467C0.873875 28.0726 -0.411188 24.0758 0.157512 20.3343C0.377011 18.8916 0.855916 17.5108 2.08511 16.6228C3.44999 15.6371 5.22194 15.5253 6.86019 15.3777C8.72216 15.21 10.5954 15.21 12.4574 15.3777C16.2406 15.7167 19.9339 16.7226 23.3665 18.3489C25.2262 19.2348 27.2217 20.5279 27.3733 22.7388C27.509 24.7343 26.3157 26.5741 25.332 28.1904C23.5064 31.1919 21.4481 34.0455 19.176 36.7249C17.454 38.7542 15.5364 41.2705 12.9503 42.2742C12.7046 42.37 12.4508 42.4434 12.192 42.4937Z" fill="#7272AF"/>
<path opacity="0.74" d="M11.0924 42.6051C8.12722 41.5276 6.90202 38.5803 6.36125 35.4934C5.47927 30.425 6.20761 25.0752 7.19335 20.0607C8.31878 14.3218 10.0209 7.97228 13.9918 3.42268C15.5223 1.67467 17.3422 0.216009 19.7467 0.0164647C22.4126 -0.20902 24.8769 1.06207 27.1916 2.18551C29.8154 3.44992 32.3181 4.95141 34.6685 6.67125C39.414 10.1295 43.4882 14.4249 46.6911 19.3463C48.4191 22.0142 49.9776 25.3326 48.2874 28.4176C46.7669 31.1792 43.5902 32.6838 40.8903 34.0527C35.8869 36.5912 30.6978 38.7458 25.3678 40.4979C21.329 41.8249 16.6118 43.6467 12.2957 42.9164C11.8859 42.8498 11.4831 42.7456 11.0924 42.6051Z" fill="#6FCBCF"/>
<path opacity="0.85" d="M10.8936 42.4016C9.15753 40.488 9.37703 37.866 10.1493 35.4056C11.4164 31.3649 13.9526 27.7272 16.5466 24.4427C19.5179 20.6773 23.1316 16.6765 27.7091 14.8646C29.4691 14.1682 31.3328 13.795 33.1427 14.5633C35.1521 15.4133 36.4551 17.2771 37.7083 18.9732C39.1296 20.8967 40.3726 22.9459 41.4218 25.0952C43.5506 29.4343 44.8776 34.1225 45.3388 38.9336C45.5843 41.5396 45.4645 44.5587 43.078 46.167C40.9429 47.6077 38.0894 47.5 35.621 47.4741C31.055 47.4265 26.4994 47.0289 21.9942 46.2848C18.58 45.7261 14.4874 45.2631 11.6458 43.0921C11.3754 42.8843 11.1237 42.6533 10.8936 42.4016Z" fill="#F9D020"/>
</svg>
