<svg width="88" height="84" viewBox="0 0 88 84" fill="none" xmlns="http://www.w3.org/2000/svg">
<path fill-rule="evenodd" clip-rule="evenodd" d="M24.8749 40.0675C24.2286 40.7138 23.6994 41.4632 23.284 42.3154C22.421 40.5399 21.061 39.226 19.2641 38.3773C21.061 37.5285 22.4211 36.2146 23.284 34.4391C24.1469 36.2146 25.507 37.5285 27.3039 38.3773C26.37 38.8176 25.5602 39.3822 24.8749 40.0675ZM24.2144 45.3232C25.4502 50.1101 25.5106 55.1559 25.9225 60.405C26.1746 63.6578 27.7762 69.361 30.1483 74.215C31.9167 77.8265 34.0865 80.9266 36.3876 82.0807C38.0354 82.9046 42.4778 84.1901 43.3407 81.9493C44.3635 79.2966 44.0723 72.9472 43.9196 70.163C43.5218 62.7766 45.2477 57.9439 47.5915 55.703C49.7541 53.6398 52.5027 53.6398 54.6653 55.703C57.0126 57.9437 58.7385 62.7768 58.3372 70.163C58.1881 72.9435 57.8933 79.3002 58.916 81.9493C59.779 84.19 64.2214 82.9046 65.8691 82.0807C68.1739 80.9266 70.3436 77.8264 72.1085 74.215C74.4842 69.3642 76.0822 63.6577 76.3343 60.405C77.0197 51.6514 76.6433 46.1795 81.1887 37.2159C83.4259 32.8089 85.6099 28.402 86.4089 23.995C87.1901 19.6803 86.6432 15.2983 83.497 10.7813C76.551 0.805888 66.6715 4.88289 56.7715 8.96671C49.0371 12.1592 41.2851 15.3552 34.4915 12.3829C34.0334 12.184 33.8239 11.6478 34.0228 11.1897C34.2216 10.7316 34.7578 10.5221 35.2159 10.721C39.2109 12.4681 43.7635 11.7614 48.5078 10.206C47.4957 9.80121 46.4836 9.38573 45.4751 8.96667C35.5742 4.88285 25.6951 0.806124 18.7497 10.7813C15.6815 15.1883 15.0885 19.4639 15.7845 23.6759C16.4414 27.646 18.2454 31.6056 20.2269 35.5686C21.342 34.5352 22.0948 33.0509 22.3789 31.2575C22.5423 30.2348 24.0054 30.2383 24.1723 31.2433C24.7618 34.7696 26.8854 36.8221 30.4223 37.4862C31.413 37.6708 31.4095 39.0806 30.4365 39.2724C26.9635 39.9471 24.8572 41.8609 24.2144 45.3232ZM29.0119 21.1786C28.3656 21.8249 27.8365 22.5743 27.421 23.4265C26.5581 21.651 25.198 20.3371 23.4011 19.4883C25.198 18.6396 26.5581 17.3257 27.421 15.5502C28.2839 17.3257 29.644 18.6396 31.4409 19.4883C30.5035 19.9322 29.6937 20.4933 29.0119 21.1786ZM28.3159 26.6119C28.1632 27.624 26.693 27.6417 26.5225 26.6261C25.933 23.0998 23.8094 21.0473 20.2725 20.3832C19.2818 20.1985 19.2854 18.7887 20.2583 18.597C23.774 17.9116 25.9579 15.9124 26.5225 12.3683C26.6859 11.3455 28.1454 11.3491 28.3159 12.3541C28.9054 15.8803 31.029 17.9329 34.5659 18.597C35.5566 18.7816 35.5531 20.1914 34.5801 20.3832C31.029 21.0721 28.916 23.0501 28.3159 26.6119ZM12.0904 12.4255C10.9044 13.6116 9.93135 14.9894 9.17144 16.5555C7.59117 13.2956 5.09117 10.8843 1.79217 9.32189C5.09117 7.76298 7.59117 5.35171 9.17144 2.0918C10.7517 5.35171 13.2517 7.76298 16.5507 9.32189C14.8355 10.1351 13.3475 11.1683 12.0904 12.4255ZM69.4304 10.8559C77.1613 9.2508 81.8059 15.8453 80.5241 22.9259L79.5582 27.5956C79.2883 28.7603 77.5198 28.3485 77.7897 27.1837L78.7379 22.6027C79.7784 16.8605 76.3018 11.2781 69.7962 12.6272C68.6314 12.8758 68.2621 11.1009 69.4304 10.8559Z" fill="#347C75" stroke="#347C75"/>
</svg>
