<svg width="200" height="162" viewBox="0 0 200 162" fill="none" xmlns="http://www.w3.org/2000/svg">
<path d="M119.764 60.0616C120.414 60.7763 120.644 62.6387 119.625 65.7868C113.335 66.9076 107.835 71.8172 105.928 78.4807C104.377 83.7979 103.519 84.874 103.428 84.9789C103.438 84.9628 102.334 85.8267 97.0512 87.0798C90.6959 88.594 85.5203 93.9984 83.92 100.414C80.7838 101.27 78.987 100.915 78.3374 100.2C77.6911 99.4893 77.4526 97.6451 78.4554 94.5045C78.6077 94.4758 78.7508 94.419 78.9018 94.3863C79.2774 94.3049 79.6424 94.1993 80.0098 94.0931C80.4601 93.9628 80.9041 93.8237 81.3405 93.6574C81.7087 93.5174 82.0668 93.3618 82.4238 93.197C82.8368 93.0064 83.2396 92.8017 83.6362 92.5796C83.9835 92.3851 84.3233 92.1837 84.6568 91.9661C85.0361 91.7184 85.3998 91.4521 85.7598 91.1758C86.0748 90.934 86.3864 90.6934 86.6853 90.4306C87.0329 90.125 87.3576 89.7964 87.682 89.4639C87.954 89.1847 88.2293 88.913 88.4838 88.6161C88.8015 88.2451 89.0871 87.8477 89.3756 87.4502C89.5927 87.1509 89.8217 86.8641 90.0211 86.5505C90.3185 86.0836 90.5716 85.5869 90.8274 85.0906C90.9716 84.8107 91.1377 84.5464 91.2678 84.2576C91.6296 83.4566 91.9432 82.6266 92.1906 81.7641C93.7423 76.4468 94.5997 75.3707 94.6908 75.2658C94.6806 75.282 95.7847 74.4181 101.068 73.165C104.112 72.4387 106.924 70.8883 109.207 68.6768C110.392 67.5283 111.36 66.1924 112.19 64.7763C112.288 64.6117 112.396 64.4545 112.489 64.2869C112.733 63.8387 112.943 63.379 113.149 62.9121C113.353 62.4606 113.539 62.005 113.705 61.5376C113.829 61.1807 113.945 60.8254 114.048 60.4609C114.108 60.2454 114.199 60.0399 114.251 59.8218C117.35 58.9878 119.118 59.3506 119.764 60.0616Z" fill="#6D6DB5" stroke="#6D6DB5"/>
<path d="M47.8617 10.7236L68.3219 32.335C72.3679 36.6086 77.3319 39.652 82.6795 41.14C82.8242 41.1889 82.9649 41.2291 83.0737 41.2536L99.8503 45.7833C105.146 47.2207 108.494 52.1942 107.807 57.612C107.801 57.6568 107.82 57.6962 107.817 57.7406C107.813 57.7903 107.792 57.8364 107.79 57.8865C107.789 57.8983 107.783 57.909 107.783 57.9208C107.518 59.6413 106.834 61.2649 105.842 62.6776C104.188 65.0312 101.678 66.8008 98.8289 67.4542C92.2158 68.9573 90.2188 70.218 89.2201 71.1462C88.1691 72.1231 86.8285 73.9912 84.871 80.4209C84.1917 82.6958 82.8333 84.6587 81.0535 86.1031C79.7951 87.1241 78.319 87.8687 76.7294 88.2991C76.633 88.3251 76.543 88.3673 76.4458 88.3909C76.3717 88.4088 76.2932 88.4115 76.2185 88.4281C75.7222 88.5382 75.2197 88.6308 74.7052 88.6744C74.6374 88.6717 74.5729 88.6953 74.5053 88.6971C74.4588 88.6981 74.4188 88.6763 74.3719 88.6792C71.1037 88.8863 67.9442 87.6451 65.6992 85.2738C64.3215 83.8185 63.3801 82.0155 62.9759 80.0572L59.4675 63.0701C59.452 62.9815 59.4287 62.8981 59.4043 62.8136C58.276 57.4433 55.5272 52.3307 51.446 48.0199L30.9858 26.4084L47.8617 10.7236ZM98.0021 65.316C99.723 64.5859 101.016 63.7157 101.99 62.8107C103.416 61.485 104.153 60.0856 104.531 58.9491C105.921 54.7655 103.686 51.0271 103.425 50.6163C102.519 49.1716 100.577 48.7644 99.0913 49.7023C97.6128 50.6253 97.1445 52.552 98.0299 53.9931C98.0764 54.0693 99.0241 55.7615 98.5371 57.1761C98.2199 58.1013 97.2458 58.9201 95.6559 59.5944C94.0228 60.2862 93.2553 62.1181 93.9035 63.6972C94.5516 65.2763 96.3878 66.0006 98.0021 65.316Z" fill="#6D6DB5" stroke="#6D6DB5"/>
<path d="M115.17 119.007L98.2745 114.455C92.9927 113.022 89.6357 108.048 90.2951 102.628C90.975 97.7044 94.679 93.8404 99.2989 92.7859C105.916 91.2832 107.915 90.0227 108.914 89.0947C109.966 88.118 111.307 86.2502 113.266 79.8217C114.639 75.2282 118.778 71.9127 123.57 71.5592C127.031 71.3556 130.203 72.6032 132.447 74.9708C133.824 76.4247 134.768 78.2296 135.175 80.1898L138.656 97.0202C138.665 97.1109 138.68 97.1995 138.699 97.2871C139.823 102.71 142.593 107.874 146.71 112.219L169.025 135.77L152.141 151.45L129.826 127.899C125.785 123.635 120.806 120.588 115.425 119.087C115.341 119.057 115.256 119.03 115.17 119.007Z" fill="#6D6DB5" stroke="#6D6DB5"/>
</svg>
