<svg width="106" height="180" viewBox="0 0 106 180" fill="none" xmlns="http://www.w3.org/2000/svg">
<path d="M31.9506 58.2259C35.6652 58.2259 39.2375 58.8793 42.5472 60.0866C44.6992 56.6491 57.0997 44.9872 57.0997 22.8066V2.77752C57.0997 1.79741 57.8952 1.00195 58.8753 1.00195H87.6189C88.6061 1.00195 89.3945 1.79741 89.3945 2.77752V32.7066C89.0252 40.8032 90.5805 46.137 94.2879 49.5035C107.761 59.951 106.802 76.9744 101.973 83.949C105.268 88.885 104.387 98.8637 98.4357 101.556C98.4428 102.6 98.3008 103.764 97.9812 105.064C104.97 109.382 107.754 122.642 100.382 131.662C101.49 147.919 100.637 163.451 97.8534 177.828C97.69 178.666 96.9585 179.269 96.1062 179.269H89.2809C88.173 179.269 87.342 178.275 87.5338 177.189C90.0551 162.721 90.5167 148.914 88.9116 136.138C86.7738 135.854 85.3534 134.873 84.3803 133.666C83.4784 137.643 83.0096 141.727 83.0096 145.825V177.494C83.0096 178.474 82.2141 179.27 81.234 179.27H56.1704C55.1903 179.27 54.3948 178.474 54.3948 177.494V146.372C52.8536 136.621 49.0752 128.247 43.1519 121.465C42.4914 120.691 41.8806 119.91 41.3196 119.143C38.365 120.08 35.2116 120.584 31.9517 120.584C14.7572 120.584 0.773562 106.593 0.773562 89.4063C0.773562 72.2196 14.7579 58.2281 31.9517 58.2281L31.9506 58.2259ZM53.2288 112.175C55.4375 113.105 57.5612 113.567 59.5924 113.567C61.7515 113.567 63.8041 113.049 65.7359 112.004C66.5953 111.536 66.922 110.456 66.4532 109.597C65.9916 108.73 64.912 108.411 64.0456 108.88C61.581 110.208 58.8894 110.371 55.8638 109.377C55.047 110.364 54.1663 111.294 53.2288 112.175ZM88.3924 114.76C82.533 116.962 77.1708 117.118 72.0217 115.222C71.1055 114.888 70.0828 115.357 69.7419 116.28C69.401 117.196 69.8768 118.219 70.793 118.56C75.7148 120.371 80.7788 120.499 85.8356 119.263C86.6168 117.722 87.4692 116.216 88.3924 114.76ZM77.9379 130.456C78.3427 129.561 77.9521 128.51 77.0572 128.105C76.1623 127.7 75.1112 128.091 74.7063 128.986C72.3199 134.235 71.5457 140.683 72.3483 148.695C72.4406 149.611 73.2077 150.293 74.1097 150.293C74.1665 150.293 74.2304 150.286 74.2872 150.279C75.2673 150.179 75.9776 149.313 75.8781 148.34C75.1466 141.067 75.8427 135.051 77.9379 130.456ZM59.7773 128.624C61.901 130.463 63.1153 133.212 63.1153 136.166V155.321C63.1153 156.301 63.9108 157.097 64.8909 157.097C65.8781 157.097 66.6665 156.301 66.6665 155.321V136.166C66.6665 132.189 64.9974 128.46 62.0997 125.946C60.8853 124.895 59.7845 123.574 58.8256 122.019C58.3071 121.181 57.2133 120.925 56.3752 121.443C55.5371 121.962 55.2815 123.056 55.807 123.887C56.9647 125.747 58.3001 127.338 59.7773 128.624ZM75.6581 53.3821C76.2263 54.1775 77.3342 54.3693 78.1368 53.8011C78.9323 53.2329 79.124 52.125 78.5558 51.3295C76.1126 47.892 72.0644 45.9815 67.8173 46.0667C68.7406 40.8253 68.8968 34.9587 68.2931 28.2187C68.2079 27.2386 67.3485 26.5142 66.3684 26.6065C65.3883 26.6917 64.671 27.5582 64.7562 28.5383C65.3812 35.4914 65.1539 41.4289 64.0886 46.6562C58.6553 48.2826 55.1255 52.7925 54.8628 58.4389C54.813 59.4403 55.6156 60.2925 56.6383 60.2925C57.5829 60.2925 58.3642 59.5539 58.4068 58.6022C58.8471 49.2414 70.8499 46.6208 75.6581 53.3821ZM85.3313 75.1584C84.7916 74.3346 83.6836 74.1144 82.8739 74.6542C82.0571 75.1939 81.8298 76.3019 82.3696 77.1187C84.7773 80.7622 88.1367 82.2536 92.2702 81.6145C93.2361 81.4654 93.9037 80.5634 93.7617 79.5974C93.6125 78.6244 92.7034 77.9639 91.7375 78.106C88.9747 78.525 86.9364 77.5874 85.3313 75.1584ZM99.4364 86.6711C92.2133 92.3671 81.4323 88.2407 74.2092 81.8842C70.6224 84.3202 66.8015 85.9964 63.0161 86.7919C63.1581 88.4538 63.1652 90.2435 63.0232 91.8913C68.0872 92.7365 71.9294 94.8672 74.0388 97.8857C79.2661 91.0959 94.2024 89.3771 97.7315 97.8644C100.508 95.7124 100.999 89.9522 99.4364 86.6711ZM90.4308 132.673C91.3257 132.659 92.114 133.312 92.2348 134.207C94.0317 147.14 93.7405 161.096 91.3754 175.72H94.6354C97.1779 161.835 97.9025 146.863 96.7803 131.189C96.7448 130.713 96.9081 130.244 97.2207 129.889C103.492 122.83 101.51 112.268 96.7377 108.533C96.0417 110.017 95.2817 111.161 94.3868 112.361C93.8612 112.95 88.8755 119.279 85.8286 128.483C86.7022 131.487 87.6184 132.744 90.4308 132.673ZM31.9508 117.041C47.1852 117.041 59.5781 104.647 59.5781 89.4135C59.5781 74.1791 47.1846 61.7862 31.9508 61.7862C16.717 61.7862 4.32352 74.1797 4.32352 89.4135C4.32352 104.648 16.717 117.041 31.9508 117.041ZM14.1739 98.4899C14.4864 99.1007 15.1114 99.4558 15.7577 99.4558C17.0787 99.4558 17.9451 98.0495 17.3344 96.8705C14.0319 90.4572 15.2464 82.7229 20.3529 77.616C24.6853 73.2836 30.9069 71.7565 36.6171 73.4043L35.3387 73.5606C33.0235 73.8376 33.414 77.3675 35.7649 77.0833L41.738 76.366C42.7891 76.2381 43.4922 75.2296 43.2579 74.2069L41.8729 68.2196C41.6527 67.2608 40.701 66.6713 39.7422 66.8915C38.7834 67.1117 38.1939 68.0634 38.4141 69.0222L38.7266 70.3645C31.5035 67.8078 23.3927 69.562 17.8466 75.1089C11.6391 81.302 10.1681 90.6993 14.1739 98.4899ZM19.529 105.102L21.8941 110.635C22.1853 111.309 22.8387 111.714 23.5276 111.714C24.7918 111.714 25.6583 110.415 25.1611 109.243L24.6143 107.964C27.029 108.93 29.5503 109.413 32.0575 109.413C37.2564 109.413 42.3772 107.382 46.2479 103.511C52.4483 97.3108 53.9184 87.9146 49.9126 80.1239C48.8402 78.0359 45.6797 79.6622 46.7521 81.7503C50.0475 88.1636 48.833 95.9052 43.7335 101.005C39.0532 105.685 32.1639 107.092 26.1057 104.755L27.5475 104.314C28.485 104.03 29.0105 103.036 28.7264 102.098C28.4424 101.161 27.448 100.635 26.5104 100.92L20.6368 102.709C19.6354 103.015 19.1171 104.129 19.529 105.102Z" fill="#6D6DB5" stroke="#6D6DB5"/>
</svg>
