<svg width="200" height="201" viewBox="0 0 200 201" fill="none" xmlns="http://www.w3.org/2000/svg">
<path d="M25 123.162H175C177.301 123.162 179.168 125.029 179.168 127.33V134.76C179.168 137.061 177.301 138.928 175 138.928H25C22.6992 138.928 20.832 137.061 20.832 134.76V127.33C20.832 125.029 22.6992 123.162 25 123.162Z" fill="#6D6DB5"/>
<path d="M46.4414 192.615H79.5547V188.842C79.5547 184.873 82.7852 181.643 86.7539 181.643H92.1797V160.361C92.1797 159.607 92.793 158.994 93.5469 158.994C94.3008 158.994 94.9141 159.607 94.9141 160.361V166.932C96.6406 163.99 99.8359 162.018 103.492 162.018C104.078 162.018 104.621 162.189 105.082 162.482V155.482H61.5078C55.9297 155.482 51.3906 150.943 51.3906 145.365C51.3906 144.611 52.0039 143.998 52.7578 143.998C53.5117 143.998 54.125 144.611 54.125 145.365C54.125 149.436 57.4375 152.748 61.5078 152.748H138.488C142.559 152.748 145.871 149.436 145.871 145.365C145.871 144.611 146.484 143.998 147.238 143.998C147.992 143.998 148.605 144.611 148.605 145.365C148.605 150.943 144.066 155.482 138.488 155.482H107.82V181.646H113.246C117.215 181.646 120.445 184.877 120.445 188.846V192.619H153.559C154.312 192.619 154.926 193.232 154.926 193.986C154.926 194.74 154.312 195.354 153.559 195.354H46.4414C45.6875 195.354 45.0742 194.74 45.0742 193.986C45.0742 193.232 45.6875 192.615 46.4414 192.615ZM82.2891 192.615H117.711V188.842C117.711 186.381 115.707 184.377 113.246 184.377H86.7578C84.2969 184.377 82.293 186.381 82.293 188.842V192.615H82.2891Z" fill="#6D6DB5"/>
<path d="M153.559 7.84961H120.445V11.623C120.445 15.5918 117.215 18.8223 113.246 18.8223H107.82V27.2246C107.82 27.9785 107.207 28.5918 106.453 28.5918C105.699 28.5918 105.086 27.9785 105.086 27.2246V22.2324C103.344 25.2168 100.109 27.2246 96.4023 27.2246C95.8594 27.2246 95.3516 27.0684 94.918 26.8027V31.123H137.375C140.426 31.123 142.91 33.6035 142.91 36.6582V42.5098C142.91 45.5605 140.426 48.0449 137.375 48.0449H137.266C136.773 51.6348 134.375 54.6191 131.125 55.9473L139.02 60.1543C140.309 58.6113 142.246 57.623 144.41 57.623C148.285 57.623 151.434 60.7754 151.434 64.6465C151.434 68.5176 148.281 71.6699 144.41 71.6699C143.852 71.6699 143.313 71.5996 142.793 71.4746L138.012 76.2559L139.289 77.5332C139.969 78.2129 140.281 79.1426 140.148 80.0957C140.016 81.0449 139.461 81.8574 138.625 82.3262L122.824 91.1777L119.113 94.8887C118.848 95.1543 118.496 95.2871 118.148 95.2871C117.801 95.2871 117.449 95.1543 117.18 94.8848C116.645 94.3496 116.645 93.4863 117.18 92.9512L120.891 89.2402L129.742 73.4395C130.211 72.6035 131.023 72.0488 131.973 71.916C132.926 71.7832 133.855 72.0996 134.535 72.7754L136.078 74.3184L140.168 70.2285C138.48 68.9434 137.387 66.9199 137.387 64.6426C137.387 63.9121 137.5 63.209 137.707 62.5449L126.652 56.6504C121.91 56.3223 118.07 52.6816 117.43 48.0332H109.914C109.305 52.4629 105.793 55.9746 101.363 56.584V71.0684H103.359C104.316 71.0684 105.199 71.5059 105.777 72.2715C106.355 73.0371 106.539 74.002 106.277 74.9238L101.363 92.3574V97.6074C101.363 98.3613 100.75 98.9746 99.9961 98.9746C99.2422 98.9746 98.6289 98.3613 98.6289 97.6074V92.3574L93.7148 74.9238C93.4531 74.002 93.6367 73.0332 94.2148 72.2715C94.793 71.5059 95.6758 71.0684 96.6328 71.0684H98.6289V56.584C94.1992 55.9746 90.6875 52.4629 90.0781 48.0332H82.5625C81.9102 52.7949 77.8984 56.4941 73.0039 56.6699L61.9844 62.5449C62.1914 63.209 62.3047 63.9121 62.3047 64.6426C62.3047 66.9199 61.207 68.9434 59.5195 70.2285L63.6094 74.3184L65.1523 72.7754C65.832 72.0996 66.7617 71.7832 67.7148 71.916C68.6641 72.0488 69.4766 72.6035 69.9453 73.4395L78.7969 89.2402L82.5078 92.9512C83.043 93.4863 83.043 94.3496 82.5078 94.8848C82.2422 95.1504 81.8906 95.2832 81.5391 95.2832C81.1875 95.2832 80.8398 95.1504 80.5703 94.8848L76.8594 91.1738L61.0586 82.3223C60.2227 81.8535 59.668 81.041 59.5352 80.0918C59.4023 79.1426 59.7187 78.209 60.3945 77.5293L61.6719 76.252L56.8906 71.4707C56.3711 71.5957 55.832 71.666 55.2734 71.666C51.3984 71.666 48.25 68.5137 48.25 64.6426C48.25 60.7715 51.4023 57.6191 55.2734 57.6191C57.4375 57.6191 59.375 58.6035 60.6641 60.1504L68.6914 55.8691C65.5273 54.5059 63.207 51.5605 62.7227 48.0371H62.6133C59.5625 48.0371 57.0781 45.5566 57.0781 42.502V36.6582C57.0781 33.6074 59.5625 31.123 62.6133 31.123H92.168V18.8223H86.7422C82.7734 18.8223 79.543 15.5918 79.543 11.623V7.84961H46.4297C45.6758 7.84961 45.0625 7.23633 45.0625 6.48242C45.0625 5.72852 45.6758 5.11523 46.4297 5.11523H153.559C154.312 5.11523 154.926 5.72852 154.926 6.48242C154.926 7.23633 154.312 7.84961 153.559 7.84961ZM137.355 79.4707L135.113 77.2285L132.602 74.7207C132.531 74.6504 132.457 74.6309 132.395 74.6309C132.379 74.6309 132.363 74.6309 132.352 74.6348C132.285 74.6426 132.191 74.6777 132.133 74.7832L125.559 86.5176L137.293 79.9434C137.398 79.8848 137.434 79.791 137.441 79.7246C137.449 79.6582 137.441 79.5566 137.355 79.4707ZM141.367 67.6699C141.355 67.5254 141.34 67.3848 141.34 67.2363C141.34 64.1113 143.871 61.5801 146.996 61.5801C147.141 61.5801 147.285 61.5957 147.43 61.6074C146.652 60.8379 145.586 60.3574 144.406 60.3574C142.039 60.3574 140.117 62.2832 140.117 64.6465C140.121 65.8262 140.598 66.8965 141.367 67.6699ZM62.2578 79.7246C62.2656 79.791 62.3008 79.8848 62.4063 79.9434L74.1406 86.5176L67.5664 74.7832C67.5078 74.6777 67.4141 74.6426 67.3477 74.6348C67.332 74.6348 67.3203 74.6309 67.3047 74.6309C67.2422 74.6309 67.1641 74.6504 67.0977 74.7207L62.3438 79.4746C62.2539 79.5566 62.25 79.6582 62.2578 79.7246ZM55.2852 60.3574C54.1055 60.3574 53.0391 60.834 52.2617 61.6074C52.4062 61.5957 52.5469 61.5801 52.6953 61.5801C55.8203 61.5801 58.3516 64.1113 58.3516 67.2363C58.3516 67.3809 58.3359 67.5254 58.3242 67.6699C59.0937 66.8926 59.5742 65.8262 59.5742 64.6465C59.5781 62.2832 57.6523 60.3574 55.2852 60.3574ZM127.348 53.9512C130.895 53.9512 133.852 51.4004 134.492 48.041H120.203C120.844 51.4043 123.801 53.9512 127.348 53.9512ZM96.6367 73.8066C96.5117 73.8066 96.4375 73.873 96.3984 73.9238C96.3594 73.9746 96.3164 74.0684 96.3477 74.1855L100 87.1348L103.652 74.1855C103.688 74.0684 103.645 73.9785 103.602 73.9238C103.559 73.8691 103.484 73.8066 103.363 73.8066H96.6367ZM100 53.9512C103.547 53.9512 106.504 51.4004 107.145 48.041H92.8555C93.4961 51.4043 96.4531 53.9512 100 53.9512ZM72.6523 53.9512C76.1992 53.9512 79.1562 51.4004 79.7969 48.041H65.5078C66.1484 51.4043 69.1055 53.9512 72.6523 53.9512ZM62.625 33.8574C61.082 33.8574 59.8242 35.1113 59.8242 36.6582V42.5098C59.8242 44.0527 61.082 45.3105 62.625 45.3105H137.375C138.918 45.3105 140.176 44.0566 140.176 42.5098V36.6582C140.176 35.1152 138.918 33.8574 137.375 33.8574H62.625ZM117.711 7.84961H82.2891V11.623C82.2891 14.084 84.293 16.0879 86.7539 16.0879H113.242C115.703 16.0879 117.707 14.084 117.707 11.623V7.84961H117.711Z" fill="#6D6DB5"/>
</svg>
