<svg width="200" height="201" viewBox="0 0 200 201" fill="none" xmlns="http://www.w3.org/2000/svg">
<path d="M171.868 90.4071C169.895 88.9477 168.868 86.5693 169.165 84.1909C169.544 81.245 169.625 78.7044 169.435 76.7044C168.652 68.7585 162.922 53.4882 150.868 45.3261C150.841 43.3261 150.273 39.3531 146.868 34.8936C139.841 25.6774 125.084 19.6504 103.003 17.0017C85.6516 14.9477 71.3273 21.9207 59.8408 32.3801C58.7057 28.3531 56.4624 25.1098 53.3543 23.1369C48.6516 20.1098 42.5435 20.0017 36.1381 22.8666C30.03 25.5693 24.3273 30.7044 20.0841 37.3261C11.1111 51.218 11.2732 67.8125 20.8949 73.5152C26.976 77.1369 30.8138 75.7315 31.7057 75.6234C26.4895 93.8666 29.6246 113.434 40.8678 128.407C46.2192 135.488 53.03 141.218 61.1111 145.488C60.9219 150.813 59.6516 172.65 49.8949 186.407C49.3543 187.164 58.9759 184.758 63.3273 161.623C65.057 152.515 67.7057 143.596 71.7327 135.272C74.6246 129.353 77.03 121.083 75.9759 110.948C75.0841 102.326 77.1651 95.3801 82.003 90.8666C86.4624 86.7044 92.9219 85.0017 99.7057 86.1639C104.787 87.0288 107.408 90.8125 109.679 94.1369C111.489 96.7585 113.165 99.2179 115.895 99.5152C117.652 99.7044 119.462 98.9206 121.408 97.1098C123.787 94.8936 125.327 91.7044 125.679 88.1098C126.165 83.245 127.868 74.6234 133.949 71.3531C134.435 71.1098 134.868 70.8125 135.273 70.5423C135.3 70.9207 135.381 71.299 135.625 71.6504C136.165 72.4071 136.733 73.1639 137.327 73.8936C137.706 74.4071 138.3 74.6774 138.895 74.6774C139.354 74.6774 139.787 74.5152 140.165 74.2179C141.057 73.5152 141.192 72.245 140.489 71.3801C139.976 70.7044 139.435 70.0017 138.949 69.299C138.598 68.8125 138.057 68.5153 137.516 68.4612C139.544 66.0288 140.544 62.8125 140.327 59.0288C140.057 54.272 143.138 50.1639 148.003 48.8125C148.165 48.7585 148.327 48.7044 148.516 48.6504C158.895 55.6234 164.625 69.3531 165.381 77.0828C165.544 78.5153 165.462 80.3801 165.273 82.5152C165.03 82.7044 164.895 82.7855 164.679 82.9747C163.273 82.8666 162.273 84.0828 162.489 85.3531C162.679 86.3261 163.544 87.0288 164.489 87.0288C164.625 87.0288 164.733 87.0017 164.868 87.0017C165.003 86.9747 165.111 86.9207 165.246 86.8936C165.733 89.5423 167.192 92.0017 169.435 93.6774C180.814 102.137 183.138 106.488 183.057 108.65C183.03 110.38 181.165 111.461 178.679 113.38C176.976 114.677 173.652 117.84 173.354 120.083C173.03 122.623 174.462 124.326 174.598 124.488C175.868 125.948 176.435 127.272 176.273 128.38C176.057 129.894 174.516 131.056 173.625 131.623C172.787 132.164 172.3 133.056 172.273 134.029C172.273 135.029 172.76 135.948 173.571 136.515C174.408 137.083 175.057 138.164 174.976 138.84C174.949 139.218 174.544 139.542 173.841 139.813C172.03 140.515 170.679 141.731 169.949 143.38C168.679 146.299 169.625 149.569 169.976 150.542C170.571 155.272 169.652 158.596 167.273 160.461C166.219 161.272 165.246 162.542 159.814 162.434C155.598 162.461 143.462 158.299 141.922 157.84C141.922 157.813 141.895 157.813 141.895 157.813C121.544 152.894 107.598 133.758 107.652 134.894C107.733 136.38 108.273 137.894 109.138 139.434C116.246 151.948 120.003 166.245 117.706 180.461C116.922 185.245 117.273 188.569 117.408 188.218C122.544 172.894 127.679 164.245 133.111 161.758C135.544 160.65 140.571 161.65 140.598 161.65C142.03 161.867 155.733 166.299 161.219 166.488C163.462 166.569 165.571 167.029 169.787 163.65C173.381 160.786 174.814 156.137 173.976 149.786C173.949 149.65 172.219 144.786 175.273 143.623C178.246 142.488 178.895 140.434 179.03 139.326C179.246 137.38 178.3 135.488 177.057 134.164C178.544 133.002 179.949 131.272 180.3 128.975C180.652 126.623 179.76 124.218 177.652 121.813C177.652 121.813 177.3 121.299 177.381 120.596C177.516 119.596 179.868 117.569 180.922 116.786C183.544 114.84 187.03 112.731 187.138 108.758C187.273 104.029 182.544 98.3531 171.868 90.4071Z" fill="#6D6DB5"/>
<path d="M157.437 118.678L155.248 117.219C154.302 116.597 153.058 116.868 152.437 117.786C151.815 118.732 152.058 119.976 153.004 120.597L155.194 122.057C155.545 122.3 155.923 122.408 156.329 122.408C156.977 122.408 157.626 122.084 158.031 121.489C158.626 120.543 158.383 119.3 157.437 118.678Z" fill="#6D6DB5"/>
<path d="M152.11 136.298L154.137 137.65C154.164 137.65 154.326 137.785 154.353 137.785C154.677 137.974 155.029 138.082 155.353 138.082C156.029 138.082 156.65 137.731 157.056 137.109C157.65 136.163 157.299 134.893 156.38 134.271L154.353 132.92C153.434 132.298 152.164 132.569 151.542 133.488C150.921 134.407 151.164 135.677 152.11 136.298Z" fill="#6D6DB5"/>
<path d="M162.95 127.678C163.328 128.272 164.004 128.596 164.652 128.596C165.031 128.596 165.409 128.488 165.76 128.272C166.706 127.651 166.977 126.407 166.355 125.461C165.733 124.515 164.95 123.705 164.004 123.056C163.085 122.407 161.814 122.623 161.166 123.569C160.517 124.488 160.76 125.759 161.679 126.407C162.193 126.732 162.625 127.164 162.95 127.678Z" fill="#6D6DB5"/>
<path d="M122.517 106.921C121.436 106.732 120.355 107.435 120.139 108.516C120.031 109.084 119.977 109.651 119.977 110.219C119.977 110.786 120.031 111.354 120.139 111.894C120.328 112.867 121.166 113.543 122.139 113.543C122.274 113.543 122.382 113.543 122.517 113.516C123.625 113.3 124.355 112.246 124.139 111.138C124.085 110.84 124.058 110.543 124.058 110.219C124.058 109.921 124.085 109.597 124.139 109.3C124.355 108.219 123.625 107.138 122.517 106.921Z" fill="#6D6DB5"/>
<path d="M161.138 137.029C161.544 137.596 162.165 137.921 162.814 137.921C163.219 137.921 163.598 137.813 163.949 137.569C164.895 136.921 165.679 136.11 166.355 135.11L166.382 135.056C166.976 134.11 166.679 132.894 165.733 132.299C164.787 131.705 163.544 131.975 162.922 132.921C162.571 133.434 162.138 133.867 161.652 134.218C160.733 134.84 160.49 136.11 161.138 137.029Z" fill="#6D6DB5"/>
<path d="M125.948 118.947L128.137 120.406C128.488 120.65 128.867 120.758 129.272 120.758C129.921 120.758 130.569 120.433 130.975 119.839C131.596 118.893 131.353 117.65 130.407 117.028L128.218 115.568C127.272 114.947 126.029 115.217 125.407 116.136C124.758 117.055 125.029 118.325 125.948 118.947Z" fill="#6D6DB5"/>
<path d="M143.381 130.515L145.57 131.975C145.922 132.218 146.3 132.326 146.706 132.326C147.354 132.326 148.003 132.002 148.408 131.407C149.03 130.461 148.787 129.218 147.841 128.596L145.652 127.137C144.706 126.515 143.462 126.785 142.841 127.704C142.192 128.623 142.462 129.894 143.381 130.515Z" fill="#6D6DB5"/>
<path d="M137.841 105.65C136.895 105.029 135.652 105.299 135.031 106.218C134.409 107.164 134.652 108.407 135.598 109.029L137.787 110.488C138.139 110.732 138.517 110.84 138.922 110.84C139.571 110.84 140.22 110.515 140.625 109.921C141.247 108.975 141.004 107.732 140.058 107.11L137.841 105.65Z" fill="black"/>
<path d="M130.246 101.541C129.111 101.352 127.975 101.406 126.867 101.65C125.759 101.893 125.084 102.974 125.327 104.082C125.543 105.028 126.381 105.677 127.3 105.677C127.435 105.677 127.597 105.65 127.732 105.623C128.327 105.487 128.948 105.46 129.543 105.569C130.651 105.731 131.705 105.001 131.894 103.893C132.111 102.785 131.354 101.731 130.246 101.541Z" fill="black"/>
<path d="M134.113 121.92C133.491 122.866 133.734 124.11 134.68 124.731L136.869 126.164C137.221 126.407 137.599 126.515 138.004 126.515C138.653 126.515 139.302 126.191 139.707 125.596C140.329 124.65 140.086 123.407 139.14 122.785L136.95 121.353C136.004 120.731 134.734 120.974 134.113 121.92Z" fill="black"/>
<path d="M146.544 111.435C145.599 110.813 144.355 111.056 143.734 112.002C143.112 112.948 143.355 114.192 144.301 114.813L146.49 116.273C146.842 116.516 147.22 116.624 147.626 116.624C148.274 116.624 148.923 116.3 149.328 115.705C149.95 114.759 149.707 113.516 148.761 112.894L146.544 111.435Z" fill="black"/>
<path d="M140.165 144.894C139.165 144.408 137.949 144.813 137.435 145.84C136.949 146.84 137.354 148.056 138.381 148.57L140.598 149.651C140.895 149.786 141.192 149.867 141.489 149.867C142.246 149.867 142.976 149.435 143.327 148.732C143.814 147.732 143.408 146.516 142.381 146.002L140.165 144.894Z" fill="black"/>
<path d="M131.301 140.595C130.301 140.109 129.085 140.514 128.571 141.541C128.085 142.541 128.517 143.758 129.517 144.271L131.733 145.352C132.031 145.487 132.328 145.568 132.625 145.568C133.382 145.568 134.112 145.136 134.463 144.433C134.95 143.433 134.544 142.217 133.517 141.704L131.301 140.595Z" fill="black"/>
<path d="M146.329 150.165C145.843 151.165 146.275 152.381 147.275 152.894L149.491 153.975C149.789 154.111 150.086 154.192 150.383 154.192C151.14 154.192 151.87 153.759 152.221 153.056C152.708 152.056 152.275 150.84 151.275 150.327L149.059 149.246C148.032 148.732 146.816 149.138 146.329 150.165Z" fill="black"/>
<path d="M119.218 139.785C119.407 140.893 120.488 141.622 121.596 141.433C122.137 141.325 122.731 141.325 123.299 141.433C123.434 141.46 123.569 141.46 123.677 141.46C124.623 141.46 125.488 140.785 125.677 139.812C125.893 138.704 125.164 137.65 124.055 137.433C122.974 137.217 121.893 137.217 120.866 137.406C119.731 137.595 119.001 138.677 119.218 139.785Z" fill="black"/>
<path d="M158.869 153.975L157.95 153.515C156.95 153.029 155.734 153.434 155.22 154.461C154.734 155.461 155.139 156.678 156.166 157.191L157.085 157.624C157.383 157.759 157.68 157.948 157.95 158.137C158.329 158.434 158.761 158.569 159.193 158.569C159.788 158.569 160.41 158.299 160.815 157.786C161.491 156.894 161.329 155.624 160.464 154.921C159.95 154.569 159.41 154.245 158.869 153.975Z" fill="black"/>
<path d="M156.894 82.7586C156.11 82.5694 155.3 82.3532 154.516 82.0559C153.462 81.6776 152.3 82.2181 151.921 83.2992C151.543 84.3532 152.083 85.5154 153.164 85.8938C154.11 86.2181 155.056 86.5154 156.002 86.7316C156.164 86.7586 156.3 86.7857 156.462 86.7857C157.381 86.7857 158.218 86.137 158.435 85.2181C158.651 84.11 157.975 83.0289 156.894 82.7586Z" fill="black"/>
<path d="M145.868 76.9211C145.003 76.1914 143.733 76.2995 143.003 77.1643C142.273 78.0292 142.382 79.2995 143.246 80.0292C143.976 80.6508 144.733 81.2454 145.49 81.786C145.841 82.0562 146.273 82.1643 146.679 82.1643C147.3 82.1643 147.922 81.867 148.327 81.3265C148.976 80.4076 148.787 79.1373 147.868 78.4887C147.192 78.0022 146.517 77.4887 145.868 76.9211Z" fill="black"/>
</svg>
