<svg width="172" height="165" viewBox="0 0 172 165" fill="none" xmlns="http://www.w3.org/2000/svg">
<path fill-rule="evenodd" clip-rule="evenodd" d="M47.7498 77.8929C46.4571 79.1855 45.3988 80.6841 44.5679 82.3887C42.8421 78.8376 40.1219 76.2098 36.5281 74.5123C40.1219 72.8149 42.8421 70.187 44.5679 66.636C46.2938 70.187 49.0139 72.8149 52.6078 74.5123C50.7399 75.393 49.1205 76.5221 47.7498 77.8929ZM46.4287 88.4041C48.9004 97.978 49.0211 108.07 49.8449 118.568C50.3492 125.073 53.5524 136.48 58.2966 146.188C61.8335 153.411 66.1729 159.611 70.7753 161.919C74.0707 163.567 82.9557 166.138 84.6815 161.656C86.7269 156.351 86.1445 143.652 85.8391 138.084C85.0437 123.311 88.4953 113.646 93.183 109.164C97.5082 105.037 103.005 105.037 107.331 109.164C112.025 113.645 115.477 123.311 114.674 138.084C114.376 143.645 113.787 156.358 115.832 161.656C117.558 166.138 126.443 163.567 129.738 161.919C134.348 159.611 138.687 153.411 142.217 146.188C146.968 136.486 150.164 125.073 150.669 118.568C152.039 101.061 151.287 90.1169 160.377 72.1896C164.852 63.3756 169.22 54.5618 170.818 45.7478C172.38 37.1185 171.286 28.3543 164.994 19.3205C151.102 -0.630411 131.343 7.52359 111.543 15.6912C96.0743 22.0761 80.5703 28.4681 66.983 22.5236C66.0668 22.1259 65.6478 21.0534 66.0455 20.1372C66.4432 19.221 67.5157 18.802 68.4319 19.1997C76.4219 22.6941 85.527 21.2806 95.0155 18.1699C92.9913 17.3602 90.9671 16.5293 88.9502 15.6912C69.1484 7.52352 49.3902 -0.629939 35.4993 19.3204C29.363 28.1344 28.177 36.6855 29.569 45.1095C30.8829 53.0499 34.4908 60.969 38.4539 68.895C40.684 66.8282 42.1897 63.8595 42.7579 60.2728C43.0846 58.2273 46.0108 58.2344 46.3446 60.2444C47.5236 67.2969 51.7708 71.402 58.8446 72.7302C60.8261 73.0995 60.819 75.9191 58.873 76.3026C51.927 77.652 47.7144 81.4796 46.4287 88.4041ZM56.0238 40.115C54.7312 41.4077 53.6729 42.9063 52.842 44.6109C51.1162 41.0598 48.396 38.432 44.8022 36.7345C48.396 35.0371 51.1162 32.4092 52.842 28.8581C54.5679 32.4092 57.288 35.037 60.8818 36.7345C59.0069 37.6223 57.3875 38.7443 56.0238 40.115ZM54.6318 50.9816C54.3264 53.0058 51.386 53.0412 51.0451 51.01C49.8661 43.9575 45.6189 39.8524 38.5451 38.5242C36.5636 38.1549 36.5707 35.3353 38.5167 34.9518C45.5479 33.5811 49.9158 29.5825 51.045 22.4944C51.3717 20.4489 54.2908 20.456 54.6317 22.466C55.8107 29.5185 60.0579 33.6236 67.1318 34.9518C69.1132 35.3211 69.1061 38.1407 67.1602 38.5241C60.058 39.902 55.832 43.858 54.6318 50.9816ZM22.1809 22.6089C19.8087 24.981 17.8627 27.7367 16.3429 30.8689C13.1823 24.349 8.18235 19.5265 1.58435 16.4016C8.18235 13.2838 13.1823 8.46123 16.3429 1.94141C19.5034 8.46123 24.5034 13.2838 31.1014 16.4016C27.6711 18.028 24.6951 20.0945 22.1809 22.6089ZM136.861 19.4696C152.323 16.2594 161.612 29.4483 159.048 43.6096L157.116 52.949C156.577 55.2785 153.04 54.4547 153.579 52.1252L155.476 42.9632C157.557 31.4788 150.604 20.3141 137.592 23.0123C135.263 23.5094 134.524 19.9596 136.861 19.4696Z" fill="#6D6DB5" stroke="#6D6DB5"/>
</svg>
