<svg width="150" height="173" viewBox="0 0 150 173" fill="none" xmlns="http://www.w3.org/2000/svg">
<path d="M5.48645 39.2688C8.72863 31.3392 13.4161 24.386 19.4318 18.5853C25.3497 12.8626 32.3419 8.48759 40.213 5.57744C48.4943 2.51103 57.5763 1.12431 67.2052 1.45635C85.4669 2.10088 100.233 5.88994 111.111 12.7063C125.447 21.7103 132.693 35.7727 132.615 54.5423C132.615 55.011 132.635 55.5384 132.674 56.0852C132.733 57.1985 132.791 58.4485 132.693 59.972L131.873 67.7259C131.873 68.9173 131.912 69.7767 131.951 70.2063L147.342 91.7493C149.1 93.7806 149.51 96.6517 148.397 99.0931C147.967 100.031 147.322 100.87 146.541 101.534C145.76 102.199 144.822 102.667 143.807 102.921L137.44 104.601H137.42C137.205 104.659 136.99 104.718 136.776 104.816C136.776 104.855 136.795 104.874 136.795 104.913C136.912 105.46 137.029 106.085 137.147 106.73L137.166 106.847L137.557 113.605L137.518 113.8C137.303 115.206 136.697 116.183 135.721 116.71C135.272 116.945 134.705 117.199 134.002 117.452L134.94 117.745L134.998 117.765C135.252 117.843 137.44 118.683 138.201 120.988C138.768 122.726 138.318 124.659 136.893 126.749C136.131 127.863 136.463 129.132 137.186 131.456C137.479 132.394 137.811 133.449 138.026 134.562C138.475 136.788 138.826 141.027 136.268 144.464C134.256 147.159 130.916 148.742 126.346 149.171C123.768 149.406 120.994 149.171 118.065 148.937C108.963 148.175 100.35 147.452 96.5802 159.757C95.3497 163.722 94.2755 167.199 93.3575 170.089L92.7521 172.023L74.4318 165.48C74.5685 164.913 74.7443 164.269 74.92 163.585C75.0763 162.999 75.2521 162.355 75.4279 161.691C78.8458 149.074 86.756 123.175 95.4083 118.195C102.908 113.878 113.24 116.339 118.729 119.699L122.088 112.863C119.022 111.32 114.393 109.816 107.322 108.722C91.1115 106.202 85.3497 116.046 84.4318 118.781C84.4318 118.8 84.4122 118.839 84.4122 118.859C84.0021 120.031 82.2443 119.64 82.381 118.409C84.0997 102.941 98.4943 100.675 102.947 101.046C107.693 101.437 113.201 104.406 123.475 101.652C125.818 101.027 127.733 100.831 129.295 100.909L132.186 94.9915C128.865 90.2454 126.092 84.7181 120.662 82.0423C115.291 79.4056 104.139 76.222 99.0021 80.1087C93.8654 83.9954 92.4396 88.1556 87.7521 89.8548C83.0646 91.5735 76.3654 89.9329 76.2677 105.695C76.1896 117.843 65.9552 140.48 59.2755 155.929C59.0021 156.534 58.7482 157.14 58.4943 157.726C58.2404 158.331 57.9669 158.937 57.7325 159.523L17.3029 145.07L18.0255 143.195C24.7638 125.949 25.838 116.652 15.0568 103.8C10.4669 98.3313 6.91223 92.2571 4.45129 85.7142C1.91223 78.9368 0.623174 71.8274 0.623174 64.5618C0.603642 55.6556 2.24426 47.1595 5.48645 39.2688ZM107.713 36.2024L110.682 33.6634C108.768 31.4173 106.58 29.347 104.158 27.5306L101.795 30.6556C104.002 32.3157 105.994 34.1712 107.713 36.2024ZM95.838 26.9056L97.6349 23.4485C89.1779 19.0345 78.4943 16.5931 65.9357 16.2024L65.8185 20.1087C77.8107 20.4798 87.9083 22.7649 95.838 26.9056ZM47.2052 92.8431C51.795 97.5696 57.0489 100.109 59.6857 100.109C62.1466 100.109 64.2365 99.1712 65.5841 97.472C67.0294 95.6556 67.4591 93.1556 66.795 90.4407C65.4083 84.6985 64.9982 80.8704 64.9982 78.3704C64.9982 75.2259 65.6427 74.1321 65.8575 73.8782L66.5216 73.6829L66.8536 72.7649C67.381 71.3001 67.6544 69.7571 67.6544 68.1946C67.6544 64.0931 66.17 60.4407 63.4943 57.8821C60.6818 55.2063 56.6974 53.9368 51.9708 54.1907C48.2208 54.386 44.7833 55.8704 42.2638 58.3509C39.6661 60.929 38.1622 64.3665 37.9083 68.3313V68.3899C37.5568 80.3431 42.7716 88.2728 47.2052 92.8431Z" fill="#6D6DB5" stroke="#6D6DB5"/>
</svg>
