<svg width="219" height="219" viewBox="0 0 219 219" fill="none" xmlns="http://www.w3.org/2000/svg">
<path d="M173.181 213.228C174.794 208.607 187.7 171.285 186.915 151.491C186.479 138.89 186.261 114.518 184.779 92.1509C184.34 92.1409 182.421 92.0973 182.86 92.1073C170.178 91.8165 162.827 88.6019 156.962 78.5477C149.36 65.1686 149.192 48.1764 157.878 34.5117C142.387 34.5117 123.451 29.7053 118.856 15.0661V4.42773H77.392V15.0661C71.2008 34.5117 40.55 34.6425 40.55 34.6425C40.55 34.6425 23.2408 31.5469 16.6572 53.9137C10.03 76.3677 10.03 130.432 9.2452 151.491C8.4604 172.637 23.1536 213.708 23.1536 213.708L40.0704 177.215C40.0704 177.215 32.6148 163.437 35.4052 145.866C38.1956 128.339 40.8988 107.978 40.8988 107.978C40.8988 107.978 55.5484 147.261 48.616 162.042C41.5964 176.866 40.0704 177.215 40.0704 177.215C40.0704 177.215 40.0373 177.38 39.9871 177.63L39.9902 177.612L39.9775 177.64C39.9775 177.637 39.9832 177.606 39.9832 177.606C39.7765 178.052 22.3143 215.783 23.4104 213.414C23.3276 213.514 23.2268 213.598 23.1536 213.708H23.2748L23.0926 214.1C23.1043 214.087 23.1148 214.074 23.1266 214.06L23.1091 214.099C23.2391 213.969 23.3271 213.839 23.4566 213.708H172.836C172.905 213.784 172.966 213.864 173.036 213.939L172.929 213.708H173.006C172.963 213.665 172.919 213.621 172.876 213.577C172.87 213.571 172.865 213.565 172.859 213.559L172.748 213.318L172.875 213.445L173.006 213.708C173.006 213.708 173.006 213.665 173.05 213.621C173.268 213.926 173.486 214.187 173.748 214.448L173.181 213.272V213.228ZM39.8105 178.685C39.8101 178.69 39.8092 178.691 39.8088 178.697C39.7652 178.958 39.7495 179.02 39.8105 178.685ZM156.177 177.533V177.476C156.133 177.302 156.133 177.215 156.133 177.215C156.133 177.215 154.651 176.866 147.588 162.042C140.612 147.261 155.348 107.978 155.348 107.978C155.348 107.978 158.008 128.339 160.755 145.866C163.545 163.437 156.133 177.215 156.133 177.215L157.136 179.351V179.437C157.136 179.505 157.158 179.587 157.17 179.678L156.177 177.533Z" fill="#D49E7A"/>
<path d="M160.756 76.3667C164.993 83.7796 170.341 87.7899 184.474 87.7899C183.851 78.3967 182.232 62.9261 179.548 53.9127C176.973 45.2114 171.435 36.9998 162.674 35.1211C156.147 41.6685 151.977 60.9541 160.756 76.3667Z" fill="#F2C280"/>
</svg>
