<svg width="179" height="211" viewBox="0 0 179 211" fill="none" xmlns="http://www.w3.org/2000/svg">
<path d="M164.677 209.156C166.291 204.534 179.196 167.213 178.411 147.418C177.975 134.818 177.757 110.445 176.275 88.0787C175.836 88.0686 173.917 88.025 174.356 88.0351C161.675 87.7443 154.323 84.5296 148.458 74.4755C140.856 61.0964 140.688 44.1041 149.374 30.4395C133.883 30.4395 114.947 25.633 110.352 10.9939V0.355469H68.8881V10.9939C62.6969 30.4395 32.0461 30.5703 32.0461 30.5703C32.0461 30.5703 14.7369 27.4747 8.15329 49.8415C1.52609 72.2955 1.52609 126.359 0.741293 147.418C-0.0435072 168.564 14.6497 209.635 14.6497 209.635L31.5665 173.142C31.5665 173.142 24.1109 159.365 26.9013 141.794C29.6917 124.267 32.3949 103.905 32.3949 103.905C32.3949 103.905 47.0445 143.189 40.1121 157.969C33.0925 172.793 31.5665 173.142 31.5665 173.142C31.5665 173.142 31.5334 173.308 31.4832 173.558L31.4863 173.54L31.4736 173.568C31.4736 173.565 31.4793 173.533 31.4793 173.533C31.2726 173.98 13.8104 211.711 14.9065 209.342C14.8237 209.442 14.7229 209.526 14.6497 209.635H14.7709L14.5887 210.027C14.6004 210.015 14.6109 210.001 14.6227 209.988L14.6052 210.027C14.7352 209.897 14.8232 209.766 14.9527 209.636H164.332C164.401 209.711 164.462 209.792 164.532 209.867L164.425 209.636H164.502C164.459 209.592 164.415 209.549 164.372 209.505C164.366 209.499 164.361 209.492 164.356 209.486L164.244 209.246L164.371 209.373L164.502 209.636C164.502 209.636 164.502 209.592 164.546 209.549C164.764 209.853 164.982 210.115 165.244 210.376L164.677 209.2V209.156ZM31.3066 174.612C31.3062 174.618 31.3053 174.619 31.3049 174.625C31.2613 174.886 31.2456 174.948 31.3066 174.612ZM147.673 173.461V173.404C147.629 173.229 147.629 173.142 147.629 173.142C147.629 173.142 146.147 172.793 139.084 157.969C132.108 143.189 146.844 103.905 146.844 103.905C146.844 103.905 149.504 124.267 152.251 141.794C155.041 159.365 147.629 173.142 147.629 173.142L148.632 175.278V175.365C148.632 175.433 148.654 175.515 148.666 175.606L147.673 173.461Z" fill="#D49E7A"/>
</svg>
