<svg width="100" height="100" viewBox="0 0 100 100" fill="none" xmlns="http://www.w3.org/2000/svg">
<path d="M39.4753 34.0651C41.3326 34.0651 43.1188 34.3918 44.7736 34.9955C45.8496 33.2767 52.0499 27.4457 52.0499 16.3555V6.34091C52.0499 5.85085 52.4476 5.45312 52.9376 5.45312H67.3095C67.8031 5.45312 68.1972 5.85085 68.1972 6.34091V21.3055C68.0126 25.3537 68.7903 28.0206 70.644 29.7039C77.3805 34.9276 76.9011 43.4394 74.4863 46.9266C76.1341 49.3946 75.6937 54.384 72.7179 55.7299C72.7214 56.2519 72.6504 56.8343 72.4906 57.4842C75.985 59.6433 77.377 66.2733 73.6909 70.7833C74.2449 78.9118 73.8187 86.6778 72.4267 93.866C72.345 94.285 71.9792 94.5869 71.5531 94.5869H68.1405C67.5865 94.5869 67.171 94.0897 67.2669 93.5464C68.5275 86.3128 68.7583 79.4091 67.9558 73.021C66.8869 72.8789 66.1767 72.3889 65.6902 71.7852C65.2392 73.7738 65.0048 75.8157 65.0048 77.8647V93.6992C65.0048 94.1893 64.6071 94.587 64.117 94.587H51.5852C51.0951 94.587 50.6974 94.1893 50.6974 93.6992V78.1383C49.9268 73.2626 48.0376 69.0758 45.076 65.6847C44.7457 65.2976 44.4403 64.907 44.1598 64.5235C42.6825 64.9923 41.1058 65.2444 39.4759 65.2444C30.8786 65.2444 23.8868 58.2487 23.8868 49.6553C23.8868 41.0619 30.879 34.0662 39.4759 34.0662L39.4753 34.0651ZM50.1144 61.0396C51.2188 61.5048 52.2806 61.7356 53.2962 61.7356C54.3758 61.7356 55.402 61.4764 56.3679 60.9544C56.7976 60.72 56.961 60.1802 56.7266 59.7506C56.4958 59.3173 55.956 59.1575 55.5228 59.3919C54.2905 60.056 52.9447 60.1376 51.4319 59.6405C51.0235 60.1341 50.5831 60.5993 50.1144 61.0396ZM67.6962 62.3323C64.7665 63.4331 62.0854 63.5113 59.5109 62.5631C59.0528 62.3962 58.5414 62.6306 58.3709 63.0922C58.2005 63.5503 58.4384 64.0617 58.8965 64.2321C61.3574 65.1377 63.8894 65.2016 66.4178 64.5837C66.8084 63.8131 67.2346 63.0603 67.6962 62.3323ZM62.4689 70.1803C62.6714 69.7328 62.476 69.2073 62.0286 69.0048C61.5812 68.8024 61.0556 68.9977 60.8531 69.4452C59.66 72.0694 59.2729 75.2939 59.6741 79.2997C59.7203 79.7578 60.1038 80.0987 60.5548 80.0987C60.5832 80.0987 60.6152 80.0952 60.6436 80.0916C61.1337 80.0419 61.4888 79.6087 61.4391 79.1222C61.0733 75.4858 61.4214 72.4778 62.4689 70.1803ZM53.3887 69.2641C54.4505 70.1838 55.0577 71.5581 55.0577 73.0354V82.6126C55.0577 83.1027 55.4554 83.5004 55.9455 83.5004C56.4391 83.5004 56.8332 83.1027 56.8332 82.6126V73.0354C56.8332 71.0467 55.9987 69.1824 54.5499 67.9253C53.9426 67.3997 53.3922 66.7392 52.9128 65.9615C52.6535 65.5424 52.1067 65.4146 51.6876 65.6738C51.2686 65.933 51.1407 66.4799 51.4035 66.8954C51.9823 67.8258 52.65 68.6213 53.3887 69.2641ZM61.329 31.6432C61.6131 32.0409 62.1671 32.1368 62.5684 31.8527C62.9661 31.5686 63.062 31.0146 62.7779 30.6169C61.5563 28.8982 59.5322 27.9429 57.4086 27.9855C57.8703 25.3648 57.9484 22.4315 57.6466 19.0615C57.604 18.5715 57.1743 18.2092 56.6842 18.2554C56.1942 18.298 55.8355 18.7313 55.8781 19.2213C56.1906 22.6979 56.077 25.6666 55.5443 28.2802C52.8277 29.0934 51.0627 31.3484 50.9314 34.1716C50.9065 34.6723 51.3078 35.0984 51.8192 35.0984C52.2915 35.0984 52.6821 34.7291 52.7034 34.2532C52.9236 29.5729 58.9249 28.2625 61.329 31.6432ZM66.1657 42.5314C65.8958 42.1194 65.3418 42.0093 64.9369 42.2792C64.5286 42.5491 64.4149 43.1031 64.6848 43.5115C65.8886 45.3332 67.5684 46.079 69.6351 45.7594C70.118 45.6848 70.4519 45.2339 70.3808 44.7509C70.3063 44.2644 69.8517 43.9341 69.3687 44.0051C67.9874 44.2146 66.9682 43.7458 66.1657 42.5314ZM73.2182 48.2877C69.6067 51.1357 64.2161 49.0725 60.6046 45.8943C58.8112 47.1123 56.9008 47.9504 55.008 48.3481C55.0791 49.1791 55.0826 50.0739 55.0116 50.8978C57.5436 51.3204 59.4647 52.3857 60.5194 53.895C63.133 50.5001 70.6012 49.6407 72.3658 53.8843C73.7542 52.8083 73.9995 49.9283 73.2182 48.2877ZM68.7154 71.2886C69.1628 71.2815 69.557 71.6082 69.6174 72.0557C70.5158 78.5223 70.3702 85.5002 69.1877 92.812H70.8177C72.089 85.8696 72.4512 78.3839 71.8902 70.5466C71.8724 70.3087 71.9541 70.0743 72.1103 69.8967C75.246 66.3669 74.2552 61.0864 71.8689 59.2185C71.5208 59.9607 71.1409 60.5325 70.6934 61.1326C70.4306 61.4274 67.9378 64.5915 66.4143 69.1937C66.8511 70.6958 67.3092 71.3242 68.7154 71.2886ZM39.4754 63.4725C47.0926 63.4725 53.289 57.2758 53.289 49.6589C53.289 42.0417 47.0923 35.8453 39.4754 35.8453C31.8585 35.8453 25.6618 42.042 25.6618 49.6589C25.6618 57.2761 31.8585 63.4725 39.4754 63.4725ZM30.5869 54.1971C30.7432 54.5025 31.0557 54.68 31.3788 54.68C32.0394 54.68 32.4726 53.9769 32.1672 53.3874C30.5159 50.1808 31.1232 46.3136 33.6765 43.7601C35.8427 41.5939 38.9535 40.8304 41.8086 41.6543L41.1694 41.7324C40.0117 41.8709 40.207 43.6359 41.3824 43.4938L44.369 43.1351C44.8945 43.0712 45.2461 42.567 45.1289 42.0556L44.4365 39.062C44.3264 38.5826 43.8505 38.2878 43.3711 38.3979C42.8917 38.508 42.5969 38.9838 42.707 39.4633L42.8633 40.1344C39.2517 38.8561 35.1964 39.7331 32.4233 42.5066C29.3196 45.6031 28.584 50.3018 30.5869 54.1971ZM33.2645 57.5032L34.447 60.2695C34.5926 60.6069 34.9193 60.8093 35.2638 60.8093C35.8959 60.8093 36.3292 60.1595 36.0806 59.5735L35.8071 58.9343C37.0145 59.4172 38.2751 59.6587 39.5288 59.6587C42.1282 59.6587 44.6886 58.6431 46.6239 56.7077C49.7241 53.6075 50.4592 48.9095 48.4563 45.0141C47.9201 43.9701 46.3399 44.7833 46.876 45.8273C48.5238 49.0339 47.9165 52.9047 45.3668 55.4546C43.0266 57.7947 39.5819 58.4979 36.5529 57.3296L37.2737 57.1094C37.7425 56.9674 38.0053 56.4702 37.8632 56.0014C37.7212 55.5326 37.224 55.2699 36.7552 55.4119L33.8184 56.3068C33.3177 56.4595 33.0585 57.0167 33.2645 57.5032Z" fill="#347C75" stroke="#347C75"/>
</svg>
