<svg width="100" height="82" viewBox="0 0 100 82" fill="none" xmlns="http://www.w3.org/2000/svg">
<path d="M59.8931 30.4838C60.2164 30.841 60.3288 31.772 59.8156 33.3459C56.6746 33.9071 53.9224 36.3622 52.9614 39.6936C52.1794 42.352 51.75 42.89 51.7043 42.9425C51.7095 42.9344 51.1571 43.3665 48.5183 43.9936C45.3439 44.7515 42.7529 47.4539 41.9452 50.6615C40.3786 51.0897 39.4822 50.9125 39.1589 50.5553C38.8373 50.2 38.7208 49.2781 39.2258 47.708C39.3018 47.6936 39.3733 47.6652 39.4487 47.6488C39.6363 47.6081 39.8187 47.5552 40.0022 47.502C40.2271 47.4368 40.449 47.3672 40.6671 47.284C40.851 47.214 41.03 47.1362 41.2084 47.0538C41.4148 46.9584 41.6162 46.856 41.8145 46.7449C41.9881 46.6476 42.158 46.5469 42.3248 46.4381C42.5144 46.3142 42.6963 46.181 42.8764 46.0429C43.034 45.922 43.1899 45.8016 43.3394 45.6702C43.5134 45.5174 43.6759 45.3531 43.8383 45.1868C43.9744 45.0472 44.1122 44.9113 44.2397 44.7628C44.3988 44.5773 44.5419 44.3786 44.6864 44.1799C44.7952 44.0302 44.9099 43.8868 45.0099 43.73C45.159 43.4966 45.286 43.2482 45.4144 43.0001C45.4868 42.8602 45.57 42.728 45.6354 42.5836C45.8171 42.1831 45.9748 41.7682 46.0995 41.337C46.8814 38.6786 47.3109 38.1405 47.3565 38.0881C47.3514 38.0962 47.9037 37.6641 50.5425 37.037C52.0629 36.6734 53.4691 35.898 54.6114 34.7921C55.2047 34.2178 55.6898 33.5499 56.1057 32.8418C56.1551 32.7595 56.2091 32.6809 56.2559 32.5971C56.3783 32.373 56.4837 32.1432 56.5872 31.9097C56.6896 31.684 56.783 31.4562 56.8665 31.2225C56.9289 31.0441 56.9876 30.8665 57.0391 30.6843C57.0698 30.5765 57.1151 30.4738 57.1416 30.3648C58.6898 29.9474 59.5715 30.1285 59.8931 30.4838Z" fill="#347C75" stroke="#347C75"/>
<path d="M23.9755 5.81675L34.1817 16.62C36.2 18.7563 38.6793 20.2774 41.3526 21.0206C41.4249 21.0451 41.4953 21.0651 41.5497 21.0774L49.9367 23.3399C52.5841 24.058 54.2524 26.5443 53.9011 29.2535C53.8982 29.2758 53.9077 29.2955 53.9058 29.3177C53.9036 29.3426 53.8931 29.3656 53.8922 29.3907C53.8919 29.3966 53.8887 29.4019 53.8886 29.4079C53.7538 30.2682 53.4092 31.0801 52.9109 31.7866C52.0801 32.9637 50.8219 33.8489 49.3956 34.176C46.085 34.9286 45.0842 35.5592 44.5832 36.0235C44.056 36.5121 43.3827 37.4464 42.3944 40.6616C42.0514 41.7993 41.3691 42.7809 40.4767 43.5034C39.8457 44.0141 39.1061 44.3867 38.3103 44.6021C38.262 44.6151 38.2169 44.6362 38.1683 44.648C38.1311 44.657 38.0919 44.6583 38.0545 44.6666C37.806 44.7218 37.5545 44.7682 37.297 44.79C37.2631 44.7887 37.2308 44.8005 37.197 44.8014C37.1737 44.8019 37.1538 44.791 37.1303 44.7925C35.4949 44.8965 33.9159 44.2763 32.7961 43.0909C32.1088 42.3635 31.6403 41.4621 31.4408 40.4829L29.7092 31.9895C29.7016 31.9452 29.69 31.9035 29.6779 31.8613C29.1209 29.1761 27.7528 26.6201 25.7169 24.4652L15.5107 13.6619L23.9755 5.81675ZM48.9849 33.107C49.8469 32.7417 50.4951 32.3064 50.9835 31.8537C51.699 31.1906 52.0694 30.4908 52.2602 29.9225C52.9612 27.8304 51.8483 25.9614 51.7185 25.7561C51.2673 25.0338 50.2961 24.8305 49.5516 25.2997C48.8106 25.7614 48.5736 26.7248 49.0146 27.4453C49.0377 27.4834 49.5095 28.3294 49.2639 29.0368C49.1039 29.4995 48.6155 29.909 47.8191 30.2464C47.0011 30.5925 46.6145 31.5087 46.9366 32.2982C47.2587 33.0877 48.1764 33.4495 48.9849 33.107Z" fill="#347C75" stroke="#347C75"/>
<path d="M57.5719 59.9594L49.1251 57.6855C46.4845 56.97 44.8118 54.4829 45.1493 51.7729C45.4963 49.3109 47.3549 47.3783 49.6678 46.8503C52.9807 46.098 53.9822 45.4674 54.4835 45.0033C55.0111 44.5147 55.6848 43.5806 56.6738 40.366C57.3674 38.0689 59.4424 36.4104 61.8404 36.233C63.5727 36.1307 65.1581 36.7541 66.2772 37.9377C66.9644 38.6644 67.4342 39.5668 67.6349 40.5469L69.353 48.962C69.3573 49.0073 69.3649 49.0516 69.3742 49.0954C69.9292 51.807 71.3079 54.3885 73.3617 56.5606L84.4937 68.3336L76.0241 76.1763L64.8922 64.4033C62.8766 62.2717 60.3897 60.7492 57.6996 59.9994C57.6573 59.9841 57.6149 59.971 57.5719 59.9594Z" fill="#347C75" stroke="#347C75"/>
</svg>
