<svg width="100" height="100" viewBox="0 0 100 100" fill="none" xmlns="http://www.w3.org/2000/svg">
<path d="M12.3003 40.8C12.3003 21 28.3003 5 48.1003 5C67.8003 5 83.8003 21 83.8003 40.8C83.8003 42.5 83.7003 43.1 83.4003 44.1C83.3003 44.4 83.2003 44.8 83.1003 45.3C83.1003 45.5 83.1003 45.7 83.2003 45.8L87.2003 53.9C88.5003 56.6 86.8003 59.9 83.7003 60.2L79.0003 60.7C78.9003 60.7 78.8003 60.8 78.8003 60.9V68.4C78.8003 73.3 74.9003 77.2 70.0003 77.2H67.2003C65.5003 77.2 64.2003 78.7 64.4003 80.4L65.5003 88.2C66.0003 91.8 63.2003 95 59.6003 95H33.7002C29.9002 95 27.0003 91.4 27.8003 87.7L31.2002 72.4C20.0003 66.4 12.3003 54.5 12.3003 40.8ZM36.9003 53.3L37.1003 53.4C40.0003 54.6 42.3003 55.5 44.1003 57.2C45.7002 58.8 47.2003 61.2 47.8003 65.7C45.2003 70.7 43.5003 77.3 43.1003 85.8C43.0003 87.3 44.2003 88.7 45.8003 88.7C47.4002 88.7 48.7003 87.6 48.7003 86C49.2003 74 52.5003 67 56.5003 63C60.4003 59 65.3003 57.7 69.9003 57.7C71.4003 57.7 72.7003 56.4 72.7003 54.9C72.7003 53.4 71.4003 52.1 69.9003 52.1C64.2003 52.1 57.7003 53.8 52.5003 59.1C52.3003 59.3 52.2002 59.4 52.1003 59.6C51.1003 56.9 49.7003 54.8 48.0003 53.2C45.4003 50.7 42.1003 49.4 39.5003 48.4L39.0003 48.2C37.6003 47.6 35.9003 48.3 35.4003 49.8C34.8003 51 35.5003 52.7 36.9003 53.3Z" fill="#347C75" stroke="#347C75"/>
</svg>
