<svg width="90" height="95" viewBox="0 0 90 95" fill="none" xmlns="http://www.w3.org/2000/svg">
<path d="M14.8457 54.5762C14.4219 54.334 14 54.0742 13.5918 53.8086C12.9941 53.418 12.2285 53.4902 11.7148 53.9355C11.2227 50.9844 10.918 47.8594 10.918 44.6504C10.918 24.582 41.166 15.5078 44.9512 14.4512C46.7383 14.9492 54.4395 17.2266 62.0254 21.5937C67.0137 24.4648 70.9746 27.6621 73.7969 31.0957C77.2383 35.2793 78.9824 39.8418 78.9824 44.6504C78.9824 47.834 78.6797 50.9355 78.1953 53.8652C77.6855 53.4844 76.9707 53.4395 76.4082 53.8086C75.998 54.0742 75.5762 54.334 75.1523 54.5762C74.4043 55.0039 74.1426 55.959 74.5723 56.707C74.8594 57.2129 75.3867 57.4941 75.9297 57.4941C76.1934 57.4941 76.459 57.4277 76.7031 57.2891C77.0234 57.1055 77.3418 56.9121 77.6582 56.7148C75.8574 65.2227 72.7207 71.8965 71.502 74.2871C66.8203 83.4707 54.6113 93.7402 45.2773 93.7402C41.0137 93.7402 35.5254 91.4883 30.2227 87.5625C25.1348 83.7949 20.7148 78.834 18.3965 74.2871C17.1738 71.8887 14.0234 65.1855 12.2266 56.6406C12.5781 56.8652 12.9355 57.082 13.2949 57.2891C13.5391 57.4277 13.8066 57.4941 14.0703 57.4941C14.6113 57.4941 15.1387 57.2129 15.4277 56.707C15.8555 55.959 15.5957 55.0039 14.8457 54.5762ZM51.2207 59.498C50.5781 58.9219 49.5898 58.9746 49.0137 59.6172C47.8965 60.8613 46.4375 61.5742 45.0137 61.5742C43.5371 61.5742 42.041 60.8184 40.9082 59.498C40.3477 58.8438 39.3613 58.7676 38.7051 59.3301C38.0508 59.8926 37.9746 60.8789 38.5371 61.5332C40.2637 63.5449 42.625 64.6992 45.0137 64.6992C47.3223 64.6992 49.6289 63.6074 51.3379 61.7051C51.916 61.0625 51.8613 60.0742 51.2207 59.498ZM71.6777 57.918C71.4629 57.084 70.6113 56.5801 69.7754 56.7969C69.3066 56.918 68.832 57.0215 68.3672 57.1035C67.5176 57.2539 66.9512 58.0645 67.1016 58.9141C67.2344 59.6719 67.8945 60.2051 68.6387 60.2051C68.7285 60.2051 68.8203 60.1973 68.9121 60.1797C69.457 60.084 70.0098 59.9629 70.5566 59.8223C71.3926 59.6074 71.8945 58.7539 71.6777 57.918ZM60.4609 69.707C60.7617 69.9824 61.1406 70.1172 61.5176 70.1172C61.9395 70.1172 62.3613 69.9473 62.6699 69.6113L63.8613 68.3105V73.6699C63.8613 74.5332 64.5605 75.2324 65.4238 75.2324C66.2871 75.2324 66.9863 74.5332 66.9863 73.6699V68.3105L68.1777 69.6113C68.7617 70.248 69.75 70.2891 70.3867 69.707C71.0215 69.123 71.0645 68.1348 70.4824 67.498L66.5762 63.2402C66.2793 62.916 65.8613 62.7324 65.4238 62.7324C64.9863 62.7324 64.5684 62.916 64.2715 63.2402L60.3652 67.498C59.7832 68.1348 59.8262 69.123 60.4609 69.707ZM60.4316 59.7637C60.9922 59.9434 61.5645 60.0918 62.1309 60.1992C62.2305 60.2188 62.3281 60.2266 62.4258 60.2266C63.1602 60.2266 63.8164 59.707 63.959 58.957C64.1211 58.1094 63.5645 57.291 62.7168 57.1289C62.2773 57.0449 61.8301 56.9316 61.3926 56.7891C60.5703 56.5234 59.6895 56.9746 59.4258 57.7969C59.1602 58.6172 59.6113 59.498 60.4316 59.7637ZM62.9805 46.125C66.6758 46.125 69.6836 43.1172 69.6836 39.4199C69.6836 39.2793 69.6758 39.1387 69.668 38.998C70.4727 39.4492 70.8965 39.8203 70.9004 39.8262C71.1992 40.1016 71.5762 40.2363 71.9531 40.2363C72.375 40.2363 72.7949 40.0664 73.1055 39.7305C73.6895 39.0937 73.6426 38.1016 73.0078 37.5176C72.8633 37.3848 69.3848 34.252 62.9805 34.252C56.5762 34.252 53.0957 37.3848 52.9512 37.5176C52.3164 38.1016 52.2754 39.0898 52.8594 39.7266C53.4434 40.3613 54.4316 40.4023 55.0664 39.8184C55.0664 39.8184 55.4883 39.4473 56.291 38.998C56.2832 39.1387 56.2754 39.2793 56.2754 39.4199C56.2754 43.1172 59.2832 46.125 62.9805 46.125ZM56.5684 53.9902C55.9531 53.4492 55.6094 53.0547 55.6074 53.0508C55.0449 52.3984 54.0586 52.3242 53.4043 52.8848C52.752 53.4453 52.6738 54.4277 53.2324 55.082C53.2813 55.1387 53.7207 55.6484 54.5078 56.3379C54.8047 56.5996 55.1719 56.7266 55.5371 56.7266C55.9727 56.7266 56.4043 56.5469 56.7129 56.1953C57.2812 55.5469 57.2168 54.5586 56.5684 53.9902ZM33.4785 75.2559C34.1328 76.0215 40.0117 82.7363 44.9492 82.7363C49.8867 82.7363 55.7656 76.0215 56.4199 75.2559C56.7363 74.8867 56.8613 74.3887 56.7598 73.9121C56.6563 73.4375 56.3379 73.0352 55.8984 72.8281C55.1367 72.4688 48.3594 69.3242 44.9492 69.3242C41.5391 69.3242 34.7637 72.4688 34.002 72.8281C33.5605 73.0352 33.2422 73.4375 33.1387 73.9121C33.0371 74.3887 33.1621 74.8867 33.4785 75.2559ZM33.2852 56.1953C33.5957 56.5469 34.0273 56.7266 34.4609 56.7266C34.8262 56.7266 35.1953 56.5996 35.4902 56.3379C36.2773 55.6484 36.7187 55.1387 36.7656 55.082C37.3262 54.4258 37.248 53.4395 36.5918 52.8789C35.9355 52.3203 34.9531 52.3965 34.3906 53.0508C34.377 53.0684 34.0352 53.459 33.4297 53.9902C32.7813 54.5586 32.7168 55.5469 33.2852 56.1953ZM30.5742 57.7969C30.3086 56.9746 29.4277 56.5234 28.6074 56.7891C28.168 56.9316 27.7227 57.0449 27.2812 57.1289C26.4336 57.291 25.8789 58.1094 26.0391 58.957C26.1836 59.707 26.8379 60.2266 27.5723 60.2266C27.6699 60.2266 27.7695 60.2188 27.8672 60.1992C28.4336 60.0918 29.0059 59.9434 29.5664 59.7637C30.3887 59.498 30.8379 58.6172 30.5742 57.7969ZM19.5312 69.707C19.832 69.9824 20.2109 70.1172 20.5879 70.1172C21.0098 70.1172 21.4316 69.9473 21.7402 69.6113L22.9316 68.3105V73.6699C22.9316 74.5332 23.6309 75.2324 24.4941 75.2324C25.3574 75.2324 26.0566 74.5332 26.0566 73.6699V68.3105L27.248 69.6113C27.832 70.248 28.8203 70.2891 29.457 69.707C30.0918 69.123 30.1348 68.1348 29.5527 67.498L25.6465 63.2402C25.3496 62.916 24.9316 62.7324 24.4941 62.7324C24.0566 62.7324 23.6387 62.916 23.3418 63.2402L19.4355 67.498C18.8535 68.1348 18.8965 69.123 19.5312 69.707ZM19.4414 59.8223C19.9883 59.9629 20.543 60.084 21.0879 60.1797C21.1797 60.1973 21.2715 60.2051 21.3613 60.2051C22.1055 60.2051 22.7637 59.6719 22.8984 58.9141C23.0488 58.0645 22.4805 57.2539 21.6309 57.1035C21.166 57.0215 20.6914 56.918 20.2246 56.7969C19.3867 56.5801 18.5352 57.084 18.3203 57.918C18.1035 58.7539 18.6074 59.6074 19.4414 59.8223ZM16.7988 39.7266C17.3809 40.3594 18.3633 40.4023 18.998 39.8242C19.0195 39.8066 19.4414 39.4395 20.2324 38.998C20.2227 39.1387 20.2168 39.2793 20.2168 39.4199C20.2168 43.1172 23.2227 46.125 26.9199 46.125C30.6172 46.125 33.623 43.1172 33.623 39.4199C33.623 39.2793 33.6172 39.1387 33.6074 38.998C34.4121 39.4492 34.8359 39.8203 34.8418 39.8262C35.1406 40.1016 35.5176 40.2363 35.8926 40.2363C36.3145 40.2363 36.7363 40.0664 37.0449 39.7305C37.6289 39.0937 37.584 38.1016 36.9492 37.5176C36.8027 37.3848 33.3262 34.252 26.9199 34.252C20.5137 34.252 17.0352 37.3848 16.8906 37.5176C16.2559 38.1016 16.2148 39.0898 16.7988 39.7266Z" fill="#347C75" stroke="#347C75"/>
<path d="M2.7246 40.0742C3.3125 41.8164 3.99023 43.4648 4.70703 44.9961C4.54101 44.2227 4.38866 43.4199 4.2578 42.5918C3.02733 34.7402 3.5039 23.0293 12.7773 11.8359C13.0117 11.5527 13.25 11.2754 13.4883 11.002C13.498 10.9922 13.5078 10.9805 13.5156 10.9707C18.4668 5.32227 24.1602 1.97852 29.0684 0H16.6016C13.8672 1.85352 11.4531 3.95899 9.41796 6.25977C4.63085 11.6738 1.77734 17.6484 0.933586 24.0176C0.255851 29.1309 0.85937 34.5332 2.7246 40.0742Z" fill="#347C75" stroke="#347C75"/>
<path d="M7.32813 41.9926C7.46094 42.8539 7.61915 43.684 7.79493 44.4828C7.83399 38.9808 9.82227 33.8012 13.7109 29.0844C16.7832 25.3539 21.043 21.9125 26.375 18.8519C31.0469 16.1683 35.6816 14.264 39.1035 13.0414C36.6289 12.5433 33.6934 12.0531 31.0742 11.8832C24.8828 11.4808 17.4531 13.0101 15.5117 13.4418C15.4024 13.5707 15.293 13.6996 15.1836 13.8305C11.4277 18.3637 8.91602 23.3558 7.71485 28.6664C6.75196 32.9242 6.62305 37.4086 7.32813 41.9926Z" fill="#347C75" stroke="#347C75"/>
<path d="M19.3763 9.52734C22.7064 8.99414 27.183 8.5 31.2767 8.76562C37.5677 9.17383 45.2337 11.2383 45.558 11.3262C45.6869 11.3613 45.808 11.4121 45.9212 11.4766C48.0775 12.0762 55.7474 14.3848 63.5248 18.8516C68.8548 21.9121 73.1166 25.3535 76.1888 29.084C80.1146 33.8496 82.1068 39.0879 82.1068 44.6504C82.1068 44.7441 82.1048 44.8359 82.1048 44.9297C82.3197 43.9941 82.513 43.0137 82.6693 41.9922C83.3763 37.4082 83.2455 32.9238 82.2826 28.666C81.0834 23.3555 78.5697 18.3633 74.8158 13.8301C68.5755 6.29687 60.8607 2.93945 55.4896 1.44922C51.2943 0.285156 47.8255 0.0429687 46.1693 0H43.8275C42.1712 0.0429687 38.7025 0.285156 34.5091 1.44922C30.2923 2.61914 24.6322 4.93945 19.3763 9.52734Z" fill="#347C75"/>
<path d="M60.932 0C66.0863 2.07813 72.1078 5.66016 77.223 11.8359C86.4945 23.0293 86.973 34.7402 85.7406 42.5918C85.6097 43.4199 85.4593 44.2207 85.2933 44.9941C86.0101 43.4629 86.6878 41.8164 87.2738 40.0742C89.141 34.5332 89.7445 29.1309 89.0667 24.0176C88.223 17.6484 85.3675 11.6738 80.5804 6.25977C78.5453 3.95899 76.1312 1.85352 73.3988 0H60.932Z" fill="#347C75"/>
<path d="M37.3027 74.7826C37.7732 78.0269 42.8164 80.8589 44.9492 80.8589C47.082 80.8589 51.2497 77.9292 52.6055 74.7729C49.0036 71.5817 45.6328 71.9721 44.9492 71.9721C43.2227 71.9721 38.8474 72.9489 37.3027 74.7826Z" fill="#347C75"/>
<path d="M59.4004 39.4199C59.4004 41.3945 61.0059 43 62.9805 43C64.9551 43 66.5586 41.3945 66.5586 39.4199C66.5586 38.8105 66.4043 38.2207 66.1133 37.6934C65.1152 37.4844 64.0684 37.377 62.9805 37.377C61.8926 37.377 60.8418 37.4844 59.8438 37.6934C59.5547 38.2207 59.4004 38.8125 59.4004 39.4199Z" fill="#347C75"/>
<path d="M23.3418 39.4199C23.3418 41.3945 24.9473 43 26.9199 43C28.8926 43 30.498 41.3945 30.498 39.4199C30.498 38.8105 30.3457 38.2207 30.0547 37.6934C29.0566 37.4844 28.0098 37.377 26.9199 37.377C25.8301 37.377 24.7832 37.4844 23.7852 37.6934C23.4941 38.2207 23.3418 38.8105 23.3418 39.4199Z" fill="#347C75"/>
</svg>
