<svg width="82" height="97" viewBox="0 0 82 97" fill="none" xmlns="http://www.w3.org/2000/svg">
<path d="M3.5 60.3672H78.5C79.6504 60.3672 80.584 61.3008 80.584 62.4512V66.166C80.584 67.3164 79.6504 68.25 78.5 68.25H3.5C2.34961 68.25 1.41601 67.3164 1.41601 66.166V62.4512C1.41601 61.3008 2.34961 60.3672 3.5 60.3672Z" fill="#347C75" stroke="#347C75"/>
<path d="M14.2207 95.0937H30.7773V93.207C30.7773 91.2227 32.3926 89.6074 34.377 89.6074H37.0898V78.9668C37.0898 78.5898 37.3965 78.2832 37.7734 78.2832C38.1504 78.2832 38.457 78.5898 38.457 78.9668V82.252C39.3203 80.7812 40.918 79.7949 42.7461 79.7949C43.0391 79.7949 43.3105 79.8809 43.541 80.0273V76.5273H21.7539C18.9648 76.5273 16.6953 74.2578 16.6953 71.4688C16.6953 71.0918 17.002 70.7852 17.3789 70.7852C17.7559 70.7852 18.0625 71.0918 18.0625 71.4688C18.0625 73.5039 19.7188 75.1602 21.7539 75.1602H60.2441C62.2793 75.1602 63.9355 73.5039 63.9355 71.4688C63.9355 71.0918 64.2422 70.7852 64.6191 70.7852C64.9961 70.7852 65.3027 71.0918 65.3027 71.4688C65.3027 74.2578 63.0332 76.5273 60.2441 76.5273H44.9102V89.6094H47.623C49.6074 89.6094 51.2227 91.2246 51.2227 93.209V95.0957H67.7793C68.1562 95.0957 68.4629 95.4023 68.4629 95.7793C68.4629 96.1562 68.1562 96.4629 67.7793 96.4629H14.2207C13.8438 96.4629 13.5371 96.1562 13.5371 95.7793C13.5371 95.4023 13.8438 95.0937 14.2207 95.0937ZM32.1445 95.0937H49.8555V93.207C49.8555 91.9766 48.8535 90.9746 47.623 90.9746H34.3789C33.1484 90.9746 32.1465 91.9766 32.1465 93.207V95.0937H32.1445Z" fill="#347C75" stroke="#8AB4AF"/>
<path d="M67.7793 2.71094H51.2227V4.59766C51.2227 6.58203 49.6074 8.19727 47.623 8.19727H44.9102V12.3984C44.9102 12.7754 44.6035 13.082 44.2266 13.082C43.8496 13.082 43.543 12.7754 43.543 12.3984V9.90234C42.6719 11.3945 41.0547 12.3984 39.2012 12.3984C38.9297 12.3984 38.6758 12.3203 38.459 12.1875V14.3477H59.6875C61.2129 14.3477 62.4551 15.5879 62.4551 17.1152V20.041C62.4551 21.5664 61.2129 22.8086 59.6875 22.8086H59.6328C59.3867 24.6035 58.1875 26.0957 56.5625 26.7598L60.5098 28.8633C61.1543 28.0918 62.123 27.5977 63.2051 27.5977C65.1426 27.5977 66.7168 29.1738 66.7168 31.1094C66.7168 33.0449 65.1406 34.6211 63.2051 34.6211C62.9258 34.6211 62.6563 34.5859 62.3965 34.5234L60.0059 36.9141L60.6445 37.5527C60.9844 37.8926 61.1406 38.3574 61.0742 38.834C61.0078 39.3086 60.7305 39.7148 60.3125 39.9492L52.4121 44.375L50.5566 46.2305C50.4238 46.3633 50.248 46.4297 50.0742 46.4297C49.9004 46.4297 49.7246 46.3633 49.5898 46.2285C49.3223 45.9609 49.3223 45.5293 49.5898 45.2617L51.4453 43.4062L55.8711 35.5059C56.1055 35.0879 56.5117 34.8105 56.9863 34.7441C57.4629 34.6777 57.9277 34.8359 58.2676 35.1738L59.0391 35.9453L61.084 33.9004C60.2402 33.2578 59.6934 32.2461 59.6934 31.1074C59.6934 30.7422 59.75 30.3906 59.8535 30.0586L54.3262 27.1113C51.9551 26.9473 50.0352 25.127 49.7148 22.8027H45.957C45.6523 25.0176 43.8965 26.7734 41.6816 27.0781V34.3203H42.6797C43.1582 34.3203 43.5996 34.5391 43.8887 34.9219C44.1777 35.3047 44.2695 35.7871 44.1387 36.248L41.6816 44.9648V47.5898C41.6816 47.9668 41.375 48.2734 40.998 48.2734C40.6211 48.2734 40.3145 47.9668 40.3145 47.5898V44.9648L37.8574 36.248C37.7266 35.7871 37.8184 35.3027 38.1074 34.9219C38.3965 34.5391 38.8379 34.3203 39.3164 34.3203H40.3145V27.0781C38.0996 26.7734 36.3438 25.0176 36.0391 22.8027H32.2812C31.9551 25.1836 29.9492 27.0332 27.502 27.1211L21.9922 30.0586C22.0957 30.3906 22.1523 30.7422 22.1523 31.1074C22.1523 32.2461 21.6035 33.2578 20.7598 33.9004L22.8047 35.9453L23.5762 35.1738C23.916 34.8359 24.3809 34.6777 24.8574 34.7441C25.332 34.8105 25.7383 35.0879 25.9727 35.5059L30.3984 43.4062L32.2539 45.2617C32.5215 45.5293 32.5215 45.9609 32.2539 46.2285C32.1211 46.3613 31.9453 46.4277 31.7695 46.4277C31.5937 46.4277 31.4199 46.3613 31.2852 46.2285L29.4297 44.373L21.5293 39.9473C21.1113 39.7129 20.834 39.3066 20.7676 38.832C20.7012 38.3574 20.8594 37.8906 21.1973 37.5508L21.8359 36.9121L19.4453 34.5215C19.1856 34.584 18.916 34.6191 18.6367 34.6191C16.6992 34.6191 15.125 33.043 15.125 31.1074C15.125 29.1719 16.7012 27.5957 18.6367 27.5957C19.7188 27.5957 20.6875 28.0879 21.332 28.8613L25.3457 26.7207C23.7637 26.0391 22.6035 24.5664 22.3613 22.8047H22.3066C20.7812 22.8047 19.5391 21.5645 19.5391 20.0371V17.1152C19.5391 15.5898 20.7812 14.3477 22.3066 14.3477H37.084V8.19727H34.3711C32.3867 8.19727 30.7715 6.58203 30.7715 4.59766V2.71094H14.2148C13.8379 2.71094 13.5312 2.4043 13.5312 2.02734C13.5312 1.65039 13.8379 1.34375 14.2148 1.34375H67.7793C68.1562 1.34375 68.4629 1.65039 68.4629 2.02734C68.4629 2.4043 68.1562 2.71094 67.7793 2.71094ZM59.6777 38.5215L58.5566 37.4004L57.3008 36.1465C57.2656 36.1113 57.2285 36.1016 57.1973 36.1016C57.1895 36.1016 57.1816 36.1016 57.1758 36.1035C57.1426 36.1074 57.0957 36.125 57.0664 36.1777L53.7793 42.0449L59.6465 38.7578C59.6992 38.7285 59.7168 38.6816 59.7207 38.6484C59.7246 38.6152 59.7207 38.5645 59.6777 38.5215ZM61.6836 32.6211C61.6777 32.5488 61.6699 32.4785 61.6699 32.4043C61.6699 30.8418 62.9355 29.5762 64.498 29.5762C64.5703 29.5762 64.6426 29.584 64.7148 29.5898C64.3262 29.2051 63.793 28.9648 63.2031 28.9648C62.0195 28.9648 61.0586 29.9277 61.0586 31.1094C61.0605 31.6992 61.2988 32.2344 61.6836 32.6211ZM22.1289 38.6484C22.1328 38.6816 22.1504 38.7285 22.2031 38.7578L28.0703 42.0449L24.7832 36.1777C24.7539 36.125 24.707 36.1074 24.6738 36.1035C24.666 36.1035 24.6602 36.1016 24.6523 36.1016C24.6211 36.1016 24.582 36.1113 24.5488 36.1465L22.1719 38.5234C22.127 38.5645 22.125 38.6152 22.1289 38.6484ZM18.6426 28.9648C18.0527 28.9648 17.5195 29.2031 17.1309 29.5898C17.2031 29.584 17.2734 29.5762 17.3477 29.5762C18.9102 29.5762 20.1758 30.8418 20.1758 32.4043C20.1758 32.4766 20.168 32.5488 20.1621 32.6211C20.5469 32.2324 20.7871 31.6992 20.7871 31.1094C20.7891 29.9277 19.8262 28.9648 18.6426 28.9648ZM54.6738 25.7617C56.4473 25.7617 57.9258 24.4863 58.2461 22.8066H51.1016C51.4219 24.4883 52.9004 25.7617 54.6738 25.7617ZM39.3184 35.6895C39.2559 35.6895 39.2188 35.7227 39.1992 35.748C39.1797 35.7734 39.1582 35.8203 39.1738 35.8789L41 42.3535L42.8262 35.8789C42.8438 35.8203 42.8223 35.7754 42.8008 35.748C42.7793 35.7207 42.7422 35.6895 42.6816 35.6895H39.3184ZM41 25.7617C42.7734 25.7617 44.252 24.4863 44.5723 22.8066H37.4277C37.748 24.4883 39.2266 25.7617 41 25.7617ZM27.3262 25.7617C29.0996 25.7617 30.5781 24.4863 30.8984 22.8066H23.7539C24.0742 24.4883 25.5527 25.7617 27.3262 25.7617ZM22.3125 15.7148C21.541 15.7148 20.9121 16.3418 20.9121 17.1152V20.041C20.9121 20.8125 21.541 21.4414 22.3125 21.4414H59.6875C60.459 21.4414 61.0879 20.8145 61.0879 20.041V17.1152C61.0879 16.3438 60.459 15.7148 59.6875 15.7148H22.3125ZM49.8555 2.71094H32.1445V4.59766C32.1445 5.82812 33.1465 6.83008 34.377 6.83008H47.6211C48.8516 6.83008 49.8535 5.82812 49.8535 4.59766V2.71094H49.8555Z" fill="#347C75" stroke="#8AB4AF"/>
</svg>
